<?xml version="1.0" encoding="UTF-8" standalone="no"?>
<!DOCTYPE svg PUBLIC "-//W3C//DTD SVG 1.1//EN" "http://www.w3.org/Graphics/SVG/1.1/DTD/svg11.dtd">
<svg width="100%" height="100%" viewBox="0 0 591 336" version="1.1" xmlns="http://www.w3.org/2000/svg" xmlns:xlink="http://www.w3.org/1999/xlink" xml:space="preserve" xmlns:serif="http://www.serif.com/" style="fill-rule:evenodd;clip-rule:evenodd;stroke-linejoin:round;stroke-miterlimit:2;">
    <g transform="matrix(1,0,0,1,-4671.26,-6044.49)">
        <g transform="matrix(2.52961,0,0,2.52961,4688.28,5936.26)">
            <path d="M130.531,68.956C132.349,68.636 134.156,68.12 135.949,67.31C135.992,67.29 136.034,67.284 136.081,67.29C137.512,67.476 138.566,68.29 139.228,69.759C139.263,69.836 139.256,69.918 139.211,69.99C137.01,73.448 135.801,77.424 134.817,81.517C134.801,81.588 134.758,81.644 134.692,81.677C134.627,81.71 134.557,81.714 134.489,81.686C133.965,81.474 133.476,81.18 133.087,80.645C133.052,80.596 133.036,80.543 133.041,80.484C133.271,77.285 133.911,74.085 135.131,70.886C133.251,72.239 131.389,73.148 129.535,73.832C130.082,72.213 130.427,70.595 130.531,68.956ZM129.21,44.854C129.223,44.754 129.175,44.662 129.088,44.612C129,44.562 128.896,44.57 128.817,44.632C128.078,45.215 127.309,45.638 126.509,45.902C125.932,45.228 125.645,44.047 125.625,43.025C125.624,42.955 125.596,42.893 125.542,42.846C125.489,42.799 125.426,42.779 125.354,42.787C115.74,43.832 115.96,50.694 116.017,56.166C116.071,61.396 111.976,62.842 106.676,62.949C102.665,63.03 98.427,61.515 94.548,62.928C93.506,63.308 92.63,63.878 91.923,64.579C89.982,62.449 87.143,61.551 84.435,62.999C81.462,64.588 80.401,67.938 80.847,71.134C81.197,73.64 82.315,76.147 83.163,78.443C84.537,82.165 85.514,85.723 83.072,88.267C82.995,88.348 82.981,88.466 83.039,88.562C83.096,88.658 83.208,88.702 83.315,88.671C86.386,87.795 88.898,84.902 88.899,81.613C88.901,76.958 84.987,71.962 86.551,67.74C87.203,65.982 88.758,64.997 91.19,65.431C89.252,68.088 89.256,71.96 91.393,74.775C94.303,78.609 96.757,83.548 91.806,87.025C91.71,87.092 91.676,87.212 91.721,87.32C93.627,91.793 96.161,95.982 98.716,98.765C98.764,98.818 98.825,98.844 98.896,98.844L100.867,98.844C100.956,98.844 101.032,98.8 101.077,98.723C101.122,98.647 101.123,98.558 101.08,98.481C99.254,95.228 97.887,91.873 97.024,88.407C101.179,85.29 105.01,82.426 104.401,75.36C111.344,73.995 117.2,78.099 122.191,78.551C122.884,85.46 124.552,92.707 127.343,98.703C127.384,98.791 127.467,98.844 127.563,98.844L129.625,98.844C129.709,98.844 129.781,98.806 129.826,98.736C129.873,98.666 129.882,98.585 129.851,98.507C127.688,93.235 126.658,86.667 127.088,80.636C127.439,75.703 128.003,76.555 129.144,72.293C131.81,62.338 124.851,57.837 125.734,53.305C126.689,55.005 129.957,53.568 131.655,54.573C131.728,54.616 131.809,54.62 131.885,54.583C132.545,54.27 133.085,53.734 133.479,52.934C133.533,52.826 133.502,52.699 133.404,52.628C131.541,51.277 129.81,49.557 128.272,47.279C128.767,46.549 129.091,45.82 129.21,44.854ZM111.303,76.384C111.471,82.712 107.816,85.446 103.868,88.407C104.731,91.873 106.1,95.228 107.924,98.481C107.968,98.558 107.967,98.647 107.922,98.723C107.876,98.8 107.8,98.844 107.711,98.844L105.74,98.844C105.669,98.844 105.608,98.818 105.561,98.765C103.174,96.165 100.807,92.34 98.952,88.203C98.905,88.099 98.934,87.98 99.024,87.911C100.346,86.883 101.623,85.789 102.671,84.488C104.695,81.97 105.403,79.169 105.262,76.039C107.329,75.744 109.326,75.942 111.303,76.384Z" style="fill:rgb(56,56,56);"/>
        </g>
        <path d="M5261.81,6380.16L5261.81,6372.9L4671.26,6372.9L4671.26,6380.16L5261.81,6380.16ZM4671.26,6186.3L4848.4,6186.3L4848.4,6179.04L4671.26,6179.04L4671.26,6186.3ZM5084.68,6186.3L5261.81,6186.3L5261.81,6179.04L5084.68,6179.04L5084.68,6186.3Z" style="fill:rgb(181,165,140);"/>
        <g transform="matrix(1,0,0,1,0,-1.56661)">
            <path d="M4679.49,6321.23C4678.43,6322 4676.65,6322.57 4674.15,6322.96C4672.22,6323.15 4671.26,6324.11 4671.26,6325.85C4671.26,6328.16 4674.1,6329.22 4679.78,6329.03L4700.15,6329.03C4701.88,6328.83 4702.98,6328.3 4703.47,6327.44C4703.85,6326.47 4703.85,6325.41 4703.47,6324.26C4702.98,6323.39 4702.41,6322.91 4701.73,6322.82C4701.73,6322.82 4701.01,6322.72 4699.57,6322.53C4698.03,6322.53 4696.73,6321.95 4695.67,6320.79C4694.61,6319.64 4694.51,6317.76 4695.38,6315.16L4699.57,6302.31L4728.16,6302.31L4729.61,6305.92C4731.82,6311.5 4732.93,6315.26 4732.93,6317.18C4732.93,6319.78 4731.34,6321.56 4728.16,6322.53C4725.66,6323.3 4724.31,6323.78 4724.12,6323.97C4723.16,6324.93 4723.06,6326.04 4723.83,6327.29C4724.5,6328.45 4726.62,6329.03 4730.19,6329.03L4749.83,6329.03C4758.11,6328.83 4762.54,6328.54 4763.11,6328.16C4763.69,6327.58 4763.84,6326.67 4763.55,6325.41C4763.35,6324.55 4762.97,6323.87 4762.39,6323.39C4762.2,6323.3 4761.93,6323.18 4761.6,6323.03C4761.26,6322.89 4760.85,6322.72 4760.37,6322.53C4756.23,6320.99 4753.44,6319.11 4751.99,6316.89C4751.8,6316.51 4751.41,6315.64 4750.84,6314.29C4750.26,6312.95 4749.54,6311.07 4748.67,6308.66L4723.69,6239.34C4722.05,6234.62 4720.61,6231.39 4719.35,6229.66C4718.2,6228.02 4716.95,6227.21 4715.6,6227.21C4714.35,6227.21 4712.76,6227.88 4710.83,6229.23C4708.04,6231.15 4706.45,6232.16 4706.07,6232.26C4704.91,6232.84 4703.66,6233.39 4702.31,6233.92C4700.96,6234.45 4699.74,6234.98 4698.63,6235.51C4697.52,6236.04 4696.56,6236.57 4695.74,6237.1C4694.92,6237.63 4694.46,6238.13 4694.37,6238.62C4693.98,6239.77 4694.18,6240.76 4694.94,6241.58C4695.72,6242.4 4696.73,6242.76 4697.98,6242.66L4700.87,6242.37C4702.98,6242.66 4704.53,6243.43 4705.49,6244.68C4706.16,6245.36 4707.27,6247.23 4708.81,6250.31L4687.15,6308.08C4684.35,6315.31 4681.8,6319.69 4679.49,6321.23ZM4973.4,6321.23C4972.34,6322 4970.56,6322.57 4968.05,6322.96C4966.13,6323.15 4965.16,6324.11 4965.16,6325.85C4965.16,6328.16 4968,6329.22 4973.68,6329.03L4994.05,6329.03C4995.78,6328.83 4996.89,6328.3 4997.37,6327.44C4997.76,6326.47 4997.76,6325.41 4997.37,6324.26C4996.89,6323.39 4996.31,6322.91 4995.64,6322.82C4995.64,6322.82 4994.91,6322.72 4993.47,6322.53C4991.93,6322.53 4990.63,6321.95 4989.57,6320.79C4988.51,6319.64 4988.42,6317.76 4989.28,6315.16L4993.47,6302.31L5022.07,6302.31L5023.51,6305.92C5025.73,6311.5 5026.83,6315.26 5026.83,6317.18C5026.83,6319.78 5025.24,6321.56 5022.07,6322.53C5019.56,6323.3 5018.22,6323.78 5018.02,6323.97C5017.06,6324.93 5016.96,6326.04 5017.73,6327.29C5018.41,6328.45 5020.53,6329.03 5024.09,6329.03L5043.73,6329.03C5052.01,6328.83 5056.44,6328.54 5057.02,6328.16C5057.6,6327.58 5057.74,6326.67 5057.45,6325.41C5057.26,6324.55 5056.87,6323.87 5056.3,6323.39C5056.1,6323.3 5055.84,6323.18 5055.5,6323.03C5055.16,6322.89 5054.76,6322.72 5054.27,6322.53C5050.13,6320.99 5047.34,6319.11 5045.9,6316.89C5045.7,6316.51 5045.32,6315.64 5044.74,6314.29C5044.16,6312.95 5043.44,6311.07 5042.57,6308.66L5017.59,6239.34C5015.95,6234.62 5014.51,6231.39 5013.26,6229.66C5012.1,6228.02 5010.85,6227.21 5009.5,6227.21C5008.25,6227.21 5006.66,6227.88 5004.74,6229.23C5001.94,6231.15 5000.36,6232.16 4999.97,6232.26C4998.81,6232.84 4997.56,6233.39 4996.22,6233.92C4994.87,6234.45 4993.64,6234.98 4992.53,6235.51C4991.43,6236.04 4990.46,6236.57 4989.64,6237.1C4988.82,6237.63 4988.37,6238.13 4988.27,6238.62C4987.89,6239.77 4988.08,6240.76 4988.85,6241.58C4989.62,6242.4 4990.63,6242.76 4991.88,6242.66L4994.77,6242.37C4996.89,6242.66 4998.43,6243.43 4999.39,6244.68C5000.07,6245.36 5001.17,6247.23 5002.71,6250.31L4981.05,6308.08C4978.26,6315.31 4975.71,6319.69 4973.4,6321.23ZM4786.37,6329.03L4822.04,6329.03C4834.36,6329.03 4843.51,6324.74 4849.48,6316.17C4852.46,6311.74 4853.96,6306.45 4853.96,6300.28C4853.96,6296.82 4853.43,6293.59 4852.37,6290.61C4850.44,6285.6 4847.7,6281.9 4844.14,6279.49C4841.15,6277.56 4837.15,6276.02 4832.15,6274.87C4839.18,6271.59 4843.94,6267.5 4846.45,6262.59C4847.8,6259.89 4848.47,6257.01 4848.47,6253.92C4848.47,6249.88 4847.51,6246.17 4845.58,6242.8C4842.98,6238.18 4839.27,6235.15 4834.46,6233.7C4831.67,6232.74 4827.33,6232.26 4821.46,6232.26L4786.37,6232.26C4783.28,6232.26 4781.55,6232.31 4781.17,6232.4C4779.34,6232.79 4778.42,6233.8 4778.42,6235.44C4778.42,6237.27 4779.39,6238.42 4781.31,6238.9C4782.95,6239.29 4784.22,6239.6 4785.14,6239.84C4786.05,6240.08 4786.61,6240.25 4786.8,6240.35C4788.73,6241.41 4789.69,6243.67 4789.69,6247.14L4789.69,6314.15C4789.69,6317.62 4788.73,6319.88 4786.8,6320.94C4786.61,6321.03 4786.05,6321.2 4785.14,6321.44C4784.22,6321.68 4782.95,6322 4781.31,6322.38C4779.39,6322.86 4778.42,6324.02 4778.42,6325.85C4778.42,6327.49 4779.34,6328.5 4781.17,6328.88C4781.55,6328.98 4783.28,6329.03 4786.37,6329.03ZM4914.04,6232.26L4878.51,6232.26C4875.43,6232.26 4873.69,6232.31 4873.31,6232.4C4871.48,6232.79 4870.57,6233.8 4870.57,6235.44C4870.57,6237.27 4871.53,6238.42 4873.45,6238.9C4875.09,6239.29 4876.37,6239.6 4877.28,6239.84C4878.2,6240.08 4878.75,6240.25 4878.94,6240.35C4880.87,6241.41 4881.83,6243.67 4881.83,6247.14L4881.83,6314.15C4881.83,6317.62 4880.87,6319.88 4878.94,6320.94C4878.75,6321.03 4878.2,6321.2 4877.28,6321.44C4876.37,6321.68 4875.09,6322 4873.45,6322.38C4871.53,6322.86 4870.57,6324.02 4870.57,6325.85C4870.57,6327.49 4871.48,6328.5 4873.31,6328.88C4873.69,6328.98 4875.43,6329.03 4878.51,6329.03L4902.19,6329.03C4905.18,6329.03 4906.86,6328.98 4907.25,6328.88C4909.08,6328.5 4909.99,6327.49 4909.99,6325.85C4909.99,6324.02 4909.03,6322.86 4907.11,6322.38C4903.83,6321.71 4902.05,6321.27 4901.76,6321.08C4899.84,6319.93 4898.87,6317.62 4898.87,6314.15L4898.87,6240.2C4900.7,6239.91 4902.68,6239.77 4904.79,6239.77C4909.9,6239.77 4913.99,6240.64 4917.07,6242.37C4920.54,6244.3 4923.23,6247.62 4925.16,6252.34C4926.6,6256.09 4927.28,6259.7 4927.18,6263.17C4927.08,6272.12 4923.57,6278.43 4916.64,6282.09C4915.1,6282.66 4913.72,6283.15 4912.52,6283.53C4911.32,6283.92 4910.33,6284.2 4909.56,6284.4C4905.03,6285.75 4902.77,6287.67 4902.77,6290.18C4902.77,6292 4905.23,6296.24 4910.14,6302.88L4915.48,6310.11C4918.85,6314.63 4920.97,6317.81 4921.84,6319.64C4922.51,6320.79 4922.9,6321.76 4922.99,6322.53C4923.09,6323.49 4923.16,6324.28 4923.21,6324.91C4923.26,6325.53 4923.28,6326.09 4923.28,6326.57C4923.47,6328.01 4924.48,6328.78 4926.31,6328.88C4926.6,6328.98 4929.06,6329.03 4933.68,6329.03L4949.57,6329.03C4951.01,6328.93 4951.97,6328.3 4952.45,6327.15C4953.03,6325.41 4952.69,6324.21 4951.44,6323.54C4950.96,6323.25 4949.18,6322.57 4946.1,6321.52C4944.17,6320.84 4942.44,6319.4 4940.9,6317.18C4939.26,6314.97 4937.72,6312.95 4936.28,6311.12C4934.83,6309.29 4933.53,6307.6 4932.38,6306.06L4920.68,6289.89C4931.18,6286.23 4938.35,6281.41 4942.2,6275.44C4944.41,6272.07 4945.52,6267.5 4945.52,6261.72C4945.52,6257.01 4944.8,6252.96 4943.36,6249.59C4938.44,6238.04 4928.67,6232.26 4914.04,6232.26ZM5186.13,6329.03L5217.76,6329.03C5225.95,6329.03 5232.64,6328.01 5237.84,6325.99C5245.15,6323.2 5250.98,6318.12 5255.31,6310.76C5259.65,6303.39 5261.81,6294.17 5261.81,6283.1C5261.81,6271.83 5259.6,6262.4 5255.17,6254.79C5250.07,6245.93 5243.47,6239.77 5235.38,6236.31C5229.32,6233.61 5221.28,6232.26 5211.26,6232.26L5186.13,6232.26C5183.05,6232.26 5181.32,6232.31 5180.93,6232.4C5179.1,6232.79 5178.19,6233.8 5178.19,6235.44C5178.19,6237.27 5179.15,6238.42 5181.08,6238.9C5182.72,6239.29 5183.99,6239.6 5184.9,6239.84C5185.82,6240.08 5186.37,6240.25 5186.57,6240.35C5188.49,6241.41 5189.45,6243.67 5189.45,6247.14L5189.45,6314.15C5189.45,6317.62 5188.49,6319.88 5186.57,6320.94C5186.37,6321.03 5185.82,6321.2 5184.9,6321.44C5183.99,6321.68 5182.72,6322 5181.08,6322.38C5179.15,6322.86 5178.19,6324.02 5178.19,6325.85C5178.19,6327.49 5179.1,6328.5 5180.93,6328.88C5181.32,6328.98 5183.05,6329.03 5186.13,6329.03ZM5139.77,6247.14L5139.77,6278.62C5130.24,6262.45 5119.7,6249.93 5108.14,6241.07C5098.13,6233.37 5089.08,6229.66 5080.99,6229.95C5077.14,6230.05 5074.2,6232.07 5072.18,6236.02C5071.7,6236.88 5070.83,6239.48 5069.58,6243.82C5068.33,6248.15 5067.61,6250.84 5067.42,6251.9C5067.13,6253.73 5067.99,6254.65 5070.02,6254.65C5070.79,6254.65 5071.36,6254.45 5071.75,6254.07C5072.33,6253.4 5072.9,6252.72 5073.48,6252.05C5074.06,6251.37 5074.59,6250.7 5075.07,6250.03C5076.8,6248 5078.54,6246.99 5080.27,6246.99C5081.91,6246.99 5083.83,6247.86 5086.05,6249.59L5086.05,6314.15C5086.05,6317.62 5085.08,6319.88 5083.16,6320.94C5082.97,6321.03 5082.41,6321.2 5081.5,6321.44C5080.58,6321.68 5079.31,6322 5077.67,6322.38C5075.74,6322.86 5074.78,6324.02 5074.78,6325.85C5074.78,6327.49 5075.7,6328.5 5077.53,6328.88C5077.91,6328.98 5079.6,6329.03 5082.58,6329.03L5100.78,6329.03C5103.67,6329.03 5105.3,6328.98 5105.69,6328.88C5107.52,6328.5 5108.43,6327.49 5108.43,6325.85C5108.43,6324.02 5107.47,6322.86 5105.54,6322.38C5102.17,6321.61 5100.35,6321.18 5100.06,6321.08C5098.13,6320.02 5097.17,6317.71 5097.17,6314.15L5097.17,6257.68C5100.54,6259.61 5104.22,6262.83 5108.22,6267.36C5112.21,6271.88 5116.66,6277.66 5121.57,6284.69C5131.69,6299.61 5137.17,6311.5 5138.04,6320.36C5138.23,6322.28 5138.38,6323.78 5138.47,6324.84C5138.57,6325.9 5138.66,6326.52 5138.76,6326.71C5139.15,6328.26 5140.11,6329.03 5141.65,6329.03L5147.14,6329.03C5149.16,6329.03 5150.32,6328.4 5150.6,6327.15C5150.8,6326.19 5150.89,6322.82 5150.89,6317.04L5150.89,6247.14C5150.89,6243.67 5151.86,6241.36 5153.78,6240.2C5154.07,6240.11 5155.9,6239.68 5159.27,6238.9C5161.19,6238.42 5162.16,6237.27 5162.16,6235.44C5162.16,6233.8 5161.24,6232.79 5159.41,6232.4C5159.03,6232.31 5157.34,6232.26 5154.36,6232.26L5136.31,6232.26C5133.23,6232.26 5131.49,6232.31 5131.11,6232.4C5129.28,6232.79 5128.36,6233.8 5128.36,6235.44C5128.36,6237.27 5129.33,6238.42 5131.25,6238.9C5132.98,6239.29 5134.31,6239.6 5135.22,6239.84C5136.14,6240.08 5136.69,6240.25 5136.88,6240.35C5138.81,6241.41 5139.77,6243.67 5139.77,6247.14ZM5206.5,6300.72L5206.5,6240.35C5213.24,6240.35 5218.63,6241.12 5222.67,6242.66C5227.78,6244.59 5232.06,6248 5235.53,6252.91C5240.24,6259.36 5242.6,6269.43 5242.6,6283.1C5242.6,6290.7 5241.83,6296.77 5240.29,6301.3C5236.34,6312.75 5230.57,6319.69 5222.96,6322.09C5221.81,6322.48 5220.41,6322.67 5218.77,6322.67C5215.69,6322.67 5213.07,6321.85 5210.9,6320.22C5208.73,6318.58 5207.36,6315.59 5206.78,6311.26C5206.69,6310.49 5206.62,6309.24 5206.57,6307.51C5206.52,6305.77 5206.5,6303.51 5206.5,6300.72ZM4806.73,6302.16L4806.73,6283.24C4810.39,6281.32 4814.14,6280.35 4817.99,6280.35C4821.46,6280.35 4824.45,6281.17 4826.95,6282.81C4833.11,6286.66 4835.9,6293.16 4835.33,6302.31C4835.13,6305.68 4834.27,6309 4832.73,6312.27C4830.8,6316.22 4828.3,6319.01 4825.22,6320.65C4823.58,6321.61 4821.65,6322.09 4819.44,6322.09C4816.94,6322.09 4814.48,6321.42 4812.07,6320.07C4809.47,6318.53 4807.79,6315.74 4807.02,6311.69C4806.92,6311.02 4806.85,6309.89 4806.8,6308.3C4806.75,6306.71 4806.73,6304.67 4806.73,6302.16ZM4702.89,6292.92L4714.01,6263.46L4724.84,6292.92L4702.89,6292.92ZM4996.79,6292.92L5007.91,6263.46L5018.74,6292.92L4996.79,6292.92ZM4806.73,6275.01L4806.73,6238.9C4810,6238.9 4812.6,6238.93 4814.53,6238.98C4816.45,6239.03 4817.75,6239.1 4818.43,6239.19C4822.57,6239.87 4825.75,6241.62 4827.96,6244.47C4830.18,6247.31 4831.28,6250.89 4831.28,6255.22C4831.28,6256.96 4831.04,6258.64 4830.56,6260.28C4829.12,6264.52 4826.42,6267.74 4822.47,6269.96C4821.12,6270.73 4819.46,6271.45 4817.49,6272.12C4815.52,6272.8 4813.18,6273.47 4810.48,6274.14L4806.73,6275.01ZM4700,6217.82C4699.13,6218.88 4698.7,6219.74 4698.7,6220.42C4698.7,6221.48 4699.28,6222.01 4700.43,6222.01C4701.01,6222.01 4701.69,6221.77 4702.46,6221.28L4715.45,6211.61C4717.48,6209.97 4718.29,6208.53 4717.91,6207.28C4717.33,6205.35 4716.32,6204.29 4714.88,6204.1C4713.53,6203.91 4711.89,6204.77 4709.97,6206.7C4707.85,6208.91 4705.97,6210.96 4704.33,6212.84C4702.7,6214.71 4701.25,6216.37 4700,6217.82ZM4993.9,6217.82C4993.04,6218.88 4992.6,6219.74 4992.6,6220.42C4992.6,6221.48 4993.18,6222.01 4994.34,6222.01C4994.91,6222.01 4995.59,6221.77 4996.36,6221.28L5009.36,6211.61C5011.38,6209.97 5012.2,6208.53 5011.81,6207.28C5011.23,6205.35 5010.22,6204.29 5008.78,6204.1C5007.43,6203.91 5005.8,6204.77 5003.87,6206.7C5001.75,6208.91 4999.87,6210.96 4998.24,6212.84C4996.6,6214.71 4995.16,6216.37 4993.9,6217.82Z" style="fill:rgb(56,56,56);fill-rule:nonzero;"/>
        </g>
    </g>
</svg>
