<svg xmlns="http://www.w3.org/2000/svg" shape-rendering="geometricPrecision" text-rendering="geometricPrecision" image-rendering="optimizeQuality" fill-rule="evenodd" clip-rule="evenodd" viewBox="0 0 487 511.538"><path fill-rule="nonzero" d="M294.99 270.238l18.449-238.883-.328-.068c.011.012.059.021-.018.021H173.909c-.074 0-.03-.009 0-.012l-.346.053 18.513 239.727c.642 8.61-5.818 16.111-14.428 16.753l-1.509.062c-2.269 0-4.422-.482-6.368-1.352l-94.153-32.953c-14.03-5.378-26.533-5.674-35.318-2.544-3.339 1.189-5.901 2.813-7.465 4.72-1.068 1.302-1.66 2.87-1.645 4.591.036 3.825 2.443 8.791 7.874 14.692l179.293 187.108.024-.023c12.065 12.062 19.794 18.099 25.52 18.099 5.724 0 13.453-6.037 25.518-18.099l.559-.53 179.11-186.907c4.674-5.377 6.738-10.048 6.723-13.763v-.062c-.006-1.763-.686-3.455-1.893-4.928-1.641-2.003-4.241-3.686-7.589-4.872-8.522-3.023-20.588-2.718-34.345 2.595l-95.188 33.308a15.576 15.576 0 01-5.135.873v.047h-1.145c-8.643 0-15.653-7.01-15.653-15.653 0-.677.045-1.346.127-2zm18.508-239.711l.006-.029c.006-.086 0-.033-.006.029zm31.188 2.295l-16.774 217.202 73.199-25.606c21.102-8.06 40.792-8.073 55.612-2.816 8.85 3.138 16.179 8.146 21.409 14.526 5.635 6.874 8.8 15.257 8.862 24.61v.115c.023 10.992-4.422 22.88-14.506 34.436l-1.008 1.157-178.962 186.756-.968 1.058c-18.182 18.18-31.918 27.275-47.649 27.275-15.733 0-29.469-9.095-47.651-27.275l.029-.029C135.225 423.177 76.532 358.103 16.075 296.2 5.021 284.194.111 271.904.008 260.596c-.089-9.335 3.049-17.712 8.737-24.646 5.195-6.335 12.45-11.272 21.161-14.375 15.097-5.38 35.35-5.348 56.786 2.843l72.374 25.319-16.751-216.915-.103-2.215c0-8.344 3.549-15.81 9.137-21.309C156.49 4.243 163.458.871 170.933.161l.515-.05a31.935 31.935 0 012.461-.109h139.184c.695 0 1.514.035 2.461.109 7.67.612 14.842 4.02 20.099 9.193 5.587 5.499 9.137 12.974 9.137 21.306l-.104 2.212zm-31.593-1.526c-.033-.005-.021-.003 0 0zm-139.184 0c.02-.003.032-.005 0 0z"/></svg>