<?xml version="1.0" encoding="UTF-8" standalone="no"?>
<!DOCTYPE svg PUBLIC "-//W3C//DTD SVG 1.1//EN" "http://www.w3.org/Graphics/SVG/1.1/DTD/svg11.dtd">
<svg width="100%" height="100%" viewBox="0 0 575 575" version="1.1" xmlns="http://www.w3.org/2000/svg" xmlns:xlink="http://www.w3.org/1999/xlink" xml:space="preserve" xmlns:serif="http://www.serif.com/" style="fill-rule:evenodd;clip-rule:evenodd;stroke-linejoin:round;stroke-miterlimit:2;">
    <path d="M8.587,403.096L57.463,403.096C62.665,428.955 87.841,445.7 113.701,440.498C125.357,438.154 135.718,431.548 142.761,421.967C158.384,443.216 188.275,447.779 209.525,432.157C219.106,425.114 225.713,414.752 228.06,403.096L421.655,403.096C426.923,429.033 452.217,445.79 478.154,440.522C497.009,436.692 511.75,421.955 515.58,403.096L564.459,403.096C569.751,403.096 574.041,398.806 574.041,393.514L574.041,320.741C574.045,311.035 572.906,301.364 570.66,291.922L549.726,203.913C546.111,186.009 530.399,173.125 512.136,173.082L225.358,173.082L208.889,140.043C207.259,136.779 203.913,134.724 200.267,134.744L66.089,134.744C62.458,134.744 59.136,136.795 57.513,140.043L40.998,173.082L8.587,173.082C3.291,173.082 -0.998,177.372 -0.998,182.663L-0.998,393.51C-0.998,398.806 3.291,403.096 8.587,403.096ZM104.427,422.263C88.547,422.263 75.674,409.39 75.674,393.51C75.674,377.631 88.547,364.761 104.427,364.761C120.307,364.761 133.176,377.631 133.176,393.51C133.176,409.39 120.303,422.263 104.427,422.263ZM181.096,422.263C165.216,422.263 152.347,409.39 152.347,393.51C152.347,377.631 165.216,364.761 181.096,364.761C196.975,364.761 209.848,377.631 209.848,393.51C209.848,409.39 196.975,422.263 181.096,422.263ZM468.619,422.263C452.739,422.263 439.866,409.39 439.866,393.51C439.866,377.631 452.739,364.761 468.619,364.761C484.499,364.761 497.368,377.631 497.368,393.51C497.368,409.39 484.495,422.263 468.619,422.263ZM18.169,355.176L37.34,355.176L37.34,336.009L18.169,336.009L18.169,316.842L554.643,316.842C554.69,318.144 554.873,319.439 554.873,320.741L554.873,336.009L535.706,336.009L535.706,355.176L554.873,355.176L554.873,383.929L515.58,383.929C515.58,383.757 515.463,383.605 515.424,383.43C514.835,380.704 514.004,378.032 512.943,375.447C512.569,374.487 512.062,373.684 511.629,372.791C510.806,371.048 509.882,369.351 508.86,367.714C508.248,366.754 507.546,365.885 506.876,364.98C505.823,363.553 504.688,362.18 503.483,360.87C502.679,360.016 501.845,359.22 500.983,358.424C499.7,357.235 498.351,356.124 496.939,355.09C495.98,354.392 495.02,353.721 494.065,353.086C492.513,352.142 490.914,351.28 489.272,350.508C488.254,350.021 487.268,349.553 486.215,349.081C484.339,348.371 482.416,347.778 480.463,347.31C479.503,347.061 478.606,346.733 477.635,346.542C471.626,345.314 465.433,345.314 459.427,346.542C458.468,346.733 457.509,347.061 456.6,347.31C454.646,347.778 452.728,348.371 450.848,349.081C449.795,349.502 448.805,350.04 447.791,350.508C446.149,351.28 444.546,352.142 442.998,353.086C442.039,353.721 441.083,354.392 440.124,355.09C438.712,356.124 437.359,357.235 436.08,358.424C435.214,359.22 434.383,360.016 433.576,360.87C432.375,362.18 431.24,363.553 430.183,364.98C429.513,365.881 428.815,366.754 428.202,367.714C427.181,369.351 426.252,371.048 425.434,372.791C425.001,373.684 424.474,374.526 424.119,375.447C423.059,378.032 422.228,380.704 421.635,383.43C421.635,383.605 421.522,383.757 421.483,383.929L228.06,383.929C228.06,383.757 227.943,383.605 227.904,383.43C227.311,380.704 226.481,378.032 225.424,375.447C225.05,374.487 224.543,373.684 224.11,372.791C223.287,371.048 222.363,369.351 221.341,367.714C220.729,366.754 220.027,365.885 219.356,364.98C218.299,363.553 217.168,362.18 215.963,360.87C215.16,360.016 214.325,359.22 213.464,358.424C212.181,357.235 210.831,356.124 209.42,355.09C208.46,354.392 207.501,353.721 206.542,353.086C204.993,352.142 203.394,351.28 201.753,350.508C200.735,350.021 199.748,349.553 198.695,349.081C196.831,348.371 194.928,347.778 192.99,347.31C192.031,347.061 191.134,346.733 190.116,346.542C184.231,345.341 178.163,345.341 172.278,346.542C171.783,346.639 171.323,346.706 170.793,346.811C168.133,347.396 165.528,348.207 163.005,349.237L161.585,349.861C159.062,350.964 156.637,352.282 154.34,353.799L153.954,354.096C151.762,355.617 149.695,357.321 147.784,359.185C147.476,359.481 147.16,359.758 146.825,360.066C145.37,361.54 144.013,363.112 142.761,364.761C141.474,363.073 140.078,361.474 138.585,359.969C138.277,359.665 137.961,359.384 137.625,359.087C135.711,357.223 133.648,355.523 131.452,353.998L131.07,353.702C128.769,352.185 126.347,350.867 123.824,349.763L122.405,349.139C119.882,348.11 117.273,347.302 114.613,346.714C114.126,346.608 113.654,346.542 113.127,346.444C107.243,345.243 101.179,345.243 95.294,346.444C94.335,346.639 93.375,346.963 92.467,347.213C90.513,347.681 88.59,348.273 86.714,348.987C85.662,349.408 84.671,349.946 83.657,350.414C82.031,351.187 80.448,352.048 78.911,352.992C77.956,353.624 76.996,354.295 76.037,354.993C74.625,356.026 73.276,357.141 71.993,358.331C71.131,359.126 70.297,359.922 69.493,360.776C68.288,362.082 67.157,363.455 66.1,364.886C65.43,365.787 64.728,366.661 64.115,367.616C63.094,369.254 62.166,370.95 61.347,372.697C60.914,373.59 60.387,374.433 60.032,375.353C58.972,377.935 58.141,380.606 57.552,383.336C57.552,383.508 57.435,383.66 57.396,383.835L18.169,383.835L18.169,355.176ZM229.016,336.009L420.695,336.009L420.695,355.176L229.016,355.176L229.016,336.009ZM551.999,296.348C552.105,296.789 552.132,297.23 552.229,297.671L478.201,297.671L478.201,230.583L536.377,230.583L551.999,296.348ZM459.034,230.583L459.034,297.671L401.528,297.671L401.528,230.583L459.034,230.583ZM382.361,230.583L382.361,297.671L324.859,297.671L324.859,230.583L382.361,230.583ZM305.688,230.583L305.688,297.671L248.187,297.671L248.187,230.583L305.688,230.583ZM229.016,230.583L229.016,297.671L171.514,297.671L171.514,230.583L229.016,230.583ZM152.347,230.583L152.347,297.671L94.841,297.671L94.841,230.583L152.347,230.583ZM18.169,230.583L75.674,230.583L75.674,297.671L18.169,297.671L18.169,230.583ZM18.169,192.249L512.14,192.249C521.386,192.308 529.295,198.906 531.011,207.996L531.873,211.416L18.169,211.416L18.169,192.249ZM72.012,153.911L194.343,153.911L203.925,173.082L62.427,173.082L72.012,153.911Z" style="fill-rule:nonzero;"/>
</svg>
