<?xml version="1.0" encoding="UTF-8" standalone="no"?>
<!DOCTYPE svg PUBLIC "-//W3C//DTD SVG 1.1//EN" "http://www.w3.org/Graphics/SVG/1.1/DTD/svg11.dtd">
<svg width="100%" height="100%" viewBox="0 0 512 512" version="1.1" xmlns="http://www.w3.org/2000/svg" xmlns:xlink="http://www.w3.org/1999/xlink" xml:space="preserve" xmlns:serif="http://www.serif.com/" style="fill-rule:evenodd;clip-rule:evenodd;stroke-linejoin:round;stroke-miterlimit:2;">
    <path d="M110.933,287.834C87.407,287.834 68.266,306.974 68.266,330.501C68.266,354.027 87.406,373.168 110.933,373.168C134.459,373.168 153.6,354.028 153.6,330.501C153.6,306.975 134.46,287.834 110.933,287.834ZM401.067,287.834C377.541,287.834 358.4,306.974 358.4,330.501C358.4,354.027 377.54,373.168 401.067,373.168C424.593,373.168 443.734,354.028 443.734,330.501C443.733,306.975 424.593,287.834 401.067,287.834ZM110.933,356.101C96.819,356.101 85.333,344.615 85.333,330.501C85.333,316.387 96.819,304.901 110.933,304.901C125.047,304.901 136.533,316.387 136.533,330.501C136.533,344.615 125.047,356.101 110.933,356.101ZM401.067,356.101C386.953,356.101 375.467,344.615 375.467,330.501C375.467,316.387 386.953,304.901 401.067,304.901C415.181,304.901 426.667,316.387 426.667,330.501C426.667,344.615 415.181,356.101 401.067,356.101ZM503.467,287.834L503.467,236.634C503.467,232.956 501.12,229.696 497.63,228.536L449.476,212.485C431.343,181.774 406.417,152.547 351.334,142.896C351.232,142.879 351.129,142.862 351.027,142.845C249.31,128.782 172.936,151.728 123.904,211.069C67.217,211.888 8.533,229.765 8.533,262.234L8.533,287.834C3.823,287.834 0,291.657 0,296.367L0,330.5C0,335.21 3.823,339.033 8.533,339.033L42.666,339.033C47.376,339.033 51.199,335.21 51.199,330.5C51.199,297.561 77.994,270.767 110.932,270.767C143.87,270.767 170.665,297.562 170.665,330.5C170.665,335.21 174.488,339.033 179.198,339.033L332.798,339.033C337.508,339.033 341.331,335.21 341.331,330.5C341.331,297.561 368.126,270.767 401.064,270.767C434.003,270.767 460.797,297.562 460.797,330.5C460.797,335.21 464.62,339.033 469.33,339.033L503.463,339.033C508.173,339.033 511.996,335.21 511.996,330.5L511.996,296.367C512,291.657 508.177,287.834 503.467,287.834ZM494.933,321.968L477.397,321.968C473.139,283.619 440.533,253.701 401.066,253.701C361.599,253.701 328.993,283.619 324.735,321.968L187.264,321.968C183.006,283.619 150.4,253.701 110.933,253.701C71.466,253.701 38.86,283.619 34.602,321.968L17.067,321.968L17.067,304.901C21.777,304.901 25.6,301.078 25.6,296.368L25.6,270.768L34.133,270.768C38.843,270.768 42.666,266.945 42.666,262.235C42.666,257.525 38.843,253.702 34.133,253.702L29.713,253.702C41.259,241.167 76.578,228.102 128,228.102L442.342,228.102L486.4,242.788L486.4,253.702L477.867,253.702C473.157,253.702 469.334,257.525 469.334,262.235C469.334,266.945 473.157,270.768 477.867,270.768L486.4,270.768L486.4,296.368C486.4,301.078 490.223,304.901 494.933,304.901L494.933,321.968ZM273.067,156.626L273.067,211.043L146.961,211.043C178.594,178.411 220.305,160.38 273.067,156.626ZM290.133,155.9C308.386,155.653 327.799,156.873 348.544,159.74C358.818,161.549 367.846,164.118 375.97,167.309L375.552,211.042L290.133,211.042L290.133,155.9ZM392.951,175.672C407.773,184.76 418.816,196.758 428.398,211.034L392.618,211.034L392.951,175.672Z" style="fill-rule:nonzero;"/>
</svg>
