<?xml version="1.0" encoding="UTF-8" standalone="no"?><!-- Generator: Gravit.io --><svg xmlns="http://www.w3.org/2000/svg" xmlns:xlink="http://www.w3.org/1999/xlink" style="isolation:isolate" viewBox="0 0 30 30" width="30pt" height="30pt"><defs><clipPath id="_clipPath_rq02s2ce9iwVX3sbP6iVvY6CGVGagumX"><rect width="30" height="30"/></clipPath></defs><g clip-path="url(#_clipPath_rq02s2ce9iwVX3sbP6iVvY6CGVGagumX)"><clipPath id="_clipPath_Z03lY4Qa4NL40HQucN2SfpIn0s8EWJgK"><rect x="1" y="1" width="30" height="30" transform="matrix(1,0,0,1,0,0)" fill="rgb(255,255,255)"/></clipPath><g clip-path="url(#_clipPath_Z03lY4Qa4NL40HQucN2SfpIn0s8EWJgK)"><g><clipPath id="_clipPath_Un26ZMilMkSrNTsuYzr5IqsRqu1x0874"><rect x="1" y="1" width="30" height="30" transform="matrix(1,0,0,1,0,0)" fill="rgb(255,255,255)"/></clipPath><g clip-path="url(#_clipPath_Un26ZMilMkSrNTsuYzr5IqsRqu1x0874)"><g><g><g><rect x="21.801" y="15.959" width="2.9" height="8.701" transform="matrix(1,0,0,1,0,0)" fill="rgb(236,33,39)"/><g><path d=" M 24.262 15.959 C 24.262 18.771 24.262 21.59 24.262 24.402 C 24.262 24.49 24.262 24.572 24.262 24.66 C 24.408 24.513 24.555 24.367 24.701 24.221 C 23.735 24.221 22.767 24.221 21.801 24.221 C 21.947 24.367 22.094 24.513 22.24 24.66 C 22.24 21.848 22.24 19.029 22.24 16.217 C 22.24 16.129 22.24 16.047 22.24 15.959 C 22.094 16.106 21.947 16.252 21.801 16.398 C 22.767 16.398 23.735 16.398 24.701 16.398 C 25.269 16.398 25.269 15.519 24.701 15.519 C 23.735 15.519 22.767 15.519 21.801 15.519 C 21.561 15.519 21.362 15.719 21.362 15.959 C 21.362 18.771 21.362 21.59 21.362 24.402 C 21.362 24.49 21.362 24.572 21.362 24.66 C 21.362 24.9 21.561 25.1 21.801 25.1 C 22.767 25.1 23.735 25.1 24.701 25.1 C 24.941 25.1 25.14 24.9 25.14 24.66 C 25.14 21.848 25.14 19.029 25.14 16.217 C 25.14 16.129 25.14 16.047 25.14 15.959 C 25.14 15.39 24.262 15.39 24.262 15.959 Z " fill="rgb(0,0,0)"/></g></g><g><path d=" M 25.668 25.006 L 25.668 26.588 L 20.834 26.588 L 20.834 25.006 C 20.834 24.812 20.992 24.654 21.186 24.654 L 25.316 24.654 C 25.51 24.654 25.668 24.812 25.668 25.006 Z " fill="rgb(105,189,69)"/><g><path d=" M 25.229 25.006 C 25.229 25.533 25.229 26.061 25.229 26.588 C 25.375 26.441 25.521 26.295 25.668 26.148 C 24.057 26.148 22.445 26.148 20.834 26.148 C 20.981 26.295 21.127 26.441 21.273 26.588 C 21.273 26.072 21.273 25.563 21.273 25.047 C 21.273 24.953 21.233 25.094 21.191 25.094 C 21.244 25.094 21.297 25.094 21.356 25.094 C 21.602 25.094 21.842 25.094 22.088 25.094 C 22.797 25.094 23.506 25.094 24.215 25.094 C 24.49 25.094 24.76 25.094 25.035 25.094 C 25.106 25.094 25.182 25.094 25.252 25.094 C 25.381 25.094 25.24 25.1 25.229 25.006 C 25.252 25.246 25.41 25.445 25.668 25.445 C 25.89 25.445 26.131 25.246 26.108 25.006 C 26.061 24.543 25.744 24.215 25.263 24.215 C 25.029 24.215 24.795 24.215 24.555 24.215 C 23.746 24.215 22.937 24.215 22.135 24.215 C 21.578 24.215 20.652 24.057 20.436 24.754 C 20.342 25.047 20.394 25.41 20.394 25.709 C 20.394 26.002 20.394 26.295 20.394 26.588 C 20.394 26.828 20.594 27.027 20.834 27.027 C 22.445 27.027 24.057 27.027 25.668 27.027 C 25.908 27.027 26.108 26.828 26.108 26.588 C 26.108 26.061 26.108 25.533 26.108 25.006 C 26.108 24.438 25.229 24.438 25.229 25.006 Z " fill="rgb(0,0,0)"/></g></g><g><path d=" M 25.668 14.025 L 25.668 15.608 C 25.668 15.801 25.51 15.959 25.316 15.959 L 21.186 15.959 C 20.992 15.959 20.834 15.801 20.834 15.608 L 20.834 14.025 L 25.668 14.025 L 25.668 14.025 Z " fill="rgb(105,189,69)"/><g><path d=" M 25.229 14.025 C 25.229 14.354 25.229 14.688 25.229 15.015 C 25.229 15.191 25.229 15.367 25.229 15.543 C 25.229 15.625 25.205 15.602 25.252 15.543 C 25.281 15.508 25.346 15.519 25.287 15.519 C 24.608 15.519 23.928 15.519 23.248 15.519 C 22.568 15.519 21.888 15.519 21.209 15.519 C 21.156 15.519 21.203 15.508 21.244 15.543 C 21.291 15.578 21.267 15.637 21.267 15.543 C 21.267 15.367 21.267 15.191 21.267 15.015 C 21.267 14.688 21.267 14.354 21.267 14.025 C 21.121 14.172 20.975 14.318 20.828 14.465 C 22.439 14.465 24.051 14.465 25.662 14.465 C 26.231 14.465 26.231 13.586 25.662 13.586 C 24.051 13.586 22.439 13.586 20.828 13.586 C 20.588 13.586 20.388 13.785 20.388 14.025 C 20.388 14.377 20.388 14.723 20.388 15.074 C 20.388 15.49 20.318 16.041 20.758 16.281 C 21.015 16.422 21.279 16.398 21.561 16.398 C 21.965 16.398 22.369 16.398 22.779 16.398 C 23.582 16.398 24.385 16.398 25.187 16.398 C 25.686 16.398 26.049 16.129 26.102 15.608 C 26.137 15.267 26.102 14.904 26.102 14.559 C 26.102 14.383 26.102 14.201 26.102 14.025 C 26.108 13.457 25.229 13.457 25.229 14.025 Z " fill="rgb(0,0,0)"/></g></g><g><g><path d=" M 25.668 14.465 C 26.237 14.465 26.237 13.586 25.668 13.586 C 25.1 13.586 25.1 14.465 25.668 14.465 L 25.668 14.465 L 25.668 14.465 Z " fill="rgb(0,0,0)"/></g></g><g><rect x="7.299" y="15.959" width="2.9" height="8.701" transform="matrix(1,0,0,1,0,0)" fill="rgb(236,33,39)"/><g><path d=" M 9.76 15.959 C 9.76 18.771 9.76 21.59 9.76 24.402 C 9.76 24.49 9.76 24.572 9.76 24.66 C 9.906 24.513 10.053 24.367 10.199 24.221 C 9.233 24.221 8.265 24.221 7.299 24.221 C 7.445 24.367 7.592 24.513 7.738 24.66 C 7.738 21.848 7.738 19.029 7.738 16.217 C 7.738 16.129 7.738 16.047 7.738 15.959 C 7.592 16.106 7.445 16.252 7.299 16.398 C 8.265 16.398 9.233 16.398 10.199 16.398 C 10.767 16.398 10.767 15.519 10.199 15.519 C 9.233 15.519 8.265 15.519 7.299 15.519 C 7.059 15.519 6.86 15.719 6.86 15.959 C 6.86 18.771 6.86 21.59 6.86 24.402 C 6.86 24.49 6.86 24.572 6.86 24.66 C 6.86 24.9 7.059 25.1 7.299 25.1 C 8.265 25.1 9.233 25.1 10.199 25.1 C 10.439 25.1 10.638 24.9 10.638 24.66 C 10.638 21.848 10.638 19.029 10.638 16.217 C 10.638 16.129 10.638 16.047 10.638 15.959 C 10.638 15.39 9.76 15.39 9.76 15.959 Z " fill="rgb(0,0,0)"/></g></g><g><path d=" M 11.166 25.006 L 11.166 26.588 L 6.332 26.588 L 6.332 25.006 C 6.332 24.812 6.49 24.654 6.684 24.654 L 10.814 24.654 C 11.008 24.654 11.166 24.812 11.166 25.006 Z " fill="rgb(105,189,69)"/><g><path d=" M 10.727 25.006 C 10.727 25.533 10.727 26.061 10.727 26.588 C 10.873 26.441 11.019 26.295 11.166 26.148 C 9.555 26.148 7.943 26.148 6.332 26.148 C 6.479 26.295 6.625 26.441 6.771 26.588 C 6.771 26.072 6.771 25.563 6.771 25.047 C 6.771 24.953 6.731 25.094 6.689 25.094 C 6.742 25.094 6.795 25.094 6.854 25.094 C 7.1 25.094 7.34 25.094 7.586 25.094 C 8.295 25.094 9.004 25.094 9.713 25.094 C 9.988 25.094 10.258 25.094 10.533 25.094 C 10.604 25.094 10.68 25.094 10.75 25.094 C 10.885 25.094 10.738 25.1 10.727 25.006 C 10.75 25.246 10.908 25.445 11.166 25.445 C 11.388 25.445 11.629 25.246 11.606 25.006 C 11.559 24.543 11.242 24.215 10.762 24.215 C 10.527 24.215 10.293 24.215 10.053 24.215 C 9.244 24.215 8.436 24.215 7.633 24.215 C 7.076 24.215 6.15 24.057 5.934 24.754 C 5.84 25.047 5.892 25.41 5.892 25.709 C 5.892 26.002 5.892 26.295 5.892 26.588 C 5.892 26.828 6.092 27.027 6.332 27.027 C 7.943 27.027 9.555 27.027 11.166 27.027 C 11.406 27.027 11.606 26.828 11.606 26.588 C 11.606 26.061 11.606 25.533 11.606 25.006 C 11.606 24.438 10.727 24.438 10.727 25.006 Z " fill="rgb(0,0,0)"/></g></g><g><g><path d=" M 11.166 27.027 C 11.735 27.027 11.735 26.148 11.166 26.148 C 10.598 26.148 10.598 27.027 11.166 27.027 L 11.166 27.027 L 11.166 27.027 Z " fill="rgb(0,0,0)"/></g></g><g><path d=" M 11.166 14.025 L 11.166 15.608 C 11.166 15.801 11.008 15.959 10.814 15.959 L 6.684 15.959 C 6.49 15.959 6.332 15.801 6.332 15.608 L 6.332 14.025 L 11.166 14.025 L 11.166 14.025 Z " fill="rgb(105,189,69)"/><g><path d=" M 10.727 14.025 C 10.727 14.354 10.727 14.688 10.727 15.015 C 10.727 15.191 10.727 15.367 10.727 15.543 C 10.727 15.625 10.703 15.602 10.75 15.543 C 10.779 15.508 10.844 15.519 10.785 15.519 C 10.106 15.519 9.426 15.519 8.746 15.519 C 8.066 15.519 7.387 15.519 6.707 15.519 C 6.654 15.519 6.701 15.508 6.742 15.543 C 6.789 15.578 6.765 15.637 6.765 15.543 C 6.765 15.367 6.765 15.191 6.765 15.015 C 6.765 14.688 6.765 14.354 6.765 14.025 C 6.619 14.172 6.473 14.318 6.326 14.465 C 7.938 14.465 9.549 14.465 11.16 14.465 C 11.729 14.465 11.729 13.586 11.16 13.586 C 9.549 13.586 7.938 13.586 6.326 13.586 C 6.086 13.586 5.887 13.785 5.887 14.025 C 5.887 14.377 5.887 14.723 5.887 15.074 C 5.887 15.49 5.816 16.041 6.256 16.281 C 6.513 16.422 6.777 16.398 7.059 16.398 C 7.463 16.398 7.867 16.398 8.277 16.398 C 9.08 16.398 9.883 16.398 10.686 16.398 C 11.184 16.398 11.547 16.129 11.6 15.608 C 11.635 15.267 11.6 14.904 11.6 14.559 C 11.6 14.383 11.6 14.201 11.6 14.025 C 11.606 13.457 10.727 13.457 10.727 14.025 Z " fill="rgb(0,0,0)"/></g></g><g><path d=" M 27.115 26.939 L 27.115 28.521 L 4.885 28.521 L 4.885 26.939 C 4.885 26.746 5.043 26.588 5.237 26.588 L 26.769 26.588 C 26.963 26.588 27.115 26.746 27.115 26.939 Z " fill="rgb(68,32,0)"/><g><path d=" M 26.676 26.939 C 26.676 27.467 26.676 27.994 26.676 28.521 C 26.822 28.375 26.969 28.229 27.115 28.082 C 25.017 28.082 22.92 28.082 20.822 28.082 C 17.09 28.082 13.363 28.082 9.631 28.082 C 8.049 28.082 6.461 28.082 4.879 28.082 C 5.025 28.229 5.172 28.375 5.318 28.521 C 5.318 28.17 5.318 27.824 5.318 27.473 C 5.318 27.309 5.318 27.144 5.318 26.981 C 5.318 26.887 5.26 27.027 5.242 27.027 C 5.453 27.027 5.664 27.027 5.875 27.027 C 7.07 27.027 8.271 27.027 9.467 27.027 C 13.176 27.027 16.89 27.027 20.6 27.027 C 22.064 27.027 23.535 27.027 25 27.027 C 25.434 27.027 25.867 27.027 26.301 27.027 C 26.418 27.027 26.535 27.027 26.652 27.027 C 26.84 27.027 26.687 27.051 26.676 26.939 C 26.699 27.18 26.858 27.379 27.115 27.379 C 27.338 27.379 27.578 27.18 27.555 26.939 C 27.508 26.494 27.209 26.148 26.74 26.148 C 26.658 26.148 26.582 26.148 26.5 26.148 C 26.119 26.148 25.738 26.148 25.358 26.148 C 23.928 26.148 22.504 26.148 21.074 26.148 C 17.348 26.148 13.621 26.148 9.9 26.148 C 8.629 26.148 7.352 26.148 6.08 26.148 C 5.816 26.148 5.547 26.148 5.283 26.148 C 5.002 26.148 4.703 26.26 4.562 26.523 C 4.375 26.869 4.445 27.326 4.445 27.701 C 4.445 27.977 4.445 28.246 4.445 28.521 C 4.445 28.762 4.644 28.961 4.885 28.961 C 6.983 28.961 9.08 28.961 11.178 28.961 C 14.91 28.961 18.637 28.961 22.369 28.961 C 23.951 28.961 25.539 28.961 27.121 28.961 C 27.362 28.961 27.561 28.762 27.561 28.521 C 27.561 27.994 27.561 27.467 27.561 26.939 C 27.555 26.371 26.676 26.371 26.676 26.939 Z " fill="rgb(0,0,0)"/></g></g><g><g><path d=" M 27.602 10.158 L 24.701 10.158 L 16.205 4.023 C 16.082 3.936 15.918 3.936 15.795 4.023 L 7.299 10.158 L 4.398 10.158 L 15.789 1.615 C 15.912 1.521 16.082 1.521 16.211 1.615 L 27.602 10.158 L 27.602 10.158 Z " fill="rgb(79,40,6)"/><g><path d=" M 27.602 9.719 C 26.635 9.719 25.668 9.719 24.701 9.719 C 24.777 9.737 24.848 9.76 24.924 9.777 C 22.557 8.066 20.189 6.356 17.816 4.644 C 17.394 4.34 16.973 4.035 16.545 3.731 C 16.34 3.584 16.106 3.467 15.836 3.537 C 15.66 3.584 15.549 3.66 15.408 3.76 C 14.242 4.604 13.076 5.441 11.91 6.285 C 10.299 7.451 8.687 8.617 7.07 9.777 C 7.146 9.76 7.217 9.737 7.293 9.719 C 6.326 9.719 5.36 9.719 4.392 9.719 C 4.469 9.994 4.539 10.263 4.615 10.539 C 6.783 8.91 8.957 7.281 11.125 5.658 C 12.432 4.68 13.738 3.695 15.051 2.717 C 15.35 2.494 15.648 2.265 15.947 2.043 C 16.012 1.996 15.977 2.002 15.994 2.013 C 16.076 2.078 16.158 2.137 16.24 2.201 C 18.818 4.135 21.396 6.068 23.975 8.002 C 25.106 8.852 26.237 9.695 27.367 10.545 C 27.561 10.691 27.86 10.574 27.971 10.387 C 28.1 10.164 28.006 9.93 27.813 9.783 C 25.644 8.154 23.471 6.525 21.303 4.902 C 19.996 3.924 18.689 2.939 17.377 1.961 C 17.078 1.738 16.779 1.51 16.481 1.287 C 16.135 1.012 15.737 1.106 15.414 1.352 C 12.918 3.227 10.416 5.102 7.92 6.971 C 6.672 7.908 5.424 8.84 4.176 9.777 C 3.848 10.023 3.924 10.598 4.398 10.598 C 5.113 10.598 5.828 10.598 6.549 10.598 C 6.801 10.598 7.053 10.598 7.299 10.598 C 7.469 10.598 7.568 10.504 7.697 10.41 C 8.875 9.561 10.047 8.711 11.225 7.862 C 12.602 6.865 13.979 5.875 15.356 4.879 C 15.525 4.756 15.695 4.633 15.871 4.51 C 15.912 4.481 15.953 4.451 15.988 4.422 C 16.029 4.392 16 4.416 15.983 4.404 C 16.269 4.61 16.551 4.814 16.838 5.025 C 19.352 6.842 21.871 8.658 24.385 10.481 C 24.701 10.709 25.24 10.604 25.604 10.604 C 26.265 10.604 26.928 10.604 27.59 10.604 C 28.17 10.598 28.17 9.719 27.602 9.719 Z " fill="rgb(0,0,0)"/></g></g><g><g><path d=" M 16.211 2.055 C 16.779 2.055 16.779 1.176 16.211 1.176 C 15.642 1.176 15.642 2.055 16.211 2.055 L 16.211 2.055 L 16.211 2.055 Z " fill="rgb(0,0,0)"/></g></g></g><g><g><path d=" M 16.205 4.457 C 16.773 4.457 16.773 3.578 16.205 3.578 C 15.637 3.578 15.637 4.457 16.205 4.457 L 16.205 4.457 L 16.205 4.457 Z " fill="rgb(0,0,0)"/></g></g><g><g><path d=" M 27.602 12.531 C 28.17 12.531 28.17 11.652 27.602 11.652 C 27.033 11.652 27.033 12.531 27.602 12.531 L 27.602 12.531 L 27.602 12.531 Z " fill="rgb(0,0,0)"/></g></g><g><path d=" M 27.602 12.092 L 26.729 13.832 C 26.67 13.949 26.547 14.025 26.412 14.025 L 5.582 14.025 C 5.447 14.025 5.33 13.949 5.271 13.832 L 4.398 12.092 L 27.602 12.092 L 27.602 12.092 Z " fill="rgb(13,113,186)"/><g><path d=" M 27.221 11.869 C 26.934 12.449 26.64 13.029 26.354 13.61 C 26.371 13.58 26.453 13.586 26.394 13.586 C 26.365 13.586 26.33 13.586 26.301 13.586 C 26.178 13.586 26.055 13.586 25.932 13.586 C 24.777 13.586 23.623 13.586 22.463 13.586 C 18.76 13.586 15.063 13.586 11.36 13.586 C 9.906 13.586 8.459 13.586 7.006 13.586 C 6.619 13.586 6.233 13.586 5.846 13.586 C 5.769 13.586 5.688 13.586 5.612 13.586 C 5.553 13.586 5.64 13.586 5.652 13.61 C 5.6 13.498 5.541 13.387 5.488 13.281 C 5.254 12.813 5.019 12.344 4.785 11.875 C 4.656 12.098 4.533 12.314 4.404 12.537 C 6.443 12.537 8.483 12.537 10.521 12.537 C 14.277 12.537 18.039 12.537 21.795 12.537 C 23.729 12.537 25.668 12.537 27.602 12.537 C 28.17 12.537 28.17 11.658 27.602 11.658 C 25.563 11.658 23.523 11.658 21.485 11.658 C 17.729 11.658 13.967 11.658 10.211 11.658 C 8.277 11.658 6.338 11.658 4.404 11.658 C 4.053 11.658 3.877 12.027 4.023 12.32 C 4.311 12.9 4.604 13.481 4.89 14.061 C 5.102 14.488 5.541 14.471 5.934 14.471 C 7.012 14.471 8.096 14.471 9.174 14.471 C 12.854 14.471 16.539 14.471 20.219 14.471 C 21.725 14.471 23.231 14.471 24.742 14.471 C 25.176 14.471 25.604 14.471 26.037 14.471 C 26.394 14.471 26.711 14.494 27.004 14.213 C 27.104 14.113 27.162 13.967 27.221 13.844 C 27.32 13.644 27.42 13.439 27.519 13.24 C 27.672 12.936 27.824 12.625 27.983 12.32 C 28.235 11.805 27.473 11.36 27.221 11.869 Z " fill="rgb(0,0,0)"/></g></g><g><g><path d=" M 28.041 12.092 C 28.041 12.092 28.041 12.092 28.041 12.092 C 28.041 11.852 27.842 11.652 27.602 11.652 C 27.362 11.652 27.162 11.852 27.162 12.092 C 27.162 12.092 27.162 12.092 27.162 12.092 C 27.162 12.332 27.362 12.531 27.602 12.531 C 27.842 12.531 28.041 12.326 28.041 12.092 L 28.041 12.092 L 28.041 12.092 Z " fill="rgb(0,0,0)"/></g></g><g><g><path d=" M 4.709 11.781 C 4.709 11.781 4.709 11.781 4.709 11.781 C 4.539 11.612 4.258 11.612 4.088 11.781 C 3.918 11.951 3.918 12.233 4.088 12.402 C 4.088 12.402 4.088 12.402 4.088 12.402 C 4.258 12.572 4.539 12.572 4.709 12.402 C 4.879 12.233 4.879 11.945 4.709 11.781 L 4.709 11.781 L 4.709 11.781 Z " fill="rgb(0,0,0)"/></g></g><g><path d=" M 24.701 10.158 L 7.299 10.158 L 15.795 4.023 C 15.918 3.936 16.082 3.936 16.205 4.023 L 24.701 10.158 L 24.701 10.158 Z " fill="rgb(111,204,221)"/><g><path d=" M 24.701 9.719 C 22.246 9.719 19.797 9.719 17.342 9.719 C 14.166 9.719 10.99 9.719 7.82 9.719 C 7.65 9.719 7.475 9.719 7.305 9.719 C 7.381 9.994 7.451 10.263 7.527 10.539 C 9.894 8.828 12.262 7.117 14.635 5.406 C 15.057 5.102 15.479 4.797 15.906 4.492 C 15.941 4.469 15.977 4.439 16.012 4.416 C 16.047 4.392 15.988 4.398 16.006 4.41 C 16.1 4.481 16.193 4.545 16.293 4.615 C 17.541 5.517 18.789 6.414 20.037 7.316 C 21.525 8.388 23.013 9.467 24.496 10.539 C 24.689 10.68 24.983 10.574 25.1 10.381 C 25.229 10.158 25.135 9.918 24.941 9.777 C 22.574 8.066 20.207 6.356 17.834 4.644 C 17.412 4.34 16.99 4.035 16.563 3.731 C 16.358 3.584 16.123 3.467 15.854 3.537 C 15.678 3.584 15.566 3.66 15.426 3.76 C 14.26 4.604 13.094 5.441 11.928 6.285 C 10.316 7.451 8.705 8.617 7.088 9.777 C 6.748 10.023 6.842 10.598 7.311 10.598 C 9.765 10.598 12.215 10.598 14.67 10.598 C 17.846 10.598 21.021 10.598 24.191 10.598 C 24.362 10.598 24.537 10.598 24.707 10.598 C 25.269 10.598 25.269 9.719 24.701 9.719 Z " fill="rgb(0,0,0)"/></g></g><g><path d=" M 28.568 10.504 L 28.568 11.735 C 28.568 11.928 28.41 12.086 28.217 12.086 L 3.783 12.086 C 3.59 12.086 3.432 11.928 3.432 11.735 L 3.432 10.504 C 3.432 10.311 3.59 10.152 3.783 10.152 L 28.217 10.152 C 28.41 10.158 28.568 10.311 28.568 10.504 Z " fill="rgb(84,71,65)"/><g><path d=" M 28.129 10.504 C 28.129 10.867 28.129 11.225 28.129 11.588 C 28.129 11.635 28.129 11.687 28.129 11.735 C 28.129 11.693 28.17 11.646 28.217 11.646 C 28.199 11.646 28.188 11.646 28.17 11.646 C 27.936 11.646 27.695 11.646 27.461 11.646 C 26.301 11.646 25.135 11.646 23.975 11.646 C 20.295 11.646 16.61 11.646 12.93 11.646 C 10.094 11.646 7.252 11.646 4.416 11.646 C 4.211 11.646 4.006 11.646 3.807 11.646 C 3.748 11.646 3.871 11.676 3.877 11.735 C 3.86 11.588 3.877 11.436 3.877 11.289 C 3.877 11.078 3.877 10.867 3.877 10.65 C 3.877 10.604 3.877 10.551 3.877 10.504 C 3.877 10.545 3.83 10.592 3.789 10.592 C 4.387 10.592 4.985 10.592 5.588 10.592 C 8.887 10.592 12.18 10.592 15.479 10.592 C 18.918 10.592 22.358 10.592 25.797 10.592 C 26.394 10.592 26.992 10.592 27.59 10.592 C 27.748 10.592 27.906 10.592 28.07 10.592 C 28.112 10.592 28.146 10.592 28.188 10.592 C 28.269 10.598 28.135 10.586 28.129 10.504 C 28.152 10.744 28.311 10.943 28.568 10.943 C 28.791 10.943 29.031 10.744 29.008 10.504 C 28.961 10.059 28.668 9.713 28.193 9.713 C 28.123 9.713 28.053 9.713 27.983 9.713 C 27.642 9.713 27.303 9.713 26.957 9.713 C 25.644 9.713 24.338 9.713 23.025 9.713 C 19.281 9.713 15.543 9.713 11.799 9.713 C 9.221 9.713 6.642 9.713 4.064 9.713 C 3.672 9.713 3.297 9.737 3.074 10.146 C 2.892 10.481 2.987 11.037 2.987 11.4 C 2.987 11.535 2.981 11.67 2.992 11.811 C 3.033 12.238 3.367 12.49 3.777 12.531 C 4.322 12.584 4.902 12.531 5.447 12.531 C 8.711 12.531 11.969 12.531 15.233 12.531 C 18.701 12.531 22.17 12.531 25.638 12.531 C 26.4 12.531 27.162 12.531 27.924 12.531 C 28.106 12.531 28.287 12.543 28.463 12.49 C 28.943 12.344 29.002 11.881 29.002 11.459 C 29.002 11.142 29.002 10.826 29.002 10.51 C 29.008 9.941 28.129 9.941 28.129 10.504 Z " fill="rgb(0,0,0)"/></g></g><g><path d=" M 28.568 28.873 L 28.568 30.455 L 3.432 30.455 L 3.432 28.873 C 3.432 28.68 3.59 28.521 3.783 28.521 L 28.217 28.521 C 28.41 28.521 28.568 28.68 28.568 28.873 Z " fill="rgb(64,22,3)"/><g><path d=" M 28.129 28.873 C 28.129 29.4 28.129 29.928 28.129 30.455 C 28.275 30.309 28.422 30.162 28.568 30.015 C 26.646 30.015 24.725 30.015 22.803 30.015 C 19.041 30.015 15.285 30.015 11.523 30.015 C 8.939 30.015 6.356 30.015 3.771 30.015 C 3.66 30.015 3.549 30.015 3.437 30.015 C 3.584 30.162 3.731 30.309 3.877 30.455 C 3.877 30.104 3.877 29.758 3.877 29.406 C 3.877 29.242 3.877 29.078 3.877 28.914 C 3.877 28.82 3.824 28.961 3.795 28.961 C 3.983 28.961 4.17 28.961 4.358 28.961 C 5.447 28.961 6.537 28.961 7.627 28.961 C 11.271 28.961 14.916 28.961 18.561 28.961 C 21.502 28.961 24.449 28.961 27.39 28.961 C 27.596 28.961 27.801 28.961 28.006 28.961 C 28.059 28.961 28.112 28.961 28.17 28.961 C 28.275 28.961 28.135 28.961 28.129 28.873 C 28.152 29.113 28.311 29.313 28.568 29.313 C 28.791 29.313 29.031 29.113 29.008 28.873 C 28.961 28.428 28.668 28.082 28.193 28.082 C 28.123 28.082 28.053 28.082 27.983 28.082 C 27.642 28.082 27.303 28.082 26.957 28.082 C 25.644 28.082 24.338 28.082 23.025 28.082 C 19.281 28.082 15.543 28.082 11.799 28.082 C 9.221 28.082 6.642 28.082 4.064 28.082 C 3.742 28.082 3.496 28.088 3.221 28.311 C 2.91 28.568 2.992 29.102 2.992 29.459 C 2.992 29.787 2.992 30.121 2.992 30.449 C 2.992 30.689 3.191 30.888 3.432 30.888 C 5.354 30.888 7.275 30.888 9.197 30.888 C 12.959 30.888 16.715 30.888 20.477 30.888 C 23.061 30.888 25.644 30.888 28.229 30.888 C 28.34 30.888 28.451 30.888 28.562 30.888 C 28.803 30.888 29.002 30.689 29.002 30.449 C 29.002 29.922 29.002 29.394 29.002 28.867 C 29.008 28.305 28.129 28.305 28.129 28.873 Z " fill="rgb(0,0,0)"/></g></g></g></g></g></g></g></g></svg>