<?xml version="1.0" encoding="UTF-8" standalone="no"?>
<!DOCTYPE svg PUBLIC "-//W3C//DTD SVG 1.1//EN" "http://www.w3.org/Graphics/SVG/1.1/DTD/svg11.dtd">
<svg width="100%" height="100%" viewBox="0 0 200 120" version="1.1" xmlns="http://www.w3.org/2000/svg" xmlns:xlink="http://www.w3.org/1999/xlink" xml:space="preserve" xmlns:serif="http://www.serif.com/" style="fill-rule:evenodd;clip-rule:evenodd;stroke-linejoin:round;stroke-miterlimit:2;">
    <g id="J" transform="matrix(1,0,0,1,-94.8082,4.1496)">
        <text x="102.68px" y="64.4px" style="font-family:'SourceCodePro-Regular', 'Source Code Pro', monospace;font-size:38.889px;fill:white;">J</text>
    </g>
    <g id="E" transform="matrix(1,0,0,1,-86.7582,4.11071)">
        <text x="114.347px" y="64.4px" style="font-family:'SourceCodePro-Regular', 'Source Code Pro', monospace;font-size:38.889px;fill:white;">E</text>
    </g>
    <g id="G" transform="matrix(1,0,0,1,-62.386,4.57738)">
        <text x="114.347px" y="64.4px" style="font-family:'SourceCodePro-Regular', 'Source Code Pro', monospace;font-size:38.889px;fill:white;">G</text>
    </g>
    <g id="N" transform="matrix(1,0,0,1,-39.5138,4.11071)">
        <text x="114.347px" y="64.4px" style="font-family:'SourceCodePro-Regular', 'Source Code Pro', monospace;font-size:38.889px;fill:white;">N</text>
    </g>
    <g id="O" transform="matrix(1,0,0,1,-27.8582,4.57738)">
        <text x="126.014px" y="64.4px" style="font-family:'SourceCodePro-Regular', 'Source Code Pro', monospace;font-size:38.889px;fill:white;">O</text>
    </g>
    <g id="R" transform="matrix(1,0,0,1,-4.88044,4.11071)">
        <text x="126.014px" y="64.4px" style="font-family:'SourceCodePro-Regular', 'Source Code Pro', monospace;font-size:38.889px;fill:white;">R</text>
    </g>
    <g id="G1" serif:id="G" transform="matrix(1,0,0,1,31.614,4.57738)">
        <text x="114.347px" y="64.4px" style="font-family:'SourceCodePro-Regular', 'Source Code Pro', monospace;font-size:38.889px;fill:white;">G</text>
    </g>
    <g id="E1" serif:id="E" transform="matrix(1,0,0,1,53.2418,4.11071)">
        <text x="114.347px" y="64.4px" style="font-family:'SourceCodePro-Regular', 'Source Code Pro', monospace;font-size:38.889px;fill:white;">E</text>
    </g>
</svg>
