<svg xmlns="http://www.w3.org/2000/svg" xmlns:xlink="http://www.w3.org/1999/xlink" xmlns:lucid="lucid" width="1752.4" height="1167.35"><g transform="translate(-59 -59)" lucid:page-tab-id="YGcM5DNywbTK"><path d="M323 440h91.64" stroke="#666" stroke-width="5" fill="none"/><path d="M323.06 442.5h-2.56v-5h2.56z" fill="#666"/><path d="M431.4 440l-14.26 4.64v-9.28z" stroke="#666" stroke-width="5" fill="#666"/><path d="M1203 870.42h35c6.63 0 12-5.37 12-12V754.95c0-6.63 5.37-12 12-12h12.64" stroke="#666" stroke-width="5" fill="none"/><path d="M1203.06 872.92h-2.56v-5h2.56z" fill="#666"/><path d="M1291.4 742.95l-14.26 4.64v-9.28z" stroke="#666" stroke-width="5" fill="#666"/><path d="M802.5 880.1h72.14" stroke="#666" stroke-width="5" fill="none"/><path d="M802.56 882.6H800v-5h2.56z" fill="#666"/><path d="M891.4 880.1l-14.26 4.62v-9.27z" stroke="#666" stroke-width="5" fill="#666"/><path d="M240.34 303v51.64" stroke="#666" stroke-width="5" fill="none"/><path d="M242.84 303.06h-5v-2.56h5z" fill="#666"/><path d="M240.34 371.4l-4.64-14.26h9.27z" stroke="#666" stroke-width="5" fill="#666"/><path d="M520 377v-51.64" stroke="#666" stroke-width="5" fill="none"/><path d="M522.5 379.5h-5v-2.56h5z" fill="#666"/><path d="M520 308.6l4.64 14.26h-9.28z" stroke="#666" stroke-width="5" fill="#666"/><path d="M1088.65 685.16c-1.6 0-2.9-1.3-2.9-2.9 0-1.6 1.3-2.9 2.9-2.9 1.6 0 2.9 1.3 2.9 2.9 0 1.6-1.3 2.9-2.9 2.9m10.42-4.6c0-.33-.25-.58-.58-.58h-3.3c-.3-.8-.7-1.54-1.28-2.17l1.82-3.08c-1.15-1.04-2.5-1.85-4-2.3l-1.82 3.1c-.42-.1-.83-.13-1.27-.13-.44 0-.86.03-1.27.1l-1.82-3.08c-1.5.45-2.85 1.26-4 2.3l1.8 3.1c-.55.62-.97 1.35-1.26 2.16h-3.3c-.33 0-.58.25-.58.57v3.43c0 .3.25.57.6.57h3.28c.3.8.7 1.53 1.27 2.16l-1.8 3.1c1.14 1.05 2.5 1.86 4 2.3l1.8-3.08c.42.08.84.12 1.28.12.44 0 .85-.04 1.27-.12l1.82 3.1c1.5-.46 2.85-1.27 4-2.3l-1.82-3.1c.57-.64.98-1.37 1.28-2.17h3.3c.32 0 .57-.26.57-.57v-3.43z" stroke="#000" stroke-opacity="0" fill="#fff"/><g filter="url(#a)"><path d="M80 80h1710.4v80H80z" stroke="#666" fill="#d7e9ff"/><use xlink:href="#b" transform="matrix(1,0,0,1,92,92) translate(761.9668402777778 50.70434027777777)"/></g><path d="M80 160h1710.4v140H80z" stroke="#666" fill="#fff" filter="url(#c)"/><g filter="url(#d)"><path d="M80 160h1710.4v120H80z" stroke="#000" stroke-opacity="0" fill="#fff" fill-opacity="0"/><use xlink:href="#e" transform="matrix(1,0,0,1,85,165) translate(608.1716049382717 62.818055555555546)"/><use xlink:href="#f" transform="matrix(1,0,0,1,85,165) translate(728.9123456790123 62.818055555555546)"/><use xlink:href="#g" transform="matrix(1,0,0,1,85,165) translate(864.5913580246913 62.818055555555546)"/></g><path d="M160 380h160v120H160z" stroke="#666" fill="#d7e9ff" filter="url(#h)"/><g filter="url(#i)"><path d="M160 400h160v60H160z" stroke="#000" stroke-opacity="0" fill="#fff" fill-opacity="0"/><use xlink:href="#j" transform="matrix(1,0,0,1,165,405) translate(12.915625000000006 34.82760416666667)"/></g><path d="M440 380h160v120H440z" stroke="#666" fill="#d7e9ff" filter="url(#h)"/><g filter="url(#k)"><path d="M440 400h160v85.83H440z" stroke="#000" stroke-opacity="0" fill="#fff" fill-opacity="0"/><use xlink:href="#l" transform="matrix(1,0,0,1,445,405) translate(12.915625000000006 31.702604166666664)"/><use xlink:href="#m" transform="matrix(1,0,0,1,445,405) translate(43.15104166666667 68.01770833333333)"/></g><path d="M380 442.5v612.15M380 442.56V440" stroke="#666" stroke-width="5" fill="none"/><path d="M380 1071.4l-4.64-14.26h9.28z" stroke="#666" stroke-width="5" fill="#666"/><path d="M300 1080h160v120H300z" stroke="#666" fill="#999" filter="url(#h)"/><g filter="url(#n)"><path d="M300 1100h160v89.03H300z" stroke="#000" stroke-opacity="0" fill="#fff" fill-opacity="0"/><use xlink:href="#o" transform="matrix(1,0,0,1,305,1105) translate(17.056250000000006 31.702604166666664)"/><use xlink:href="#p" transform="matrix(1,0,0,1,305,1105) translate(94.06145833333333 31.702604166666664)"/><use xlink:href="#q" transform="matrix(1,0,0,1,305,1105) translate(14.321875000000006 71.21770833333333)"/></g><path d="M600 601.6h160v120H600z" stroke="#666" fill="#fff" filter="url(#h)"/><path d="M800 400h299.07v201.6H800z" stroke="#666" fill="#d7e9ff" filter="url(#r)"/><path d="M560.93 1080H800v120H560.93z" stroke="#666" fill="#999" filter="url(#s)"/><path d="M560.93 800H800v140H560.93z" stroke="#666" fill="#c7e8ac" filter="url(#t)"/><path d="M900 800h300v140H900z" stroke="#666" fill="#fff" filter="url(#u)"/><path d="M1300 400h400v540h-400z" stroke="#666" fill="#d7e9ff" filter="url(#v)"/><path d="M950 397v-71.64" stroke="#666" stroke-width="5" fill="none"/><path d="M952.5 399.5h-5v-2.56h5z" fill="#666"/><path d="M950 308.6l4.64 14.26h-9.28z" stroke="#666" stroke-width="5" fill="#666"/><g filter="url(#w)"><path d="M1300 680h400v228.55h-400z" stroke="#000" stroke-opacity="0" fill="#fff" fill-opacity="0"/><use xlink:href="#x" transform="matrix(1,0,0,1,1305,685) translate(189.4 30.75251736111111)"/><use xlink:href="#y" transform="matrix(1,0,0,1,1305,685) translate(41.284765625000034 69.05711805555556)"/><use xlink:href="#z" transform="matrix(1,0,0,1,1305,685) translate(105.33901909722225 69.05711805555556)"/><use xlink:href="#A" transform="matrix(1,0,0,1,1305,685) translate(154.9687934027778 69.05711805555556)"/><use xlink:href="#B" transform="matrix(1,0,0,1,1305,685) translate(257.61419270833335 69.05711805555556)"/><use xlink:href="#C" transform="matrix(1,0,0,1,1305,685) translate(323.1788628472222 69.05711805555556)"/><use xlink:href="#D" transform="matrix(1,0,0,1,1305,685) translate(27.652126736111097 104.16171875)"/><use xlink:href="#E" transform="matrix(1,0,0,1,1305,685) translate(119.74978298611111 104.16171875)"/><use xlink:href="#F" transform="matrix(1,0,0,1,1305,685) translate(184.9494357638889 104.16171875)"/><use xlink:href="#G" transform="matrix(1,0,0,1,1305,685) translate(218.04014756944446 104.16171875)"/><use xlink:href="#H" transform="matrix(1,0,0,1,1305,685) translate(240.30620659722223 104.16171875)"/><use xlink:href="#I" transform="matrix(1,0,0,1,1305,685) translate(60.23936631944444 139.26631944444443)"/><use xlink:href="#J" transform="matrix(1,0,0,1,1305,685) translate(110.19639756944444 139.26631944444443)"/><use xlink:href="#E" transform="matrix(1,0,0,1,1305,685) translate(176.78059895833331 139.26631944444443)"/><use xlink:href="#K" transform="matrix(1,0,0,1,1305,685) translate(241.98025173611111 139.26631944444443)"/><use xlink:href="#L" transform="matrix(1,0,0,1,1305,685) translate(283.06358506944446 139.26631944444443)"/><use xlink:href="#M" transform="matrix(1,0,0,1,1305,685) translate(14.32269965277781 174.3709201388889)"/><use xlink:href="#N" transform="matrix(1,0,0,1,1305,685) translate(119.27148437500003 174.3709201388889)"/><use xlink:href="#O" transform="matrix(1,0,0,1,1305,685) translate(146.94986979166669 174.3709201388889)"/><use xlink:href="#P" transform="matrix(1,0,0,1,1305,685) translate(183.9299045138889 174.3709201388889)"/><use xlink:href="#Q" transform="matrix(1,0,0,1,1305,685) translate(291.2575954861111 174.3709201388889)"/><use xlink:href="#R" transform="matrix(1,0,0,1,1305,685) translate(88.84288194444444 209.47552083333332)"/><use xlink:href="#S" transform="matrix(1,0,0,1,1305,685) translate(150.21614583333331 209.47552083333332)"/><use xlink:href="#T" transform="matrix(1,0,0,1,1305,685) translate(215.91927083333334 209.47552083333332)"/><use xlink:href="#U" transform="matrix(1,0,0,1,1305,685) translate(195 244.58012152777778)"/><use xlink:href="#V" transform="matrix(1,0,0,1,1305,685) translate(189.4 282.8847222222222)"/><use xlink:href="#W" transform="matrix(1,0,0,1,1305,685) translate(195 317.98932291666665)"/></g><g filter="url(#n)"><path d="M600 620h160v89.03H600z" stroke="#000" stroke-opacity="0" fill="#fff" fill-opacity="0"/><use xlink:href="#X" transform="matrix(1,0,0,1,605,625) translate(15.66953125000002 31.702604166666664)"/><use xlink:href="#p" transform="matrix(1,0,0,1,605,625) translate(95.44817708333333 31.702604166666664)"/><use xlink:href="#Y" transform="matrix(1,0,0,1,605,625) translate(47.88958333333334 71.21770833333333)"/></g><g filter="url(#Z)"><path d="M560.93 800H800v100H560.93z" stroke="#000" stroke-opacity="0" fill="#fff" fill-opacity="0"/><use xlink:href="#aa" transform="matrix(1,0,0,1,565.9251127820185,805) translate(54.27630208333334 31.702604166666664)"/><use xlink:href="#ab" transform="matrix(1,0,0,1,565.9251127820185,805) translate(22.082291666666677 71.21770833333333)"/><use xlink:href="#ac" transform="matrix(1,0,0,1,565.9251127820185,805) translate(118.4625 71.21770833333333)"/><use xlink:href="#ad" transform="matrix(1,0,0,1,565.9251127820185,805) translate(53.43645833333334 110.7328125)"/></g><g filter="url(#ae)"><path d="M580.93 1080H780v125.35H580.93z" stroke="#000" stroke-opacity="0" fill="#fff" fill-opacity="0"/><use xlink:href="#af" transform="matrix(1,0,0,1,585.9251127820185,1085) translate(34.27630208333334 49.82760416666666)"/><use xlink:href="#ag" transform="matrix(1,0,0,1,585.9251127820185,1085) translate(17.896093750000006 89.34270833333332)"/><use xlink:href="#ah" transform="matrix(1,0,0,1,585.9251127820185,1085) translate(85.72161458333333 89.34270833333332)"/></g><path d="M680 303v273.24" stroke="#666" stroke-width="5" fill="none"/><path d="M682.5 303.06h-5v-2.56h5z" fill="#666"/><path d="M680 593l-4.64-14.26h9.28z" stroke="#666" stroke-width="5" fill="#666"/><path d="M680.46 724.6v50.04" stroke="#666" stroke-width="5" fill="none"/><path d="M682.96 724.66h-5v-2.56h5z" fill="#666"/><path d="M680.46 791.4l-4.63-14.26h9.27z" stroke="#666" stroke-width="5" fill="#666"/><path d="M680.46 943v112.14" stroke="#666" stroke-width="5" fill="none"/><path d="M682.96 943.06h-5v-2.56h5z" fill="#666"/><path d="M680.46 1071.9l-4.63-14.26h9.27z" stroke="#666" stroke-width="5" fill="#666"/><g filter="url(#ai)"><path d="M820 400h258.22v43H820z" stroke="#000" stroke-opacity="0" fill="#fff" fill-opacity="0"/><use xlink:href="#aj" transform="matrix(1,0,0,1,825,405) translate(36.21119791666668 31.702604166666664)"/><use xlink:href="#ak" transform="matrix(1,0,0,1,825,405) translate(142.10963541666666 31.702604166666664)"/></g><g filter="url(#al)"><path d="M800 455.24h299.07v77.2H800z" stroke="#000" stroke-opacity="0" fill="#fff" fill-opacity="0"/><use xlink:href="#am" transform="matrix(1,0,0,1,805,460.23632812500006) translate(16.65925925925933 26.658333333333324)"/><use xlink:href="#an" transform="matrix(1,0,0,1,805,460.23632812500006) translate(177.9185185185185 26.658333333333324)"/><use xlink:href="#ao" transform="matrix(1,0,0,1,805,460.23632812500006) translate(213.39999999999998 26.658333333333324)"/><use xlink:href="#ap" transform="matrix(1,0,0,1,805,460.23632812500006) translate(93.96296296296299 58.65833333333332)"/><use xlink:href="#aq" transform="matrix(1,0,0,1,805,460.23632812500006) translate(153.14814814814815 58.65833333333332)"/></g><g filter="url(#ar)"><path d="M820 520h258.22v80H820z" stroke="#000" stroke-opacity="0" fill="#fff" fill-opacity="0"/><use xlink:href="#as" transform="matrix(1,0,0,1,825,525) translate(31.43255208333335 31.702604166666664)"/><use xlink:href="#at" transform="matrix(1,0,0,1,825,525) translate(99.66171875 31.702604166666664)"/><use xlink:href="#au" transform="matrix(1,0,0,1,825,525) translate(157.76067708333335 31.702604166666664)"/><use xlink:href="#av" transform="matrix(1,0,0,1,825,525) translate(84.46093750000001 68.01770833333333)"/></g><path d="M802.5 850H838c6.63 0 12-5.37 12-12V712c0-6.63 5.37-12 12-12h75.54c6.62 0 12-5.37 12-12v-61.04" stroke="#666" stroke-width="5" fill="none"/><path d="M802.56 852.5H800v-5h2.56z" fill="#666"/><path d="M949.54 610.2l4.63 14.26h-9.27z" stroke="#666" stroke-width="5" fill="#666"/><path d="M1500.47 397v-71.64" stroke="#666" stroke-width="5" fill="none"/><path d="M1502.97 399.5h-5v-2.56h5z" fill="#666"/><path d="M1500.47 308.6l4.64 14.26h-9.26z" stroke="#666" stroke-width="5" fill="#666"/><g filter="url(#aw)"><path d="M1339.07 400H1660v60h-320.93z" stroke="#000" stroke-opacity="0" fill="#fff" fill-opacity="0"/><use xlink:href="#ax" transform="matrix(1,0,0,1,1344.0748872179815,405) translate(59.76979166666666 34.89010416666667)"/><use xlink:href="#ay" transform="matrix(1,0,0,1,1344.0748872179815,405) translate(130.08229166666666 34.89010416666667)"/></g><g filter="url(#aw)"><path d="M1340 460h320.93v60H1340z" stroke="#000" stroke-opacity="0" fill="#fff" fill-opacity="0"/><use xlink:href="#az" transform="matrix(1,0,0,1,1345,465) translate(63.167505787037044 34.89010416666667)"/><use xlink:href="#aA" transform="matrix(1,0,0,1,1345,465) translate(125.70801504629631 34.89010416666667)"/></g><g filter="url(#aB)"><path d="M1320 611.46h360.93v60H1320z" stroke="#000" stroke-opacity="0" fill="#fff" fill-opacity="0"/><use xlink:href="#aC" transform="matrix(1,0,0,1,1325,616.4575520833333) translate(107.26979166666666 34.89010416666667)"/></g><g filter="url(#aD)"><path d="M1300.46 517.08h400v85.84h-400z" stroke="#000" stroke-opacity="0" fill="#fff" fill-opacity="0"/><use xlink:href="#aE" transform="matrix(1,0,0,1,1305.4625563910092,522.0848958333333) translate(1.65911458333332 48.32760416666666)"/><use xlink:href="#aF" transform="matrix(1,0,0,1,1305.4625563910092,522.0848958333333) translate(168.62526041666666 48.32760416666666)"/><use xlink:href="#aG" transform="matrix(1,0,0,1,1305.4625563910092,522.0848958333333) translate(208.07838541666666 48.32760416666666)"/><use xlink:href="#aH" transform="matrix(1,0,0,1,1305.4625563910092,522.0848958333333) translate(267.5705729166667 48.32760416666666)"/><use xlink:href="#aI" transform="matrix(1,0,0,1,1305.4625563910092,522.0848958333333) translate(331.06015625 48.32760416666666)"/></g><g filter="url(#aJ)"><path d="M922.27 800H1180v128.55H922.27z" stroke="#000" stroke-opacity="0" fill="#fff" fill-opacity="0"/><use xlink:href="#aK" transform="matrix(1,0,0,1,927.2685593267092,805) translate(81.37526041666668 31.929947916666666)"/><use xlink:href="#aL" transform="matrix(1,0,0,1,927.2685593267092,805) translate(47.28671875000002 71.44505208333334)"/><use xlink:href="#aM" transform="matrix(1,0,0,1,927.2685593267092,805) translate(-5.109114583333351 110.96015625000001)"/></g><path d="M462.5 1144.52H518c6.63 0 12-5.38 12-12v-456c0-6.63 5.37-12 12-12h33.14" stroke="#666" stroke-width="5" fill="none"/><path d="M462.56 1147.02H460v-5h2.56z" fill="#666"/><path d="M591.9 664.52l-14.26 4.63v-9.27z" stroke="#666" stroke-width="5" fill="#666"/><path d="M160 980h1540v60H160z" stroke="#666" fill="#ffeca9" filter="url(#aN)"/><g filter="url(#aO)"><path d="M240 980h600.93v64.6H240z" stroke="#000" stroke-opacity="0" fill="#fff" fill-opacity="0"/><use xlink:href="#aP" transform="matrix(1,0,0,1,245,985) translate(110.04814814814816 31.40833333333333)"/><use xlink:href="#aQ" transform="matrix(1,0,0,1,245,985) translate(175.23333333333335 31.40833333333333)"/><use xlink:href="#aR" transform="matrix(1,0,0,1,245,985) translate(252.1222222222222 31.40833333333333)"/><use xlink:href="#aS" transform="matrix(1,0,0,1,245,985) translate(366.12222222222215 31.40833333333333)"/></g><defs><path fill="#666" d="M1458 0c3-430-10-709 15-1145h-9L1087 0H803L451-1147h-9c31 483 15 690 19 1147H184v-1462h422L952-344h6l367-1118h422V0h-289" id="aT"/><path fill="#666" d="M836-686c0-141-77-236-213-236-140 0-206 98-215 236h428zm223 627C946-4 838 19 666 20 308 22 92-191 92-551c0-356 187-588 529-588 314 0 504 195 501 508v148H401c5 169 104 277 279 276 158-2 261-33 379-88v236" id="aU"/><path fill="#666" d="M795-1139c261-1 398 148 397 410V0H887v-653c-1-148-42-242-180-242-202 0-242 139-242 369V0H160v-1118h233l41 143h17c62-102 185-163 344-164" id="aV"/><path fill="#666" d="M0-1118h334l211 629c18 55 30 119 37 194h6c7-69 23-133 43-194l207-629h327L692 143C611 389 392 544 70 475V233c95 21 196 18 262-37 50-42 89-123 112-204" id="aW"/><g id="b"><use transform="matrix(0.02170138888888888,0,0,0.02170138888888888,0,0)" xlink:href="#aT"/><use transform="matrix(0.02170138888888888,0,0,0.02170138888888888,41.90538194444443,0)" xlink:href="#aU"/><use transform="matrix(0.02170138888888888,0,0,0.02170138888888888,68.16406249999997,0)" xlink:href="#aV"/><use transform="matrix(0.02170138888888888,0,0,0.02170138888888888,97.37413194444441,0)" xlink:href="#aV"/><use transform="matrix(0.02170138888888888,0,0,0.02170138888888888,126.58420138888883,0)" xlink:href="#aW"/></g><filter id="a" filterUnits="objectBoundingBox" x="-.01" y="-.05" width="1.01" height="1.25"><feOffset result="offOut" in="SourceAlpha" dy="6"/><feGaussianBlur result="blurOut" in="offOut" stdDeviation="5"/><feColorMatrix result="colorOut" in="blurOut" values="0 0 0 0 0 0 0 0 0 0 0 0 0 0 0 0 0 0 0.16862745098039217 0"/><feBlend in="SourceGraphic" in2="colorOut"/></filter><filter id="c" filterUnits="objectBoundingBox" x="-.01" y="-.03" width="1.01" height="1.14"><feOffset result="offOut" in="SourceAlpha" dy="6"/><feGaussianBlur result="blurOut" in="offOut" stdDeviation="5"/><feColorMatrix result="colorOut" in="blurOut" values="0 0 0 0 0 0 0 0 0 0 0 0 0 0 0 0 0 0 0.16862745098039217 0"/><feBlend in="SourceGraphic" in2="colorOut"/></filter><path fill="#666" d="M199 0l-22-63H83L61 0H9l90-248h61L250 0h-51zm-33-102l-36-108c-10 38-24 72-36 108h72" id="aX"/><path fill="#666" d="M115-3C79 11 28 4 28-45v-112H4v-33h27l15-45h31v45h36v33H77v99c-1 23 16 31 38 25v30" id="aY"/><path fill="#666" d="M123 10C108 53 80 86 19 72V37c35 8 53-11 59-39L3-190h52l48 148c12-52 28-100 44-148h51" id="aZ"/><path fill="#666" d="M133-34C117-15 103 5 69 4 32 3 11-16 11-54c-1-60 55-63 116-61 1-26-3-47-28-47-18 1-26 9-28 27l-52-2c7-38 36-58 82-57s74 22 75 68l1 82c-1 14 12 18 25 15v27c-30 8-71 5-69-32zm-48 3c29 0 43-24 42-57-32 0-66-3-65 30 0 17 8 27 23 27" id="ba"/><g id="e"><use transform="matrix(0.12345679012345674,0,0,0.12345679012345674,0,0)" xlink:href="#aX"/><use transform="matrix(0.12345679012345674,0,0,0.12345679012345674,31.975308641975296,0)" xlink:href="#aY"/><use transform="matrix(0.12345679012345674,0,0,0.12345679012345674,46.66666666666665,0)" xlink:href="#aZ"/><use transform="matrix(0.12345679012345674,0,0,0.12345679012345674,71.358024691358,0)" xlink:href="#ba"/></g><path fill="#666" d="M176-78C186 10 51 31 16-35c-5-9-9-19-11-32l52-8c4 21 12 37 35 38 23 0 32-16 32-40v-130H75v-41h101v170" id="bb"/><path fill="#666" d="M185-48c-13 30-37 53-82 52C43 2 14-33 14-96s30-98 90-98c62 0 83 45 84 108H66c0 31 8 55 39 56 18 0 30-7 34-22zm-45-69c5-46-57-63-70-21-2 6-4 13-4 21h74zm-67-91v-5l45-51h45v8l-60 48H73" id="bc"/><path fill="#666" d="M12 0v-35l95-120H19v-35h142v35L67-36h103V0H12" id="bd"/><path fill="#666" d="M85 4C-2 5 27-109 22-190h50c7 57-23 150 33 157 60-5 35-97 40-157h50l1 190h-47c-2-12 1-28-3-38-12 25-28 42-61 42" id="be"/><path fill="#666" d="M137-138c1-29-70-34-71-4 15 46 118 7 119 86 1 83-164 76-172 9l43-7c4 19 20 25 44 25 33 8 57-30 24-41C81-84 22-81 20-136c-2-80 154-74 161-7" id="bf"/><g id="f"><use transform="matrix(0.12345679012345674,0,0,0.12345679012345674,0,0)" xlink:href="#bb"/><use transform="matrix(0.12345679012345674,0,0,0.12345679012345674,24.691358024691347,0)" xlink:href="#bc"/><use transform="matrix(0.12345679012345674,0,0,0.12345679012345674,49.382716049382694,0)" xlink:href="#bd"/><use transform="matrix(0.12345679012345674,0,0,0.12345679012345674,71.60493827160491,0)" xlink:href="#be"/><use transform="matrix(0.12345679012345674,0,0,0.12345679012345674,98.64197530864193,0)" xlink:href="#bf"/></g><path fill="#666" d="M169-182c-1-43-94-46-97-3 18 66 151 10 154 114 3 95-165 93-204 36-6-8-10-19-12-30l50-8c3 46 112 56 116 5-17-69-150-10-154-114-4-87 153-88 188-35 5 8 8 18 10 28" id="bg"/><path fill="#666" d="M185-48c-13 30-37 53-82 52C43 2 14-33 14-96s30-98 90-98c62 0 83 45 84 108H66c0 31 8 55 39 56 18 0 30-7 34-22zm-45-69c5-46-57-63-70-21-2 6-4 13-4 21h74" id="bh"/><path fill="#666" d="M135-194c87-1 58 113 63 194h-50c-7-57 23-157-34-157-59 0-34 97-39 157H25l-1-190h47c2 12-1 28 3 38 12-26 28-41 61-42" id="bi"/><path fill="#666" d="M25 0v-261h50V0H25" id="bj"/><path fill="#666" d="M147 0L96-86 75-71V0H25v-261h50v150l67-79h53l-66 74L201 0h-54" id="bk"/><g id="g"><use transform="matrix(0.12345679012345674,0,0,0.12345679012345674,0,0)" xlink:href="#bg"/><use transform="matrix(0.12345679012345674,0,0,0.12345679012345674,29.62962962962962,0)" xlink:href="#bd"/><use transform="matrix(0.12345679012345674,0,0,0.12345679012345674,51.85185185185183,0)" xlink:href="#bh"/><use transform="matrix(0.12345679012345674,0,0,0.12345679012345674,76.54320987654319,0)" xlink:href="#bi"/><use transform="matrix(0.12345679012345674,0,0,0.12345679012345674,103.58024691358021,0)" xlink:href="#aY"/><use transform="matrix(0.12345679012345674,0,0,0.12345679012345674,118.27160493827157,0)" xlink:href="#bj"/><use transform="matrix(0.12345679012345674,0,0,0.12345679012345674,130.61728395061724,0)" xlink:href="#bc"/><use transform="matrix(0.12345679012345674,0,0,0.12345679012345674,155.30864197530857,0)" xlink:href="#bj"/><use transform="matrix(0.12345679012345674,0,0,0.12345679012345674,167.65432098765424,0)" xlink:href="#bh"/><use transform="matrix(0.12345679012345674,0,0,0.12345679012345674,192.34567901234558,0)" xlink:href="#bk"/></g><filter id="d" filterUnits="objectBoundingBox" x="-.01" y="-.03" width="1.01" height="1.17"><feOffset result="offOut" in="SourceAlpha" dy="6"/><feGaussianBlur result="blurOut" in="offOut" stdDeviation="5"/><feColorMatrix result="colorOut" in="blurOut" values="0 0 0 0 0 0 0 0 0 0 0 0 0 0 0 0 0 0 0.16862745098039217 0"/><feBlend in="SourceGraphic" in2="colorOut"/></filter><filter id="h" filterUnits="objectBoundingBox" x="-.06" y="-.03" width="1.13" height="1.17"><feOffset result="offOut" in="SourceAlpha" dy="6"/><feGaussianBlur result="blurOut" in="offOut" stdDeviation="5"/><feColorMatrix result="colorOut" in="blurOut" values="0 0 0 0 0 0 0 0 0 0 0 0 0 0 0 0 0 0 0.16862745098039217 0"/><feBlend in="SourceGraphic" in2="colorOut"/></filter><path d="M1120 0L938-465H352L172 0H0l578-1468h143L1296 0h-176zM885-618c-81-228-168-420-238-664-57 230-159 449-235 664h473" id="bl"/><path d="M694-1116c270 0 399 125 398 401V0H926v-709c-1-177-76-266-252-266-250 0-332 133-332 400V0H176v-1096h135l27 150h8c62-101 190-170 348-170" id="bm"/><path d="M125-741c0-247 161-377 414-375 57 0 109 7 155 20h379v105l-203 24c37 48 72 129 72 219 0 255-227 390-504 345-71 37-106 84-106 141 0 78 66 88 164 88h194c219-1 369 87 369 293 0 121-49 213-146 277s-239 96-426 96c-250 0-448-83-448-306C39 36 147-58 283-86c-52-23-102-79-99-152 4-104 57-143 133-192-107-42-192-164-192-311zM438-25c-143-1-242 70-239 209s131 181 290 181c139 0 242-21 309-63s101-98 101-169c0-147-88-158-262-158H438zm94-970c-158 0-243 88-243 250 0 153 93 233 246 233 162 0 243-79 243-236 0-165-82-247-246-247" id="bn"/><path d="M526-162c88-293 120-356 326-934h178L559 152c-47 123-102 209-163 262-93 80-237 94-380 61V342c184 39 305-9 367-180L444 6 2-1096h178c103 283 263 645 338 934h8" id="bo"/><path d="M588-1114c260 0 384 106 385 366V0H850l-33-156h-8C708-34 639 17 442 20 231 23 94-94 94-303c0-221 177-337 531-348l186-6c11-203-40-320-233-320-91 0-195 28-310 84l-51-127c97-53 229-94 371-94zM268-301c-1 123 81 184 207 184 203 0 334-120 332-323v-99c-257 14-539-7-539 238" id="bp"/><path d="M342 0H176v-1556h166V0" id="bq"/><path d="M621-1116c316 0 501 239 501 567 0 339-180 575-508 569S119-212 115-549c-4-339 178-567 506-567zm-5 141c-239 0-329 168-329 426 0 255 93 430 331 430s332-174 332-430-95-426-334-426" id="br"/><path d="M340-561c134-179 332-366 485-535h197L578-629 1053 0H852L465-518 340-410V0H176v-1556h164c-4 336 9 669-8 995h8" id="bs"/><g id="j"><use transform="matrix(0.013020833333333332,0,0,0.013020833333333332,0,0)" xlink:href="#bl"/><use transform="matrix(0.013020833333333332,0,0,0.013020833333333332,16.875,0)" xlink:href="#bm"/><use transform="matrix(0.013020833333333332,0,0,0.013020833333333332,33.2421875,0)" xlink:href="#bn"/><use transform="matrix(0.013020833333333332,0,0,0.013020833333333332,47.8515625,0)" xlink:href="#bo"/><use transform="matrix(0.013020833333333332,0,0,0.013020833333333332,61.28906249999999,0)" xlink:href="#bp"/><use transform="matrix(0.013020833333333332,0,0,0.013020833333333332,76.11979166666667,0)" xlink:href="#bq"/><use transform="matrix(0.013020833333333332,0,0,0.013020833333333332,82.86458333333334,0)" xlink:href="#br"/><use transform="matrix(0.013020833333333332,0,0,0.013020833333333332,98.97135416666667,0)" xlink:href="#bs"/></g><filter id="i" filterUnits="objectBoundingBox" x="-.06" y="-.07" width="1.13" height="1.33"><feOffset result="offOut" in="SourceAlpha" dy="6"/><feGaussianBlur result="blurOut" in="offOut" stdDeviation="5"/><feColorMatrix result="colorOut" in="blurOut" values="0 0 0 0 0 0 0 0 0 0 0 0 0 0 0 0 0 0 0.16862745098039217 0"/><feBlend in="SourceGraphic" in2="colorOut"/></filter><g id="l"><use transform="matrix(0.013020833333333332,0,0,0.013020833333333332,0,0)" xlink:href="#bl"/><use transform="matrix(0.013020833333333332,0,0,0.013020833333333332,16.875,0)" xlink:href="#bm"/><use transform="matrix(0.013020833333333332,0,0,0.013020833333333332,33.2421875,0)" xlink:href="#bn"/><use transform="matrix(0.013020833333333332,0,0,0.013020833333333332,47.8515625,0)" xlink:href="#bo"/><use transform="matrix(0.013020833333333332,0,0,0.013020833333333332,61.28906249999999,0)" xlink:href="#bp"/><use transform="matrix(0.013020833333333332,0,0,0.013020833333333332,76.11979166666667,0)" xlink:href="#bq"/><use transform="matrix(0.013020833333333332,0,0,0.013020833333333332,82.86458333333334,0)" xlink:href="#br"/><use transform="matrix(0.013020833333333332,0,0,0.013020833333333332,98.97135416666667,0)" xlink:href="#bs"/></g><path d="M559-1483c258 0 441 142 440 389 0 93-26 184-78 275-109 192-433 475-612 657v8h752V0H100v-143c177-182 479-462 617-641 67-87 110-168 112-303 2-158-106-258-268-254-165 4-240 52-354 139l-88-113c135-112 281-168 440-168" id="bt"/><path d="M731-1462L186 0H20l545-1462h166" id="bu"/><path d="M557-1483c261-2 449 121 449 365 0 202-125 312-301 348v8c212 25 346 130 346 348 0 303-232 437-557 434C328 19 210-2 94-59v-158c108 55 257 96 406 96 253 0 379-99 379-297 0-177-139-266-418-266H317v-143h146c207 3 370-92 371-285 1-150-117-233-273-229-171 4-249 44-375 122l-84-112c109-87 268-150 455-152" id="bv"/><path d="M84-473v-152h491v152H84" id="bw"/><g id="m"><use transform="matrix(0.013020833333333332,0,0,0.013020833333333332,0,0)" xlink:href="#bt"/><use transform="matrix(0.013020833333333332,0,0,0.013020833333333332,15.247395833333332,0)" xlink:href="#bu"/><use transform="matrix(0.013020833333333332,0,0,0.013020833333333332,25.0390625,0)" xlink:href="#bv"/><use transform="matrix(0.013020833333333332,0,0,0.013020833333333332,40.28645833333333,0)" xlink:href="#bw"/><use transform="matrix(0.013020833333333332,0,0,0.013020833333333332,48.86718749999999,0)" xlink:href="#bp"/></g><filter id="k" filterUnits="objectBoundingBox" x="-.06" y="-.05" width="1.13" height="1.23"><feOffset result="offOut" in="SourceAlpha" dy="6"/><feGaussianBlur result="blurOut" in="offOut" stdDeviation="5"/><feColorMatrix result="colorOut" in="blurOut" values="0 0 0 0 0 0 0 0 0 0 0 0 0 0 0 0 0 0 0.16862745098039217 0"/><feBlend in="SourceGraphic" in2="colorOut"/></filter><path d="M584-1331c-162 0-287 69-287 219 0 118 43 164 123 214 44 28 112 56 203 89 153 55 259 113 317 176s86 144 86 244c-1 276-228 409-520 409-173 0-307-22-400-67v-164c109 46 257 81 406 82 199 1 342-68 342-244 0-120-47-164-132-214-47-28-121-58-218-93-136-49-234-106-292-173s-87-154-87-261c-1-239 209-369 463-369 145 0 279 27 401 80l-53 148c-121-51-238-76-352-76" id="bx"/><path d="M588-1114c260 0 384 106 385 366V0H850l-33-156h-8C708-34 639 17 442 20 231 23 94-94 94-303c0-221 177-337 531-348l186-6c11-203-40-320-233-320-91 0-195 28-310 84l-51-127c97-53 229-94 371-94zM268-301c-1 123 81 184 207 184 203 0 334-120 332-323v-99c-257 14-539-7-539 238zm561-1247c-53 81-206 247-282 307H436v-25c58-73 149-217 191-303h202v21" id="by"/><path d="M354-322c-2 123 60 204 176 205 51 1 114-10 150-20v127C647 7 557 20 506 20 294 20 188-92 188-315v-652H31v-80l157-69 70-234h96v254h318v129H354v645" id="bz"/><g id="o"><use transform="matrix(0.013020833333333332,0,0,0.013020833333333332,0,0)" xlink:href="#bx"/><use transform="matrix(0.013020833333333332,0,0,0.013020833333333332,14.635416666666666,0)" xlink:href="#by"/><use transform="matrix(0.013020833333333332,0,0,0.013020833333333332,29.466145833333332,0)" xlink:href="#bz"/><use transform="matrix(0.013020833333333332,0,0,0.013020833333333332,38.88020833333333,0)" xlink:href="#by"/><use transform="matrix(0.013020833333333332,0,0,0.013020833333333332,53.71093749999999,0)" xlink:href="#bm"/></g><path d="M995-51C878-2 799 19 639 20c-329 2-524-221-524-559 0-326 172-577 481-577 278 0 451 210 446 493v105H287c4 242 121 392 358 393 118 0 235-25 350-74v148zM864-653c2-195-85-324-270-324-190 0-288 139-303 324h573zm0-895c-53 81-206 247-282 307H471v-25c58-73 149-217 191-303h202v21" id="bA"/><path d="M502-977c-130 0-238 32-238 139 0 75 39 101 95 134 33 19 97 46 192 81 130 48 217 95 263 143s69 108 69 181C883-73 695 20 449 20 304 20 190-3 109-49v-154c91 47 216 86 344 86 149 0 270-36 270-168 0-43-21-76-55-109-56-55-367-158-434-208-74-55-128-109-128-225 0-327 490-342 754-217l-59 135c-110-45-210-68-299-68" id="bB"/><g id="p"><use transform="matrix(0.013020833333333332,0,0,0.013020833333333332,0,0)" xlink:href="#bA"/><use transform="matrix(0.013020833333333332,0,0,0.013020833333333332,14.960937499999998,0)" xlink:href="#bB"/></g><path d="M115-545c0-330 146-571 454-571 149 0 263 54 342 162h13c-20-185-8-401-11-602h166V0H944l-22-147h-9C836-36 722 20 569 20c-309 0-454-234-454-565zm172 2c0 249 78 424 303 424 257 0 327-150 323-426-4-282-68-432-325-432-220 0-301 191-301 434" id="bC"/><path d="M1368-1116c259 2 372 131 371 401V0h-166v-713c0-168-66-262-230-262-221 0-303 131-303 363V0H874v-713c-1-169-66-262-231-262-235 0-301 142-301 400V0H176v-1096h135l27 150h8c56-99 174-170 324-170 171 0 283 62 336 186h8c60-108 189-187 354-186" id="bD"/><path d="M342 0H176v-1096h166V0zm-82-1282c-61 0-98-43-98-111 0-69 36-110 98-110 59 0 98 43 98 110s-39 111-98 111" id="bE"/><g id="q"><use transform="matrix(0.013020833333333332,0,0,0.013020833333333332,0,0)" xlink:href="#bC"/><use transform="matrix(0.013020833333333332,0,0,0.013020833333333332,16.341145833333332,0)" xlink:href="#bA"/><use transform="matrix(0.013020833333333332,0,0,0.013020833333333332,31.302083333333332,0)" xlink:href="#bD"/><use transform="matrix(0.013020833333333332,0,0,0.013020833333333332,56.10677083333333,0)" xlink:href="#br"/><use transform="matrix(0.013020833333333332,0,0,0.013020833333333332,72.21354166666666,0)" xlink:href="#bm"/><use transform="matrix(0.013020833333333332,0,0,0.013020833333333332,88.58072916666666,0)" xlink:href="#bp"/><use transform="matrix(0.013020833333333332,0,0,0.013020833333333332,103.41145833333333,0)" xlink:href="#bE"/></g><filter id="n" filterUnits="objectBoundingBox" x="-.06" y="-.04" width="1.13" height="1.22"><feOffset result="offOut" in="SourceAlpha" dy="6"/><feGaussianBlur result="blurOut" in="offOut" stdDeviation="5"/><feColorMatrix result="colorOut" in="blurOut" values="0 0 0 0 0 0 0 0 0 0 0 0 0 0 0 0 0 0 0.16862745098039217 0"/><feBlend in="SourceGraphic" in2="colorOut"/></filter><filter id="r" filterUnits="objectBoundingBox" x="-.03" y="-.02" width="1.07" height="1.1"><feOffset result="offOut" in="SourceAlpha" dy="6"/><feGaussianBlur result="blurOut" in="offOut" stdDeviation="5"/><feColorMatrix result="colorOut" in="blurOut" values="0 0 0 0 0 0 0 0 0 0 0 0 0 0 0 0 0 0 0.16862745098039217 0"/><feBlend in="SourceGraphic" in2="colorOut"/></filter><filter id="s" filterUnits="objectBoundingBox" x="-.04" y="-.03" width="1.08" height="1.17"><feOffset result="offOut" in="SourceAlpha" dy="6"/><feGaussianBlur result="blurOut" in="offOut" stdDeviation="5"/><feColorMatrix result="colorOut" in="blurOut" values="0 0 0 0 0 0 0 0 0 0 0 0 0 0 0 0 0 0 0.16862745098039217 0"/><feBlend in="SourceGraphic" in2="colorOut"/></filter><filter id="t" filterUnits="objectBoundingBox" x="-.04" y="-.03" width="1.08" height="1.14"><feOffset result="offOut" in="SourceAlpha" dy="6"/><feGaussianBlur result="blurOut" in="offOut" stdDeviation="5"/><feColorMatrix result="colorOut" in="blurOut" values="0 0 0 0 0 0 0 0 0 0 0 0 0 0 0 0 0 0 0.16862745098039217 0"/><feBlend in="SourceGraphic" in2="colorOut"/></filter><filter id="u" filterUnits="objectBoundingBox" x="-.03" y="-.03" width="1.07" height="1.14"><feOffset result="offOut" in="SourceAlpha" dy="6"/><feGaussianBlur result="blurOut" in="offOut" stdDeviation="5"/><feColorMatrix result="colorOut" in="blurOut" values="0 0 0 0 0 0 0 0 0 0 0 0 0 0 0 0 0 0 0.16862745098039217 0"/><feBlend in="SourceGraphic" in2="colorOut"/></filter><filter id="v" filterUnits="objectBoundingBox" x="-.03" y="-.01" width="1.05" height="1.04"><feOffset result="offOut" in="SourceAlpha" dy="6"/><feGaussianBlur result="blurOut" in="offOut" stdDeviation="5"/><feColorMatrix result="colorOut" in="blurOut" values="0 0 0 0 0 0 0 0 0 0 0 0 0 0 0 0 0 0 0.16862745098039217 0"/><feBlend in="SourceGraphic" in2="colorOut"/></filter><path d="M848 0L352-1296h-8c27 395 8 875 14 1296H201v-1462h256L920-256h8l467-1206h254V0h-170c6-439-13-873 14-1294h-8L985 0H848" id="bF"/><path d="M995-51C878-2 799 19 639 20c-329 2-524-221-524-559 0-326 172-577 481-577 278 0 451 210 446 493v105H287c4 242 121 392 358 393 118 0 235-25 350-74v148zM864-653c2-195-85-324-270-324-190 0-288 139-303 324h573" id="bG"/><path d="M340-893c80-153 237-262 467-211l-23 154c-45-10-85-15-120-15-184-3-322 182-322 377V0H176v-1096h137l19 203h8" id="bH"/><g id="y"><use transform="matrix(0.012586805555555556,0,0,0.012586805555555556,0,0)" xlink:href="#bF"/><use transform="matrix(0.012586805555555556,0,0,0.012586805555555556,23.27300347222222,0)" xlink:href="#bG"/><use transform="matrix(0.012586805555555556,0,0,0.012586805555555556,37.73524305555556,0)" xlink:href="#bH"/><use transform="matrix(0.012586805555555556,0,0,0.012586805555555556,48.2578125,0)" xlink:href="#bz"/></g><path d="M563 20c-271 0-399-123-399-399v-717h168v711c1 177 76 266 252 266 250 0 331-135 331-401v-576h166V0H944l-24-147h-9C848-44 724 20 563 20zm336-1568c-53 81-206 247-282 307H506v-25c58-73 149-217 191-303h202v21" id="bI"/><g id="z"><use transform="matrix(0.012586805555555556,0,0,0.012586805555555556,0,0)" xlink:href="#bI"/><use transform="matrix(0.012586805555555556,0,0,0.012586805555555556,15.821614583333334,0)" xlink:href="#bn"/><use transform="matrix(0.012586805555555556,0,0,0.012586805555555556,29.944010416666668,0)" xlink:href="#bo"/></g><path d="M877 0H82v-113l598-854H119v-129h743v129L272-129h605V0" id="bJ"/><g id="A"><use transform="matrix(0.012586805555555556,0,0,0.012586805555555556,0,0)" xlink:href="#bB"/><use transform="matrix(0.012586805555555556,0,0,0.012586805555555556,12.297309027777779,0)" xlink:href="#bJ"/><use transform="matrix(0.012586805555555556,0,0,0.012586805555555556,24.35546875,0)" xlink:href="#bG"/><use transform="matrix(0.012586805555555556,0,0,0.012586805555555556,38.817708333333336,0)" xlink:href="#bH"/><use transform="matrix(0.012586805555555556,0,0,0.012586805555555556,48.82421875,0)" xlink:href="#bG"/><use transform="matrix(0.012586805555555556,0,0,0.012586805555555556,63.286458333333336,0)" xlink:href="#bz"/><use transform="matrix(0.012586805555555556,0,0,0.012586805555555556,72.38671875,0)" xlink:href="#bz"/><use transform="matrix(0.012586805555555556,0,0,0.012586805555555556,81.48697916666667,0)" xlink:href="#bG"/></g><path d="M201 0v-1462h170V0H201" id="bK"/><g id="B"><use transform="matrix(0.012586805555555556,0,0,0.012586805555555556,0,0)" xlink:href="#bK"/><use transform="matrix(0.012586805555555556,0,0,0.012586805555555556,7.187065972222222,0)" xlink:href="#bB"/><use transform="matrix(0.012586805555555556,0,0,0.012586805555555556,19.484375,0)" xlink:href="#bz"/><use transform="matrix(0.012586805555555556,0,0,0.012586805555555556,28.58463541666666,0)" xlink:href="#bG"/><use transform="matrix(0.012586805555555556,0,0,0.012586805555555556,43.046875,0)" xlink:href="#bm"/></g><use transform="matrix(0.012586805555555556,0,0,0.012586805555555556,0,0)" xlink:href="#bp" id="C"/><path d="M516-150c94-315 146-423 332-946h178L610 0H416L0-1096h178c98 281 253 670 330 946h8" id="bL"/><path d="M63 264c30-115 88-378 105-502h182l15 23C327-69 250 132 188 264H63" id="bM"/><g id="D"><use transform="matrix(0.012586805555555556,0,0,0.012586805555555556,0,0)" xlink:href="#bL"/><use transform="matrix(0.012586805555555556,0,0,0.012586805555555556,12.9140625,0)" xlink:href="#bE"/><use transform="matrix(0.012586805555555556,0,0,0.012586805555555556,19.43402777777778,0)" xlink:href="#bq"/><use transform="matrix(0.012586805555555556,0,0,0.012586805555555556,25.953993055555557,0)" xlink:href="#by"/><use transform="matrix(0.012586805555555556,0,0,0.012586805555555556,40.290364583333336,0)" xlink:href="#bn"/><use transform="matrix(0.012586805555555556,0,0,0.012586805555555556,54.41276041666667,0)" xlink:href="#br"/><use transform="matrix(0.012586805555555556,0,0,0.012586805555555556,69.9826388888889,0)" xlink:href="#bz"/><use transform="matrix(0.012586805555555556,0,0,0.012586805555555556,79.08289930555557,0)" xlink:href="#bM"/></g><path d="M690-1114c271 2 402 123 402 399V0H926v-709c-1-177-76-266-252-266-251 0-332 135-332 402V0H176v-1556h166c-4 200 8 426-8 612h10c61-100 187-171 346-170" id="bN"/><g id="E"><use transform="matrix(0.012586805555555556,0,0,0.012586805555555556,0,0)" xlink:href="#bN"/><use transform="matrix(0.012586805555555556,0,0,0.012586805555555556,15.821614583333334,0)" xlink:href="#br"/><use transform="matrix(0.012586805555555556,0,0,0.012586805555555556,31.391493055555557,0)" xlink:href="#bn"/><use transform="matrix(0.012586805555555556,0,0,0.012586805555555556,45.51388888888889,0)" xlink:href="#bo"/></g><g id="F"><use transform="matrix(0.012586805555555556,0,0,0.012586805555555556,0,0)" xlink:href="#bp"/><use transform="matrix(0.012586805555555556,0,0,0.012586805555555556,14.336371527777779,0)" xlink:href="#bJ"/></g><path d="M621-1116c316 0 501 239 501 567 0 339-180 575-508 569S119-212 115-549c-4-339 178-567 506-567zm-5 141c-239 0-329 168-329 426 0 255 93 430 331 430s332-174 332-430-95-426-334-426zm68-573c-43 77-199 254-266 307h-97v-25c47-62 143-224 177-303h186v21zm356 0c-43 77-199 254-266 307h-96v-25c56-75 138-218 176-303h186v21" id="bO"/><use transform="matrix(0.012586805555555556,0,0,0.012586805555555556,0,0)" xlink:href="#bO" id="G"/><path d="M563 20c-271 0-399-123-399-399v-717h168v711c1 177 76 266 252 266 250 0 331-135 331-401v-576h166V0H944l-24-147h-9C848-44 724 20 563 20zM432-1294c-54 0-90-38-90-99 0-63 35-98 90-98 56 0 93 34 93 98 0 61-38 99-93 99zm381 0c-54 0-90-38-90-99 0-63 35-98 90-98s92 35 92 98c0 61-38 99-92 99" id="bP"/><path d="M621-1116c316 0 501 239 501 567 0 339-180 575-508 569S119-212 115-549c-4-339 178-567 506-567zm-5 141c-239 0-329 168-329 426 0 255 93 430 331 430s332-174 332-430-95-426-334-426zm-190-319c-54 0-90-38-90-99 0-63 35-98 90-98 56 0 93 34 93 98 0 61-38 99-93 99zm381 0c-54 0-90-38-90-99 0-63 35-98 90-98s92 35 92 98c0 61-38 99-92 99" id="bQ"/><g id="H"><use transform="matrix(0.012586805555555556,0,0,0.012586805555555556,0,0)" xlink:href="#bG"/><use transform="matrix(0.012586805555555556,0,0,0.012586805555555556,14.462239583333334,0)" xlink:href="#bn"/><use transform="matrix(0.012586805555555556,0,0,0.012586805555555556,28.584635416666668,0)" xlink:href="#bo"/><use transform="matrix(0.012586805555555556,0,0,0.012586805555555556,41.57421875,0)" xlink:href="#bB"/><use transform="matrix(0.012586805555555556,0,0,0.012586805555555556,53.87152777777778,0)" xlink:href="#bJ"/><use transform="matrix(0.012586805555555556,0,0,0.012586805555555556,65.9296875,0)" xlink:href="#bP"/><use transform="matrix(0.012586805555555556,0,0,0.012586805555555556,81.75130208333333,0)" xlink:href="#bq"/><use transform="matrix(0.012586805555555556,0,0,0.012586805555555556,88.2712673611111,0)" xlink:href="#bQ"/><use transform="matrix(0.012586805555555556,0,0,0.012586805555555556,103.84114583333334,0)" xlink:href="#bz"/><use transform="matrix(0.012586805555555556,0,0,0.012586805555555556,112.94140625,0)" xlink:href="#bz"/></g><path d="M371 0H201v-1462h815v151H371v535h606v151H371V0" id="bR"/><g id="I"><use transform="matrix(0.012586805555555556,0,0,0.012586805555555556,0,0)" xlink:href="#bR"/><use transform="matrix(0.012586805555555556,0,0,0.012586805555555556,13.304253472222223,0)" xlink:href="#bE"/><use transform="matrix(0.012586805555555556,0,0,0.012586805555555556,19.82421875,0)" xlink:href="#by"/><use transform="matrix(0.012586805555555556,0,0,0.012586805555555556,34.16059027777778,0)" xlink:href="#bz"/></g><g id="J"><use transform="matrix(0.012586805555555556,0,0,0.012586805555555556,0,0)" xlink:href="#bp"/><use transform="matrix(0.012586805555555556,0,0,0.012586805555555556,14.336371527777779,0)" xlink:href="#bC"/><use transform="matrix(0.012586805555555556,0,0,0.012586805555555556,30.1328125,0)" xlink:href="#bz"/><use transform="matrix(0.012586805555555556,0,0,0.012586805555555556,39.233072916666664,0)" xlink:href="#bp"/><use transform="matrix(0.012586805555555556,0,0,0.012586805555555556,53.56944444444444,0)" xlink:href="#bM"/></g><g id="K"><use transform="matrix(0.012586805555555556,0,0,0.012586805555555556,0,0)" xlink:href="#bp"/><use transform="matrix(0.012586805555555556,0,0,0.012586805555555556,14.336371527777779,0)" xlink:href="#bs"/><use transform="matrix(0.012586805555555556,0,0,0.012586805555555556,27.8671875,0)" xlink:href="#bE"/></g><g id="L"><use transform="matrix(0.012586805555555556,0,0,0.012586805555555556,0,0)" xlink:href="#bN"/><use transform="matrix(0.012586805555555556,0,0,0.012586805555555556,15.821614583333334,0)" xlink:href="#bE"/><use transform="matrix(0.012586805555555556,0,0,0.012586805555555556,22.34157986111111,0)" xlink:href="#bB"/><use transform="matrix(0.012586805555555556,0,0,0.012586805555555556,34.638888888888886,0)" xlink:href="#bJ"/></g><path d="M686 20c-159 0-273-61-344-161h-12L295 0H176v-1556h166c-2 198 6 423-8 606h8c77-109 192-164 344-164 310 0 455 234 455 565 0 329-147 569-455 569zm283-571c0-257-72-424-307-424-256 0-320 146-320 426s68 430 324 430c228 0 303-184 303-432" id="bS"/><g id="M"><use transform="matrix(0.012586805555555556,0,0,0.012586805555555556,0,0)" xlink:href="#bO"/><use transform="matrix(0.012586805555555556,0,0,0.012586805555555556,15.569878472222223,0)" xlink:href="#bS"/><use transform="matrix(0.012586805555555556,0,0,0.012586805555555556,31.366319444444446,0)" xlink:href="#bG"/><use transform="matrix(0.012586805555555556,0,0,0.012586805555555556,45.82855902777778,0)" xlink:href="#bm"/><use transform="matrix(0.012586805555555556,0,0,0.012586805555555556,61.650173611111114,0)" xlink:href="#bm"/><use transform="matrix(0.012586805555555556,0,0,0.012586805555555556,77.47178819444444,0)" xlink:href="#bG"/><use transform="matrix(0.012586805555555556,0,0,0.012586805555555556,91.93402777777777,0)" xlink:href="#bM"/></g><g id="N"><use transform="matrix(0.012586805555555556,0,0,0.012586805555555556,0,0)" xlink:href="#bG"/><use transform="matrix(0.012586805555555556,0,0,0.012586805555555556,14.462239583333334,0)" xlink:href="#bq"/></g><g id="O"><use transform="matrix(0.012586805555555556,0,0,0.012586805555555556,0,0)" xlink:href="#bm"/><use transform="matrix(0.012586805555555556,0,0,0.012586805555555556,15.821614583333334,0)" xlink:href="#bG"/></g><g id="P"><use transform="matrix(0.012586805555555556,0,0,0.012586805555555556,0,0)" xlink:href="#bL"/><use transform="matrix(0.012586805555555556,0,0,0.012586805555555556,12.9140625,0)" xlink:href="#bG"/><use transform="matrix(0.012586805555555556,0,0,0.012586805555555556,27.376302083333336,0)" xlink:href="#bB"/><use transform="matrix(0.012586805555555556,0,0,0.012586805555555556,39.673611111111114,0)" xlink:href="#bB"/><use transform="matrix(0.012586805555555556,0,0,0.012586805555555556,51.97092013888889,0)" xlink:href="#bJ"/><use transform="matrix(0.012586805555555556,0,0,0.012586805555555556,64.02907986111111,0)" xlink:href="#bG"/><use transform="matrix(0.012586805555555556,0,0,0.012586805555555556,78.49131944444444,0)" xlink:href="#bm"/><use transform="matrix(0.012586805555555556,0,0,0.012586805555555556,94.31293402777777,0)" xlink:href="#bM"/></g><g id="Q"><use transform="matrix(0.012586805555555556,0,0,0.012586805555555556,0,0)" xlink:href="#bN"/><use transform="matrix(0.012586805555555556,0,0,0.012586805555555556,15.821614583333334,0)" xlink:href="#bp"/><use transform="matrix(0.012586805555555556,0,0,0.012586805555555556,30.15798611111111,0)" xlink:href="#bm"/><use transform="matrix(0.012586805555555556,0,0,0.012586805555555556,45.97960069444445,0)" xlink:href="#bG"/><use transform="matrix(0.012586805555555556,0,0,0.012586805555555556,60.44184027777779,0)" xlink:href="#bD"/></g><g id="R"><use transform="matrix(0.012586805555555556,0,0,0.012586805555555556,0,0)" xlink:href="#bQ"/><use transform="matrix(0.012586805555555556,0,0,0.012586805555555556,15.569878472222223,0)" xlink:href="#bH"/><use transform="matrix(0.012586805555555556,0,0,0.012586805555555556,25.57638888888889,0)" xlink:href="#bQ"/><use transform="matrix(0.012586805555555556,0,0,0.012586805555555556,41.146267361111114,0)" xlink:href="#bs"/></g><g id="S"><use transform="matrix(0.012586805555555556,0,0,0.012586805555555556,0,0)" xlink:href="#bA"/><use transform="matrix(0.012586805555555556,0,0,0.012586805555555556,14.462239583333334,0)" xlink:href="#bq"/><use transform="matrix(0.012586805555555556,0,0,0.012586805555555556,20.98220486111111,0)" xlink:href="#bG"/><use transform="matrix(0.012586805555555556,0,0,0.012586805555555556,35.44444444444444,0)" xlink:href="#bz"/><use transform="matrix(0.012586805555555556,0,0,0.012586805555555556,44.54470486111111,0)" xlink:href="#bG"/></g><path d="M270 29c-76 0-118-48-118-135 0-84 38-135 118-136 81 0 123 51 123 136 0 82-44 135-123 135" id="bT"/><g id="T"><use transform="matrix(0.012586805555555556,0,0,0.012586805555555556,0,0)" xlink:href="#bq"/><use transform="matrix(0.012586805555555556,0,0,0.012586805555555556,6.519965277777778,0)" xlink:href="#bG"/><use transform="matrix(0.012586805555555556,0,0,0.012586805555555556,20.98220486111111,0)" xlink:href="#bn"/><use transform="matrix(0.012586805555555556,0,0,0.012586805555555556,35.10460069444444,0)" xlink:href="#bo"/><use transform="matrix(0.012586805555555556,0,0,0.012586805555555556,48.09418402777778,0)" xlink:href="#bG"/><use transform="matrix(0.012586805555555556,0,0,0.012586805555555556,62.556423611111114,0)" xlink:href="#bm"/><use transform="matrix(0.012586805555555556,0,0,0.012586805555555556,78.37803819444444,0)" xlink:href="#bT"/></g><filter id="w" filterUnits="objectBoundingBox" x="-.03" y="-.02" width="1.05" height="1.09"><feOffset result="offOut" in="SourceAlpha" dy="6"/><feGaussianBlur result="blurOut" in="offOut" stdDeviation="5"/><feColorMatrix result="colorOut" in="blurOut" values="0 0 0 0 0 0 0 0 0 0 0 0 0 0 0 0 0 0 0.16862745098039217 0"/><feBlend in="SourceGraphic" in2="colorOut"/></filter><path d="M1120 0L938-465H352L172 0H0l578-1468h143L1296 0h-176zM885-618c-81-228-168-420-238-664-57 230-159 449-235 664h473zm34-1268c-53 81-206 247-282 307H526v-25c58-73 149-217 191-303h202v21" id="bU"/><g id="X"><use transform="matrix(0.013020833333333332,0,0,0.013020833333333332,0,0)" xlink:href="#bU"/><use transform="matrix(0.013020833333333332,0,0,0.013020833333333332,16.875,0)" xlink:href="#bC"/><use transform="matrix(0.013020833333333332,0,0,0.013020833333333332,33.21614583333333,0)" xlink:href="#by"/><use transform="matrix(0.013020833333333332,0,0,0.013020833333333332,48.04687499999999,0)" xlink:href="#bD"/></g><path d="M1016 0H201v-1462h815v151H371v471h606v150H371v538h645V0zM849-1886c-53 81-206 247-282 307H456v-25c58-73 149-217 191-303h202v21" id="bV"/><g id="Y"><use transform="matrix(0.013020833333333332,0,0,0.013020833333333332,0,0)" xlink:href="#bV"/><use transform="matrix(0.013020833333333332,0,0,0.013020833333333332,14.830729166666666,0)" xlink:href="#bL"/><use transform="matrix(0.013020833333333332,0,0,0.013020833333333332,28.190104166666664,0)" xlink:href="#bp"/></g><path d="M1016 0H201v-1462h815v151H371v471h606v150H371v538h645V0" id="bW"/><g id="aa"><use transform="matrix(0.013020833333333332,0,0,0.013020833333333332,0,0)" xlink:href="#bW"/><use transform="matrix(0.013020833333333332,0,0,0.013020833333333332,14.830729166666666,0)" xlink:href="#bD"/><use transform="matrix(0.013020833333333332,0,0,0.013020833333333332,39.635416666666664,0)" xlink:href="#bS"/><use transform="matrix(0.013020833333333332,0,0,0.013020833333333332,55.97656249999999,0)" xlink:href="#bG"/><use transform="matrix(0.013020833333333332,0,0,0.013020833333333332,70.9375,0)" xlink:href="#bH"/><use transform="matrix(0.013020833333333332,0,0,0.013020833333333332,81.2890625,0)" xlink:href="#bG"/><use transform="matrix(0.013020833333333332,0,0,0.013020833333333332,96.25,0)" xlink:href="#bs"/></g><g id="ab"><use transform="matrix(0.013020833333333332,0,0,0.013020833333333332,0,0)" xlink:href="#bx"/><use transform="matrix(0.013020833333333332,0,0,0.013020833333333332,14.635416666666666,0)" xlink:href="#bJ"/><use transform="matrix(0.013020833333333332,0,0,0.013020833333333332,27.109374999999996,0)" xlink:href="#bp"/><use transform="matrix(0.013020833333333332,0,0,0.013020833333333332,41.940104166666664,0)" xlink:href="#bS"/><use transform="matrix(0.013020833333333332,0,0,0.013020833333333332,58.28124999999999,0)" xlink:href="#bp"/><use transform="matrix(0.013020833333333332,0,0,0.013020833333333332,73.11197916666667,0)" xlink:href="#bC"/></g><g id="ac"><use transform="matrix(0.013020833333333332,0,0,0.013020833333333332,0,0)" xlink:href="#bp"/><use transform="matrix(0.013020833333333332,0,0,0.013020833333333332,14.830729166666666,0)" xlink:href="#bs"/><use transform="matrix(0.013020833333333332,0,0,0.013020833333333332,28.828124999999996,0)" xlink:href="#bp"/><use transform="matrix(0.013020833333333332,0,0,0.013020833333333332,43.658854166666664,0)" xlink:href="#bH"/><use transform="matrix(0.013020833333333332,0,0,0.013020833333333332,54.010416666666664,0)" xlink:href="#bp"/><use transform="matrix(0.013020833333333332,0,0,0.013020833333333332,68.84114583333333,0)" xlink:href="#bz"/></g><g id="ad"><use transform="matrix(0.013020833333333332,0,0,0.013020833333333332,0,0)" xlink:href="#bL"/><use transform="matrix(0.013020833333333332,0,0,0.013020833333333332,13.359374999999998,0)" xlink:href="#by"/><use transform="matrix(0.013020833333333332,0,0,0.013020833333333332,28.190104166666664,0)" xlink:href="#bq"/><use transform="matrix(0.013020833333333332,0,0,0.013020833333333332,34.93489583333333,0)" xlink:href="#bp"/><use transform="matrix(0.013020833333333332,0,0,0.013020833333333332,49.76562499999999,0)" xlink:href="#bB"/><use transform="matrix(0.013020833333333332,0,0,0.013020833333333332,62.486979166666664,0)" xlink:href="#bJ"/><use transform="matrix(0.013020833333333332,0,0,0.013020833333333332,74.96093749999999,0)" xlink:href="#bz"/><use transform="matrix(0.013020833333333332,0,0,0.013020833333333332,84.37499999999999,0)" xlink:href="#by"/><use transform="matrix(0.013020833333333332,0,0,0.013020833333333332,99.20572916666666,0)" xlink:href="#bB"/></g><filter id="Z" filterUnits="objectBoundingBox" x="-.04" y="-.04" width="1.08" height="1.2"><feOffset result="offOut" in="SourceAlpha" dy="6"/><feGaussianBlur result="blurOut" in="offOut" stdDeviation="5"/><feColorMatrix result="colorOut" in="blurOut" values="0 0 0 0 0 0 0 0 0 0 0 0 0 0 0 0 0 0 0.16862745098039217 0"/><feBlend in="SourceGraphic" in2="colorOut"/></filter><g id="af"><use transform="matrix(0.013020833333333332,0,0,0.013020833333333332,0,0)" xlink:href="#bW"/><use transform="matrix(0.013020833333333332,0,0,0.013020833333333332,14.830729166666666,0)" xlink:href="#bD"/><use transform="matrix(0.013020833333333332,0,0,0.013020833333333332,39.635416666666664,0)" xlink:href="#bS"/><use transform="matrix(0.013020833333333332,0,0,0.013020833333333332,55.97656249999999,0)" xlink:href="#bG"/><use transform="matrix(0.013020833333333332,0,0,0.013020833333333332,70.9375,0)" xlink:href="#bH"/><use transform="matrix(0.013020833333333332,0,0,0.013020833333333332,81.2890625,0)" xlink:href="#bG"/><use transform="matrix(0.013020833333333332,0,0,0.013020833333333332,96.25,0)" xlink:href="#bs"/></g><g id="ag"><use transform="matrix(0.013020833333333332,0,0,0.013020833333333332,0,0)" xlink:href="#bK"/><use transform="matrix(0.013020833333333332,0,0,0.013020833333333332,7.434895833333333,0)" xlink:href="#bB"/><use transform="matrix(0.013020833333333332,0,0,0.013020833333333332,20.15625,0)" xlink:href="#bz"/><use transform="matrix(0.013020833333333332,0,0,0.013020833333333332,29.570312499999996,0)" xlink:href="#bG"/><use transform="matrix(0.013020833333333332,0,0,0.013020833333333332,44.53125,0)" xlink:href="#bm"/></g><g id="ah"><use transform="matrix(0.013020833333333332,0,0,0.013020833333333332,0,0)" xlink:href="#bm"/><use transform="matrix(0.013020833333333332,0,0,0.013020833333333332,16.3671875,0)" xlink:href="#bA"/><use transform="matrix(0.013020833333333332,0,0,0.013020833333333332,31.328124999999996,0)" xlink:href="#bq"/><use transform="matrix(0.013020833333333332,0,0,0.013020833333333332,38.072916666666664,0)" xlink:href="#bs"/><use transform="matrix(0.013020833333333332,0,0,0.013020833333333332,52.0703125,0)" xlink:href="#bP"/><use transform="matrix(0.013020833333333332,0,0,0.013020833333333332,68.4375,0)" xlink:href="#bq"/></g><filter id="ae" filterUnits="objectBoundingBox" x="-.05" y="-.03" width="1.1" height="1.16"><feOffset result="offOut" in="SourceAlpha" dy="6"/><feGaussianBlur result="blurOut" in="offOut" stdDeviation="5"/><feColorMatrix result="colorOut" in="blurOut" values="0 0 0 0 0 0 0 0 0 0 0 0 0 0 0 0 0 0 0.16862745098039217 0"/><feBlend in="SourceGraphic" in2="colorOut"/></filter><g id="aj"><use transform="matrix(0.013020833333333332,0,0,0.013020833333333332,0,0)" xlink:href="#bK"/><use transform="matrix(0.013020833333333332,0,0,0.013020833333333332,7.434895833333333,0)" xlink:href="#bB"/><use transform="matrix(0.013020833333333332,0,0,0.013020833333333332,20.15625,0)" xlink:href="#bz"/><use transform="matrix(0.013020833333333332,0,0,0.013020833333333332,29.570312499999996,0)" xlink:href="#bG"/><use transform="matrix(0.013020833333333332,0,0,0.013020833333333332,44.53125,0)" xlink:href="#bm"/><use transform="matrix(0.013020833333333332,0,0,0.013020833333333332,60.89843749999999,0)" xlink:href="#bm"/><use transform="matrix(0.013020833333333332,0,0,0.013020833333333332,77.265625,0)" xlink:href="#bG"/><use transform="matrix(0.013020833333333332,0,0,0.013020833333333332,92.2265625,0)" xlink:href="#bq"/></g><path d="M25 352c109-1 151-60 151-172v-1276h166V168c0 216-100 324-299 324-63 0-115-8-154-25V332c46 13 91 20 136 20zm235-1634c-61 0-98-43-98-111 0-69 36-110 98-110 59 0 98 43 98 110s-39 111-98 111" id="bX"/><g id="ak"><use transform="matrix(0.013020833333333332,0,0,0.013020833333333332,0,0)" xlink:href="#bX"/><use transform="matrix(0.013020833333333332,0,0,0.013020833333333332,6.744791666666666,0)" xlink:href="#by"/><use transform="matrix(0.013020833333333332,0,0,0.013020833333333332,21.575520833333332,0)" xlink:href="#bH"/><use transform="matrix(0.013020833333333332,0,0,0.013020833333333332,31.927083333333332,0)" xlink:href="#by"/><use transform="matrix(0.013020833333333332,0,0,0.013020833333333332,46.75781249999999,0)" xlink:href="#bB"/></g><filter id="ai" filterUnits="objectBoundingBox" x="-.04" y="-.09" width="1.08" height="1.47"><feOffset result="offOut" in="SourceAlpha" dy="6"/><feGaussianBlur result="blurOut" in="offOut" stdDeviation="5"/><feColorMatrix result="colorOut" in="blurOut" values="0 0 0 0 0 0 0 0 0 0 0 0 0 0 0 0 0 0 0.16862745098039217 0"/><feBlend in="SourceGraphic" in2="colorOut"/></filter><path d="M194 0L95-120 63-95V0H30v-248h33v124l119-124h40L117-140 236 0h-42" id="bY"/><path d="M100-194c63 0 86 42 84 106H49c0 40 14 67 53 68 26 1 43-12 49-29l28 8c-11 28-37 45-77 45C44 4 14-33 15-96c1-61 26-98 85-98zm52 81c6-60-76-77-97-28-3 7-6 17-6 28h103" id="bZ"/><path d="M177-190C167-65 218 103 67 71c-23-6-38-20-44-43l32-5c15 47 100 32 89-28v-30C133-14 115 1 83 1 29 1 15-40 15-95c0-56 16-97 71-98 29-1 48 16 59 35 1-10 0-23 2-32h30zM94-22c36 0 50-32 50-73 0-42-14-75-50-75-39 0-46 34-46 75s6 73 46 73" id="ca"/><path d="M179-190L93 31C79 59 56 82 12 73V49c39 6 53-20 64-50L1-190h34L92-34l54-156h33" id="cb"/><path d="M24 0v-261h32V0H24" id="cc"/><path d="M210-169c-67 3-38 105-44 169h-31v-121c0-29-5-50-35-48C34-165 62-65 56 0H25l-1-190h30c1 10-1 24 2 32 10-44 99-50 107 0 11-21 27-35 58-36 85-2 47 119 55 194h-31v-121c0-29-5-49-35-48" id="cd"/><path d="M115-194c53 0 69 39 70 98 0 66-23 100-70 100C84 3 66-7 56-30L54 0H23l1-261h32v101c10-23 28-34 59-34zm-8 174c40 0 45-34 45-75 0-40-5-75-45-74-42 0-51 32-51 76 0 43 10 73 51 73" id="ce"/><path d="M100-194c62-1 85 37 85 99 1 63-27 99-86 99S16-35 15-95c0-66 28-99 85-99zM99-20c44 1 53-31 53-75 0-43-8-75-51-75s-53 32-53 75 10 74 51 75zM51-211c8-23 27-35 38-54h36v5l-58 49H51zm61 0c8-23 27-35 38-54h36v5l-58 49h-16" id="cf"/><g id="am"><use transform="matrix(0.07407407407407404,0,0,0.07407407407407404,0,0)" xlink:href="#bY"/><use transform="matrix(0.07407407407407404,0,0,0.07407407407407404,17.77777777777777,0)" xlink:href="#bZ"/><use transform="matrix(0.07407407407407404,0,0,0.07407407407407404,32.59259259259258,0)" xlink:href="#ca"/><use transform="matrix(0.07407407407407404,0,0,0.07407407407407404,47.40740740740739,0)" xlink:href="#cb"/><use transform="matrix(0.07407407407407404,0,0,0.07407407407407404,60.740740740740726,0)" xlink:href="#bZ"/><use transform="matrix(0.07407407407407404,0,0,0.07407407407407404,75.55555555555553,0)" xlink:href="#cc"/><use transform="matrix(0.07407407407407404,0,0,0.07407407407407404,81.40740740740738,0)" xlink:href="#bZ"/><use transform="matrix(0.07407407407407404,0,0,0.07407407407407404,96.22222222222219,0)" xlink:href="#cd"/><use transform="matrix(0.07407407407407404,0,0,0.07407407407407404,118.37037037037032,0)" xlink:href="#ce"/><use transform="matrix(0.07407407407407404,0,0,0.07407407407407404,133.18518518518513,0)" xlink:href="#cf"/><use transform="matrix(0.07407407407407404,0,0,0.07407407407407404,147.99999999999994,0)" xlink:href="#cc"/></g><path d="M106-169C34-169 62-67 57 0H25v-261h32l-1 103c12-21 28-36 61-36 89 0 53 116 60 194h-32v-121c2-32-8-49-39-48" id="cg"/><path d="M24-231v-30h32v30H24zM24 0v-190h32V0H24" id="ch"/><path d="M59-47c-2 24 18 29 38 22v24C64 9 27 4 27-40v-127H5v-23h24l9-43h21v43h35v23H59v120" id="ci"/><g id="an"><use transform="matrix(0.07407407407407404,0,0,0.07407407407407404,0,0)" xlink:href="#cg"/><use transform="matrix(0.07407407407407404,0,0,0.07407407407407404,14.814814814814808,0)" xlink:href="#ch"/><use transform="matrix(0.07407407407407404,0,0,0.07407407407407404,20.666666666666657,0)" xlink:href="#ci"/></g><path d="M141-36C126-15 110 5 73 4 37 3 15-17 15-53c-1-64 63-63 125-63 3-35-9-54-41-54-24 1-41 7-42 31l-33-3c5-37 33-52 76-52 45 0 72 20 72 64v82c-1 20 7 32 28 27v20c-31 9-61-2-59-35zM48-53c0 20 12 33 32 33 41-3 63-29 60-74-43 2-92-5-92 41zm25-158c8-23 27-35 38-54h36v5l-58 49H73" id="cj"/><path d="M141-36C126-15 110 5 73 4 37 3 15-17 15-53c-1-64 63-63 125-63 3-35-9-54-41-54-24 1-41 7-42 31l-33-3c5-37 33-52 76-52 45 0 72 20 72 64v82c-1 20 7 32 28 27v20c-31 9-61-2-59-35zM48-53c0 20 12 33 32 33 41-3 63-29 60-74-43 2-92-5-92 41" id="ck"/><g id="ao"><use transform="matrix(0.07407407407407404,0,0,0.07407407407407404,0,0)" xlink:href="#cj"/><use transform="matrix(0.07407407407407404,0,0,0.07407407407407404,14.814814814814808,0)" xlink:href="#cc"/><use transform="matrix(0.07407407407407404,0,0,0.07407407407407404,20.666666666666657,0)" xlink:href="#ci"/><use transform="matrix(0.07407407407407404,0,0,0.07407407407407404,28.074074074074062,0)" xlink:href="#ck"/><use transform="matrix(0.07407407407407404,0,0,0.07407407407407404,42.88888888888887,0)" xlink:href="#cc"/></g><path d="M100-194c62-1 85 37 85 99 1 63-27 99-86 99S16-35 15-95c0-66 28-99 85-99zM99-20c44 1 53-31 53-75 0-43-8-75-51-75s-53 32-53 75 10 74 51 75zm22-194v-33h29v33h-29zm-69 0v-33h29v33H52" id="cl"/><path d="M114-163C36-179 61-72 57 0H25l-1-190h30c1 12-1 29 2 39 6-27 23-49 58-41v29" id="cm"/><path d="M143 0L79-87 56-68V0H24v-261h32v163l83-92h37l-77 82L181 0h-38" id="cn"/><g id="ap"><use transform="matrix(0.07407407407407404,0,0,0.07407407407407404,0,0)" xlink:href="#cl"/><use transform="matrix(0.07407407407407404,0,0,0.07407407407407404,14.814814814814808,0)" xlink:href="#cm"/><use transform="matrix(0.07407407407407404,0,0,0.07407407407407404,23.62962962962962,0)" xlink:href="#cl"/><use transform="matrix(0.07407407407407404,0,0,0.07407407407407404,38.44444444444443,0)" xlink:href="#cn"/></g><path d="M100-194c63 0 86 42 84 106H49c0 40 14 67 53 68 26 1 43-12 49-29l28 8c-11 28-37 45-77 45C44 4 14-33 15-96c1-61 26-98 85-98zm52 81c6-60-76-77-97-28-3 7-6 17-6 28h103zm-74-98c8-23 27-35 38-54h36v5l-58 49H78" id="co"/><g id="aq"><use transform="matrix(0.07407407407407404,0,0,0.07407407407407404,0,0)" xlink:href="#co"/><use transform="matrix(0.07407407407407404,0,0,0.07407407407407404,14.814814814814808,0)" xlink:href="#cc"/><use transform="matrix(0.07407407407407404,0,0,0.07407407407407404,20.666666666666657,0)" xlink:href="#bZ"/><use transform="matrix(0.07407407407407404,0,0,0.07407407407407404,35.48148148148147,0)" xlink:href="#ci"/></g><filter id="al" filterUnits="objectBoundingBox" x="-.03" y="-.05" width="1.07" height="1.26"><feOffset result="offOut" in="SourceAlpha" dy="6"/><feGaussianBlur result="blurOut" in="offOut" stdDeviation="5"/><feColorMatrix result="colorOut" in="blurOut" values="0 0 0 0 0 0 0 0 0 0 0 0 0 0 0 0 0 0 0.16862745098039217 0"/><feBlend in="SourceGraphic" in2="colorOut"/></filter><g id="as"><use transform="matrix(0.013020833333333332,0,0,0.013020833333333332,0,0)" xlink:href="#bV"/><use transform="matrix(0.013020833333333332,0,0,0.013020833333333332,14.830729166666666,0)" xlink:href="#bm"/><use transform="matrix(0.013020833333333332,0,0,0.013020833333333332,31.197916666666664,0)" xlink:href="#br"/><use transform="matrix(0.013020833333333332,0,0,0.013020833333333332,47.3046875,0)" xlink:href="#bs"/></g><path d="M1198-240c-25-390-10-810-14-1222h159V0h-194L350-1227h-8c30 405 10 805 16 1227H201v-1462h192l797 1222h8" id="cp"/><g id="at"><use transform="matrix(0.013020833333333332,0,0,0.013020833333333332,0,0)" xlink:href="#cp"/><use transform="matrix(0.013020833333333332,0,0,0.013020833333333332,20.104166666666664,0)" xlink:href="#br"/><use transform="matrix(0.013020833333333332,0,0,0.013020833333333332,36.2109375,0)" xlink:href="#bA"/></g><g id="au"><use transform="matrix(0.013020833333333332,0,0,0.013020833333333332,0,0)" xlink:href="#bK"/><use transform="matrix(0.013020833333333332,0,0,0.013020833333333332,7.434895833333333,0)" xlink:href="#bq"/><use transform="matrix(0.013020833333333332,0,0,0.013020833333333332,14.179687499999998,0)" xlink:href="#bq"/><use transform="matrix(0.013020833333333332,0,0,0.013020833333333332,20.924479166666664,0)" xlink:href="#bA"/><use transform="matrix(0.013020833333333332,0,0,0.013020833333333332,35.885416666666664,0)" xlink:href="#bB"/></g><path d="M621-1116c316 0 501 239 501 567 0 339-180 575-508 569S119-212 115-549c-4-339 178-567 506-567zm-5 141c-239 0-329 168-329 426 0 255 93 430 331 430s332-174 332-430-95-426-334-426zm256-573c-53 81-206 247-282 307H479v-25c58-73 149-217 191-303h202v21" id="cq"/><g id="av"><use transform="matrix(0.013020833333333332,0,0,0.013020833333333332,0,0)" xlink:href="#bF"/><use transform="matrix(0.013020833333333332,0,0,0.013020833333333332,24.075520833333332,0)" xlink:href="#cq"/><use transform="matrix(0.013020833333333332,0,0,0.013020833333333332,39.921875,0)" xlink:href="#bJ"/><use transform="matrix(0.013020833333333332,0,0,0.013020833333333332,52.39583333333333,0)" xlink:href="#bG"/><use transform="matrix(0.013020833333333332,0,0,0.013020833333333332,67.35677083333333,0)" xlink:href="#bB"/></g><filter id="ar" filterUnits="objectBoundingBox" x="-.04" y="-.05" width="1.08" height="1.25"><feOffset result="offOut" in="SourceAlpha" dy="6"/><feGaussianBlur result="blurOut" in="offOut" stdDeviation="5"/><feColorMatrix result="colorOut" in="blurOut" values="0 0 0 0 0 0 0 0 0 0 0 0 0 0 0 0 0 0 0.16862745098039217 0"/><feBlend in="SourceGraphic" in2="colorOut"/></filter><path d="M360-14c2 246-129 400-372 399-63 0-112-9-148-27V213c47 13 97 20 148 20 138 0 203-90 202-233v-1462h170V-14" id="cr"/><path d="M563 20c-271 0-399-123-399-399v-717h168v711c1 177 76 266 252 266 250 0 331-135 331-401v-576h166V0H944l-24-147h-9C848-44 724 20 563 20" id="cs"/><g id="ax"><use transform="matrix(0.013020833333333332,0,0,0.013020833333333332,0,0)" xlink:href="#cr"/><use transform="matrix(0.013020833333333332,0,0,0.013020833333333332,7.122395833333333,0)" xlink:href="#bA"/><use transform="matrix(0.013020833333333332,0,0,0.013020833333333332,21.822916666666664,0)" xlink:href="#bJ"/><use transform="matrix(0.013020833333333332,0,0,0.013020833333333332,34.296875,0)" xlink:href="#cs"/><use transform="matrix(0.013020833333333332,0,0,0.013020833333333332,50.6640625,0)" xlink:href="#bB"/></g><g id="ay"><use transform="matrix(0.013020833333333332,0,0,0.013020833333333332,0,0)" xlink:href="#bs"/><use transform="matrix(0.013020833333333332,0,0,0.013020833333333332,13.463541666666666,0)" xlink:href="#bQ"/><use transform="matrix(0.013020833333333332,0,0,0.013020833333333332,29.570312499999996,0)" xlink:href="#bL"/><use transform="matrix(0.013020833333333332,0,0,0.013020833333333332,42.9296875,0)" xlink:href="#bG"/><use transform="matrix(0.013020833333333332,0,0,0.013020833333333332,57.89062499999999,0)" xlink:href="#bz"/><use transform="matrix(0.013020833333333332,0,0,0.013020833333333332,67.3046875,0)" xlink:href="#bA"/><use transform="matrix(0.013020833333333332,0,0,0.013020833333333332,82.265625,0)" xlink:href="#bB"/><use transform="matrix(0.013020833333333332,0,0,0.013020833333333332,94.98697916666667,0)" xlink:href="#bG"/></g><filter id="aw" filterUnits="objectBoundingBox" x="-.03" y="-.07" width="1.06" height="1.33"><feOffset result="offOut" in="SourceAlpha" dy="6"/><feGaussianBlur result="blurOut" in="offOut" stdDeviation="5"/><feColorMatrix result="colorOut" in="blurOut" values="0 0 0 0 0 0 0 0 0 0 0 0 0 0 0 0 0 0 0.16862745098039217 0"/><feBlend in="SourceGraphic" in2="colorOut"/></filter><path d="M1311 0h-170v-688H371V0H201v-1462h170v622h770v-622h170V0" id="ct"/><g id="az"><use transform="matrix(0.013020833333333332,0,0,0.013020833333333332,0,0)" xlink:href="#ct"/><use transform="matrix(0.013020833333333332,0,0,0.013020833333333332,19.674479166666664,0)" xlink:href="#bE"/><use transform="matrix(0.013020833333333332,0,0,0.013020833333333332,26.41927083333333,0)" xlink:href="#bz"/></g><g id="aA"><use transform="matrix(0.013020833333333332,0,0,0.013020833333333332,0,0)" xlink:href="#cr"/><use transform="matrix(0.013020833333333332,0,0,0.013020833333333332,7.122395833333333,0)" xlink:href="#bA"/><use transform="matrix(0.013020833333333332,0,0,0.013020833333333332,21.822916666666664,0)" xlink:href="#bJ"/><use transform="matrix(0.013020833333333332,0,0,0.013020833333333332,34.296875,0)" xlink:href="#cs"/><use transform="matrix(0.013020833333333332,0,0,0.013020833333333332,50.6640625,0)" xlink:href="#bB"/><use transform="matrix(0.013020833333333332,0,0,0.013020833333333332,63.385416666666664,0)" xlink:href="#bS"/><use transform="matrix(0.013020833333333332,0,0,0.013020833333333332,79.7265625,0)" xlink:href="#bp"/><use transform="matrix(0.013020833333333332,0,0,0.013020833333333332,94.55729166666667,0)" xlink:href="#bm"/></g><g id="aC"><use transform="matrix(0.013020833333333332,0,0,0.013020833333333332,0,0)" xlink:href="#bx"/><use transform="matrix(0.013020833333333332,0,0,0.013020833333333332,14.635416666666666,0)" xlink:href="#bJ"/><use transform="matrix(0.013020833333333332,0,0,0.013020833333333332,27.109374999999996,0)" xlink:href="#bG"/><use transform="matrix(0.013020833333333332,0,0,0.013020833333333332,42.0703125,0)" xlink:href="#bm"/><use transform="matrix(0.013020833333333332,0,0,0.013020833333333332,58.43749999999999,0)" xlink:href="#bz"/><use transform="matrix(0.013020833333333332,0,0,0.013020833333333332,67.8515625,0)" xlink:href="#bq"/><use transform="matrix(0.013020833333333332,0,0,0.013020833333333332,74.59635416666667,0)" xlink:href="#bA"/><use transform="matrix(0.013020833333333332,0,0,0.013020833333333332,89.55729166666667,0)" xlink:href="#bq"/><use transform="matrix(0.013020833333333332,0,0,0.013020833333333332,96.30208333333334,0)" xlink:href="#bG"/><use transform="matrix(0.013020833333333332,0,0,0.013020833333333332,111.26302083333334,0)" xlink:href="#bs"/></g><filter id="aB" filterUnits="objectBoundingBox" x="-.03" y="-.07" width="1.06" height="1.33"><feOffset result="offOut" in="SourceAlpha" dy="6"/><feGaussianBlur result="blurOut" in="offOut" stdDeviation="5"/><feColorMatrix result="colorOut" in="blurOut" values="0 0 0 0 0 0 0 0 0 0 0 0 0 0 0 0 0 0 0.16862745098039217 0"/><feBlend in="SourceGraphic" in2="colorOut"/></filter><path d="M1257 0h-200L524-709 371-573V0H201v-1462h170v725l663-725h201L647-827" id="cu"/><g id="aE"><use transform="matrix(0.013020833333333332,0,0,0.013020833333333332,0,0)" xlink:href="#cu"/><use transform="matrix(0.013020833333333332,0,0,0.013020833333333332,16.3671875,0)" xlink:href="#bG"/><use transform="matrix(0.013020833333333332,0,0,0.013020833333333332,31.328124999999996,0)" xlink:href="#bn"/><use transform="matrix(0.013020833333333332,0,0,0.013020833333333332,45.9375,0)" xlink:href="#bo"/><use transform="matrix(0.013020833333333332,0,0,0.013020833333333332,59.37499999999999,0)" xlink:href="#bG"/><use transform="matrix(0.013020833333333332,0,0,0.013020833333333332,74.3359375,0)" xlink:href="#bq"/><use transform="matrix(0.013020833333333332,0,0,0.013020833333333332,81.08072916666667,0)" xlink:href="#bG"/><use transform="matrix(0.013020833333333332,0,0,0.013020833333333332,96.04166666666667,0)" xlink:href="#bD"/><use transform="matrix(0.013020833333333332,0,0,0.013020833333333332,120.84635416666669,0)" xlink:href="#bS"/><use transform="matrix(0.013020833333333332,0,0,0.013020833333333332,137.1875,0)" xlink:href="#bO"/><use transform="matrix(0.013020833333333332,0,0,0.013020833333333332,153.29427083333334,0)" xlink:href="#bq"/></g><g id="aF"><use transform="matrix(0.013020833333333332,0,0,0.013020833333333332,0,0)" xlink:href="#bN"/><use transform="matrix(0.013020833333333332,0,0,0.013020833333333332,16.3671875,0)" xlink:href="#bE"/><use transform="matrix(0.013020833333333332,0,0,0.013020833333333332,23.111979166666664,0)" xlink:href="#bz"/></g><g id="aG"><use transform="matrix(0.013020833333333332,0,0,0.013020833333333332,0,0)" xlink:href="#by"/><use transform="matrix(0.013020833333333332,0,0,0.013020833333333332,14.830729166666666,0)" xlink:href="#bq"/><use transform="matrix(0.013020833333333332,0,0,0.013020833333333332,21.575520833333332,0)" xlink:href="#bz"/><use transform="matrix(0.013020833333333332,0,0,0.013020833333333332,30.989583333333332,0)" xlink:href="#bp"/><use transform="matrix(0.013020833333333332,0,0,0.013020833333333332,45.8203125,0)" xlink:href="#bq"/></g><g id="aH"><use transform="matrix(0.013020833333333332,0,0,0.013020833333333332,0,0)" xlink:href="#bQ"/><use transform="matrix(0.013020833333333332,0,0,0.013020833333333332,16.106770833333332,0)" xlink:href="#bH"/><use transform="matrix(0.013020833333333332,0,0,0.013020833333333332,26.458333333333332,0)" xlink:href="#bQ"/><use transform="matrix(0.013020833333333332,0,0,0.013020833333333332,42.565104166666664,0)" xlink:href="#bs"/></g><g id="aI"><use transform="matrix(0.013020833333333332,0,0,0.013020833333333332,0,0)" xlink:href="#bA"/><use transform="matrix(0.013020833333333332,0,0,0.013020833333333332,14.960937499999998,0)" xlink:href="#bq"/><use transform="matrix(0.013020833333333332,0,0,0.013020833333333332,21.705729166666664,0)" xlink:href="#bG"/><use transform="matrix(0.013020833333333332,0,0,0.013020833333333332,36.666666666666664,0)" xlink:href="#bz"/></g><filter id="aD" filterUnits="objectBoundingBox" x="-.03" y="-.05" width="1.05" height="1.23"><feOffset result="offOut" in="SourceAlpha" dy="6"/><feGaussianBlur result="blurOut" in="offOut" stdDeviation="5"/><feColorMatrix result="colorOut" in="blurOut" values="0 0 0 0 0 0 0 0 0 0 0 0 0 0 0 0 0 0 0.16862745098039217 0"/><feBlend in="SourceGraphic" in2="colorOut"/></filter><path fill="#c92d39" d="M494-94c1 327-146 523-463 524-70 0-131-7-183-22V150c53 13 102 20 146 20 152 0 190-98 190-262v-1370h310V-94" id="cv"/><path fill="#c92d39" d="M1026 0H184v-1462h842v254H494v321h495v254H494v377h532V0zm-25-1886c-61 63-299 256-374 307H424v-27c115-133 193-234 235-301h342v21" id="cw"/><path fill="#c92d39" d="M1137 0H49v-201l701-1005H68v-256h1050v200L418-256h719V0" id="cx"/><path fill="#c92d39" d="M776-240c213 0 289-110 289-329v-893h309v946c-8 356-241 531-606 536-358 5-595-195-594-540v-942h309v895c2 220 76 327 293 327" id="cy"/><path fill="#c92d39" d="M596-1225c-134-8-223 103-163 219 11 21 33 41 61 60s93 53 196 102c137 65 230 130 281 196s76 147 76 242c-3 286-231 426-539 426C352 20 214-9 94-68v-288c159 68 260 115 438 120 123 3 211-41 211-155 0-73-44-105-95-141-63-46-329-160-390-220-78-77-147-167-147-315 0-273 208-420 495-416 177 2 298 46 434 103l-100 241c-131-51-199-78-344-86" id="cz"/><g id="aK"><use transform="matrix(0.013020833333333332,0,0,0.013020833333333332,0,0)" xlink:href="#cv"/><use transform="matrix(0.013020833333333332,0,0,0.013020833333333332,8.828125,0)" xlink:href="#cw"/><use transform="matrix(0.013020833333333332,0,0,0.013020833333333332,23.763020833333332,0)" xlink:href="#cx"/><use transform="matrix(0.013020833333333332,0,0,0.013020833333333332,39.205729166666664,0)" xlink:href="#cy"/><use transform="matrix(0.013020833333333332,0,0,0.013020833333333332,59.361979166666664,0)" xlink:href="#cz"/></g><path fill="#c92d39" d="M1382 0h-309v-631H494V0H184v-1462h310v573h579v-573h309V0" id="cA"/><path fill="#c92d39" d="M1026 0H184v-1462h842v254H494v321h495v254H494v377h532V0" id="cB"/><path fill="#c92d39" d="M184 0v-1462h310v1206h593V0H184" id="cC"/><path fill="#c92d39" d="M639-860l305-602h334L793-569V0H485v-559L0-1462h336" id="cD"/><path fill="#c92d39" d="M748 0H438v-1204H41v-258h1104v258H748V0" id="cE"/><g id="aL"><use transform="matrix(0.013020833333333332,0,0,0.013020833333333332,0,0)" xlink:href="#cA"/><use transform="matrix(0.013020833333333332,0,0,0.013020833333333332,20.403645833333332,0)" xlink:href="#cB"/><use transform="matrix(0.013020833333333332,0,0,0.013020833333333332,35.338541666666664,0)" xlink:href="#cC"/><use transform="matrix(0.013020833333333332,0,0,0.013020833333333332,49.60937499999999,0)" xlink:href="#cD"/><use transform="matrix(0.013020833333333332,0,0,0.013020833333333332,66.25,0)" xlink:href="#cB"/><use transform="matrix(0.013020833333333332,0,0,0.013020833333333332,81.18489583333333,0)" xlink:href="#cE"/><use transform="matrix(0.013020833333333332,0,0,0.013020833333333332,97.16145833333333,0)" xlink:href="#cE"/><use transform="matrix(0.013020833333333332,0,0,0.013020833333333332,112.60416666666666,0)" xlink:href="#cB"/><use transform="matrix(0.013020833333333332,0,0,0.013020833333333332,127.53906249999999,0)" xlink:href="#cz"/></g><path fill="#c92d39" d="M1360 0h-352L625-616l-131 94V0H184v-1462h310v669l122-172 396-497h344L846-815" id="cF"/><path fill="#c92d39" d="M881-1016c0-191-181-195-387-192v395c210 7 387-9 387-203zm313-8c0 197-121 322-272 387 220 329 363 541 430 637h-344L659-561H494V0H184v-1462h426c360 1 584 108 584 438" id="cG"/><path fill="#c92d39" d="M1079 0L973-348H440L334 0H0l516-1468h379L1413 0h-334zM899-608c-127-415-146-457-192-633-22 85-85 296-189 633h381zm219-1278c-61 63-299 256-374 307H541v-27c115-133 193-234 235-301h342v21" id="cH"/><path fill="#c92d39" d="M643-1462c464-5 754 260 754 717 0 491-297 749-799 745H184v-1462h459zm432 725c0-314-139-471-416-471H494v952h133c299 0 448-160 448-481" id="cI"/><path fill="#c92d39" d="M817-1485c460 0 694 282 694 752 0 468-238 753-696 753-459 0-696-285-696-755 0-471 238-750 698-750zm0 258c-273 0-374 198-373 494 0 296 98 493 371 493 247 0 371-164 371-493s-123-494-369-494" id="cJ"/><path fill="#c92d39" d="M1079 0L973-348H440L334 0H0l516-1468h379L1413 0h-334zM899-608c-127-415-146-457-192-633-22 85-85 296-189 633h381" id="cK"/><g id="aM"><use transform="matrix(0.013020833333333332,0,0,0.013020833333333332,0,0)" xlink:href="#cF"/><use transform="matrix(0.013020833333333332,0,0,0.013020833333333332,17.708333333333332,0)" xlink:href="#cB"/><use transform="matrix(0.013020833333333332,0,0,0.013020833333333332,32.643229166666664,0)" xlink:href="#cG"/><use transform="matrix(0.013020833333333332,0,0,0.013020833333333332,50.24739583333333,0)" xlink:href="#cB"/><use transform="matrix(0.013020833333333332,0,0,0.013020833333333332,65.18229166666666,0)" xlink:href="#cz"/><use transform="matrix(0.013020833333333332,0,0,0.013020833333333332,79.86979166666666,0)" xlink:href="#cx"/><use transform="matrix(0.013020833333333332,0,0,0.013020833333333332,95.31249999999999,0)" xlink:href="#cE"/><use transform="matrix(0.013020833333333332,0,0,0.013020833333333332,108.89322916666663,0)" xlink:href="#cH"/><use transform="matrix(0.013020833333333332,0,0,0.013020833333333332,127.29166666666663,0)" xlink:href="#cC"/><use transform="matrix(0.013020833333333332,0,0,0.013020833333333332,142.35677083333331,0)" xlink:href="#cI"/><use transform="matrix(0.013020833333333332,0,0,0.013020833333333332,162.09635416666666,0)" xlink:href="#cJ"/><use transform="matrix(0.013020833333333332,0,0,0.013020833333333332,183.05989583333334,0)" xlink:href="#cx"/><use transform="matrix(0.013020833333333332,0,0,0.013020833333333332,198.50260416666669,0)" xlink:href="#cK"/><use transform="matrix(0.013020833333333332,0,0,0.013020833333333332,215.03906250000003,0)" xlink:href="#cE"/><use transform="matrix(0.013020833333333332,0,0,0.013020833333333332,228.61979166666669,0)" xlink:href="#cK"/></g><filter id="aJ" filterUnits="objectBoundingBox" x="-.04" y="-.03" width="1.08" height="1.16"><feOffset result="offOut" in="SourceAlpha" dy="6"/><feGaussianBlur result="blurOut" in="offOut" stdDeviation="5"/><feColorMatrix result="colorOut" in="blurOut" values="0 0 0 0 0 0 0 0 0 0 0 0 0 0 0 0 0 0 0.16862745098039217 0"/><feBlend in="SourceGraphic" in2="colorOut"/></filter><filter id="aN" filterUnits="objectBoundingBox" x="-.01" y="-.07" width="1.01" height="1.33"><feOffset result="offOut" in="SourceAlpha" dy="6"/><feGaussianBlur result="blurOut" in="offOut" stdDeviation="5"/><feColorMatrix result="colorOut" in="blurOut" values="0 0 0 0 0 0 0 0 0 0 0 0 0 0 0 0 0 0 0.16862745098039217 0"/><feBlend in="SourceGraphic" in2="colorOut"/></filter><path d="M33 0v-248h34V0H33" id="cL"/><path d="M135-143c-3-34-86-38-87 0 15 53 115 12 119 90S17 21 10-45l28-5c4 36 97 45 98 0-10-56-113-15-118-90-4-57 82-63 122-42 12 7 21 19 24 35" id="cM"/><path d="M117-194c89-4 53 116 60 194h-32v-121c0-31-8-49-39-48C34-167 62-67 57 0H25l-1-190h30c1 10-1 24 2 32 11-22 29-35 61-36" id="cN"/><g id="aP"><use transform="matrix(0.07407407407407407,0,0,0.07407407407407407,0,0)" xlink:href="#cL"/><use transform="matrix(0.07407407407407407,0,0,0.07407407407407407,7.4074074074074066,0)" xlink:href="#cM"/><use transform="matrix(0.07407407407407407,0,0,0.07407407407407407,20.74074074074074,0)" xlink:href="#ci"/><use transform="matrix(0.07407407407407407,0,0,0.07407407407407407,28.148148148148145,0)" xlink:href="#bZ"/><use transform="matrix(0.07407407407407407,0,0,0.07407407407407407,42.96296296296296,0)" xlink:href="#cN"/></g><path d="M85 4C-4 8 31-112 24-190h32v120c0 31 7 50 39 49 72-2 45-101 50-169h31l1 190h-30c-1-10 1-25-2-33-11 22-28 36-60 37zm34-218v-33h29v33h-29zm-69 0v-33h29v33H50" id="cO"/><g id="aQ"><use transform="matrix(0.07407407407407407,0,0,0.07407407407407407,0,0)" xlink:href="#cN"/><use transform="matrix(0.07407407407407407,0,0,0.07407407407407407,14.814814814814813,0)" xlink:href="#co"/><use transform="matrix(0.07407407407407407,0,0,0.07407407407407407,29.629629629629626,0)" xlink:href="#cc"/><use transform="matrix(0.07407407407407407,0,0,0.07407407407407407,35.48148148148148,0)" xlink:href="#cn"/><use transform="matrix(0.07407407407407407,0,0,0.07407407407407407,48.81481481481481,0)" xlink:href="#cO"/><use transform="matrix(0.07407407407407407,0,0,0.07407407407407407,63.62962962962962,0)" xlink:href="#cc"/></g><path d="M108 0H70L1-190h34L89-25l56-165h34" id="cP"/><g id="aR"><use transform="matrix(0.07407407407407407,0,0,0.07407407407407407,0,0)" xlink:href="#cP"/><use transform="matrix(0.07407407407407407,0,0,0.07407407407407407,13.333333333333332,0)" xlink:href="#co"/><use transform="matrix(0.07407407407407407,0,0,0.07407407407407407,28.148148148148145,0)" xlink:href="#ca"/><use transform="matrix(0.07407407407407407,0,0,0.07407407407407407,42.96296296296296,0)" xlink:href="#cc"/><use transform="matrix(0.07407407407407407,0,0,0.07407407407407407,48.81481481481481,0)" xlink:href="#bZ"/><use transform="matrix(0.07407407407407407,0,0,0.07407407407407407,63.62962962962962,0)" xlink:href="#ca"/><use transform="matrix(0.07407407407407407,0,0,0.07407407407407407,78.44444444444443,0)" xlink:href="#bZ"/><use transform="matrix(0.07407407407407407,0,0,0.07407407407407407,93.25925925925924,0)" xlink:href="#cM"/></g><path d="M9 0v-24l116-142H16v-24h144v24L44-24h123V0H9" id="cQ"/><g id="aS"><use transform="matrix(0.07407407407407407,0,0,0.07407407407407407,0,0)" xlink:href="#bZ"/><use transform="matrix(0.07407407407407407,0,0,0.07407407407407407,14.814814814814813,0)" xlink:href="#cc"/><use transform="matrix(0.07407407407407407,0,0,0.07407407407407407,20.666666666666664,0)" xlink:href="#cP"/><use transform="matrix(0.07407407407407407,0,0,0.07407407407407407,34,0)" xlink:href="#bZ"/><use transform="matrix(0.07407407407407407,0,0,0.07407407407407407,48.81481481481481,0)" xlink:href="#cM"/><use transform="matrix(0.07407407407407407,0,0,0.07407407407407407,62.14814814814814,0)" xlink:href="#cQ"/><use transform="matrix(0.07407407407407407,0,0,0.07407407407407407,75.48148148148147,0)" xlink:href="#co"/><use transform="matrix(0.07407407407407407,0,0,0.07407407407407407,90.29629629629628,0)" xlink:href="#cM"/></g><filter id="aO" filterUnits="objectBoundingBox" x="-.02" y="-.06" width="1.03" height="1.31"><feOffset result="offOut" in="SourceAlpha" dy="6"/><feGaussianBlur result="blurOut" in="offOut" stdDeviation="5"/><feColorMatrix result="colorOut" in="blurOut" values="0 0 0 0 0 0 0 0 0 0 0 0 0 0 0 0 0 0 0.16862745098039217 0"/><feBlend in="SourceGraphic" in2="colorOut"/></filter></defs></g></svg>