<?xml version="1.0" encoding="UTF-8" standalone="no"?>
<!DOCTYPE svg PUBLIC "-//W3C//DTD SVG 1.1//EN" "http://www.w3.org/Graphics/SVG/1.1/DTD/svg11.dtd">
<svg width="100%" height="100%" viewBox="0 0 568 878" version="1.1" xmlns="http://www.w3.org/2000/svg" xmlns:xlink="http://www.w3.org/1999/xlink" xml:space="preserve" xmlns:serif="http://www.serif.com/" style="fill-rule:evenodd;clip-rule:evenodd;stroke-linejoin:round;stroke-miterlimit:2;">
    <g transform="matrix(0.950093,0,0,1.10119,155.082,-219.517)">
        <path d="M189.971,254.732C187.986,254.732 186.311,254.349 184.946,253.584C183.581,252.819 182.568,251.826 181.906,250.606C181.245,249.386 180.914,248.115 180.914,246.791C180.914,245.426 181.234,244.237 181.875,243.224C182.516,242.211 183.292,241.477 184.202,241.022C185.814,238.127 187.221,235.201 188.42,232.244C189.619,229.287 190.757,226.092 191.832,222.66L201.013,221.419C201.22,226.713 201.571,232.44 202.068,238.603C202.274,241.084 202.378,242.883 202.378,244C202.378,246.522 201.737,248.59 200.455,250.203C199.173,251.816 197.591,252.974 195.709,253.677C193.827,254.38 191.915,254.732 189.971,254.732ZM187.986,249.831C189.516,249.831 190.798,249.376 191.832,248.466C192.866,247.556 193.383,246.088 193.383,244.062C193.383,242.821 193.259,241.084 193.011,238.851C192.597,234.136 192.328,230.972 192.204,229.359C191.212,232.627 189.537,236.535 187.179,241.084C188.13,241.58 188.606,242.304 188.606,243.255C188.606,244.041 188.348,244.744 187.831,245.364C187.314,245.985 186.662,246.295 185.876,246.295C185.008,246.295 184.45,246.026 184.202,245.488C184.202,246.977 184.501,248.073 185.101,248.776C185.701,249.479 186.662,249.831 187.986,249.831Z" style="fill:rgb(255,48,0);"/>
        <text x="67.948px" y="254.36px" style="font-family:'Lobster-Regular', 'Lobster';font-size:62.035px;fill:rgb(255,48,0);">Jézu</text>
    </g>
    <g transform="matrix(5.81764e-17,-0.950093,1.10119,6.74281e-17,-216.467,404.859)">
        <path d="M189.971,254.732C187.986,254.732 186.311,254.349 184.946,253.584C183.581,252.819 182.568,251.826 181.906,250.606C181.245,249.386 180.914,248.115 180.914,246.791C180.914,245.426 181.234,244.237 181.875,243.224C182.516,242.211 183.292,241.477 184.202,241.022C185.814,238.127 187.221,235.201 188.42,232.244C189.619,229.287 190.757,226.092 191.832,222.66L201.013,221.419C201.22,226.713 201.571,232.44 202.068,238.603C202.274,241.084 202.378,242.883 202.378,244C202.378,246.522 201.737,248.59 200.455,250.203C199.173,251.816 197.591,252.974 195.709,253.677C193.827,254.38 191.915,254.732 189.971,254.732ZM187.986,249.831C189.516,249.831 190.798,249.376 191.832,248.466C192.866,247.556 193.383,246.088 193.383,244.062C193.383,242.821 193.259,241.084 193.011,238.851C192.597,234.136 192.328,230.972 192.204,229.359C191.212,232.627 189.537,236.535 187.179,241.084C188.13,241.58 188.606,242.304 188.606,243.255C188.606,244.041 188.348,244.744 187.831,245.364C187.314,245.985 186.662,246.295 185.876,246.295C185.008,246.295 184.45,246.026 184.202,245.488C184.202,246.977 184.501,248.073 185.101,248.776C185.701,249.479 186.662,249.831 187.986,249.831Z" style="fill:rgb(255,48,0);"/>
        <text x="67.948px" y="254.36px" style="font-family:'Lobster-Regular', 'Lobster';font-size:62.035px;fill:rgb(255,48,0);">Jézu</text>
    </g>
    <g transform="matrix(5.81764e-17,-0.950093,1.10119,6.74281e-17,260.558,403.988)">
        <path d="M189.971,254.732C187.986,254.732 186.311,254.349 184.946,253.584C183.581,252.819 182.568,251.826 181.906,250.606C181.245,249.386 180.914,248.115 180.914,246.791C180.914,245.426 181.234,244.237 181.875,243.224C182.516,242.211 183.292,241.477 184.202,241.022C185.814,238.127 187.221,235.201 188.42,232.244C189.619,229.287 190.757,226.092 191.832,222.66L201.013,221.419C201.22,226.713 201.571,232.44 202.068,238.603C202.274,241.084 202.378,242.883 202.378,244C202.378,246.522 201.737,248.59 200.455,250.203C199.173,251.816 197.591,252.974 195.709,253.677C193.827,254.38 191.915,254.732 189.971,254.732ZM187.986,249.831C189.516,249.831 190.798,249.376 191.832,248.466C192.866,247.556 193.383,246.088 193.383,244.062C193.383,242.821 193.259,241.084 193.011,238.851C192.597,234.136 192.328,230.972 192.204,229.359C191.212,232.627 189.537,236.535 187.179,241.084C188.13,241.58 188.606,242.304 188.606,243.255C188.606,244.041 188.348,244.744 187.831,245.364C187.314,245.985 186.662,246.295 185.876,246.295C185.008,246.295 184.45,246.026 184.202,245.488C184.202,246.977 184.501,248.073 185.101,248.776C185.701,249.479 186.662,249.831 187.986,249.831Z" style="fill:rgb(255,48,0);"/>
        <text x="67.948px" y="254.36px" style="font-family:'Lobster-Regular', 'Lobster';font-size:62.035px;fill:rgb(255,48,0);">Jézu</text>
    </g>
    <g transform="matrix(0.950093,0,0,1.10119,151.842,159.633)">
        <text x="67.948px" y="254.36px" style="font-family:'Pattaya-Regular', 'Pattaya';font-size:62.035px;fill:rgb(255,48,0);">Jézus</text>
    </g>
    <g transform="matrix(1,0,0,1.10119,64.9347,-21.4662)">
        <text x="67.948px" y="254.36px" style="font-family:'Nunito-ExtraBold', 'Nunito';font-weight:800;font-size:62.035px;fill:rgb(0,48,255);">az igaz<tspan x="268.383px " y="254.36px ">s</tspan>ág</text>
    </g>
    <g transform="matrix(6.12323e-17,-1,1.10119,6.74281e-17,-17.3331,941.852)">
        <text x="67.948px" y="254.36px" style="font-family:'Nunito-ExtraBold', 'Nunito';font-weight:800;font-size:62.035px;fill:rgb(0,48,255);">az igaz<tspan x="268.383px " y="254.36px ">s</tspan>ág</text>
    </g>
    <g transform="matrix(1,0,0,1.10119,76.4112,53.9544)">
        <text x="67.948px" y="254.36px" style="font-family:'Nunito-ExtraBold', 'Nunito';font-weight:800;font-size:62.035px;fill:rgb(0,48,255);">és az él<tspan x="285.877px 319.748px " y="254.36px 254.36px ">et</tspan></text>
    </g>
    <g transform="matrix(6.12323e-17,-1,1.10119,6.74281e-17,71.9541,943.196)">
        <text x="67.948px" y="254.36px" style="font-family:'Nunito-ExtraBold', 'Nunito';font-weight:800;font-size:62.035px;fill:rgb(0,48,255);">és az él<tspan x="285.877px 319.748px " y="254.36px 254.36px ">et</tspan></text>
    </g>
    <g transform="matrix(1,0,0,1.10119,143.13,-117.517)">
        <text x="67.948px" y="254.36px" style="font-family:'Nunito-ExtraBold', 'Nunito';font-weight:800;font-size:62.035px;fill:rgb(0,48,255);">az út</text>
    </g>
    <g transform="matrix(1,0,0,1.10119,143.13,253.483)">
        <text x="67.948px" y="254.36px" style="font-family:'Nunito-ExtraBold', 'Nunito';font-weight:800;font-size:62.035px;fill:rgb(0,48,255);">az út</text>
    </g>
    <g transform="matrix(1.02262,0,0,0.8981,-7.2085,27.8709)">
        <rect x="15.85" y="190.003" width="537.832" height="167.019" style="fill:white;"/>
    </g>
    <g transform="matrix(0.988818,0,0,1.02321,-9.70299,-15.6786)">
        <rect x="221.176" y="15.323" width="151.696" height="858.08" style="fill:white;"/>
    </g>
</svg>
