<?xml version="1.0" encoding="UTF-8" standalone="no"?>
<!DOCTYPE svg PUBLIC "-//W3C//DTD SVG 1.1//EN" "http://www.w3.org/Graphics/SVG/1.1/DTD/svg11.dtd">
<svg width="100%" height="100%" viewBox="0 0 406 82" version="1.1" xmlns="http://www.w3.org/2000/svg" xmlns:xlink="http://www.w3.org/1999/xlink" xml:space="preserve" xmlns:serif="http://www.serif.com/" style="fill-rule:evenodd;clip-rule:evenodd;stroke-linejoin:round;stroke-miterlimit:2;">
    <g transform="matrix(1,0,0,1,-162.481,-359.169)">
        <g transform="matrix(0.939197,0,0,0.939197,17.2917,25.8157)">
            <path d="M434.84,428.745C430.701,428.745 426.893,427.774 423.416,425.833C419.938,423.892 417.186,421.182 415.16,417.705C413.133,414.228 412.12,410.313 412.12,405.961C412.12,401.609 413.133,397.705 415.16,394.249C417.186,390.793 419.938,388.094 423.416,386.153C426.893,384.212 430.701,383.241 434.84,383.241C439.021,383.241 442.85,384.212 446.328,386.153C449.805,388.094 452.546,390.793 454.552,394.249C456.557,397.705 457.56,401.609 457.56,405.961C457.56,410.313 456.557,414.228 454.552,417.705C452.546,421.182 449.805,423.892 446.328,425.833C442.85,427.774 439.021,428.745 434.84,428.745ZM496.92,396.617C495.768,394.398 494.168,392.724 492.12,391.593C490.072,390.462 487.704,389.897 485.016,389.897C482.072,389.897 479.448,390.558 477.144,391.881C474.84,393.204 473.037,395.081 471.736,397.513C470.434,399.945 469.784,402.761 469.784,405.961C469.784,409.161 470.434,411.988 471.736,414.441C473.037,416.894 474.84,418.782 477.144,420.105C479.448,421.428 482.072,422.089 485.016,422.089C488.984,422.089 492.205,420.98 494.68,418.761C497.154,416.542 498.669,413.534 499.224,409.737L482.52,409.737L482.52,403.913L507.032,403.913L507.032,409.609C506.562,413.065 505.336,416.244 503.352,419.145C501.368,422.046 498.786,424.361 495.608,426.089C492.429,427.817 488.898,428.681 485.016,428.681C480.834,428.681 477.016,427.71 473.56,425.769C470.104,423.828 467.362,421.129 465.336,417.673C463.309,414.217 462.296,410.313 462.296,405.961C462.296,401.609 463.309,397.705 465.336,394.249C467.362,390.793 470.114,388.094 473.592,386.153C477.069,384.212 480.877,383.241 485.016,383.241C489.752,383.241 493.965,384.404 497.656,386.729C501.346,389.054 504.024,392.35 505.688,396.617L496.92,396.617ZM289.176,397.065C289.176,399.326 288.642,401.46 287.576,403.465C286.509,405.47 284.802,407.102 282.456,408.361C280.109,409.62 277.101,410.249 273.432,410.249L265.368,410.249L265.368,428.297L258.072,428.297L258.072,383.817L273.432,383.817C276.845,383.817 279.736,384.404 282.104,385.577C284.472,386.75 286.242,388.34 287.416,390.345C288.589,392.35 289.176,394.59 289.176,397.065ZM393.432,422.409L408.472,422.409L408.472,428.297L386.136,428.297L386.136,383.817L393.432,383.817L393.432,422.409ZM565.848,421.961L586.52,421.961L586.52,428.297L557.208,428.297L557.208,422.601L577.816,390.153L557.208,390.153L557.208,383.817L586.52,383.817L586.52,389.513L565.848,421.961ZM355.288,383.817C360.024,383.817 364.173,384.724 367.736,386.537C371.298,388.35 374.05,390.953 375.992,394.345C377.933,397.737 378.904,401.694 378.904,406.217C378.904,410.74 377.933,414.665 375.992,417.993C374.05,421.321 371.298,423.87 367.736,425.641C364.173,427.412 360.024,428.297 355.288,428.297L340.76,428.297L340.76,383.817L355.288,383.817ZM322.968,419.209L304.344,419.209L301.144,428.297L293.528,428.297L309.464,383.753L317.912,383.753L333.848,428.297L326.168,428.297L322.968,419.209ZM541.016,419.209L522.392,419.209L519.192,428.297L511.576,428.297L527.512,383.753L535.96,383.753L551.896,428.297L544.216,428.297L541.016,419.209ZM434.84,422.409C437.784,422.409 440.408,421.737 442.712,420.393C445.016,419.049 446.818,417.129 448.12,414.633C449.421,412.137 450.072,409.246 450.072,405.961C450.072,402.676 449.421,399.796 448.12,397.321C446.818,394.846 445.016,392.948 442.712,391.625C440.408,390.302 437.784,389.641 434.84,389.641C431.896,389.641 429.272,390.302 426.968,391.625C424.664,392.948 422.861,394.846 421.56,397.321C420.258,399.796 419.608,402.676 419.608,405.961C419.608,409.246 420.258,412.137 421.56,414.633C422.861,417.129 424.664,419.049 426.968,420.393C429.272,421.737 431.896,422.409 434.84,422.409ZM355.288,422.345C360.493,422.345 364.482,420.937 367.256,418.121C370.029,415.305 371.416,411.337 371.416,406.217C371.416,401.054 370.029,397.022 367.256,394.121C364.482,391.22 360.493,389.769 355.288,389.769L348.056,389.769L348.056,422.345L355.288,422.345ZM320.92,413.257L313.688,392.585L306.392,413.257L320.92,413.257ZM538.968,413.257L531.736,392.585L524.44,413.257L538.968,413.257ZM273.432,404.297C276.205,404.297 278.274,403.668 279.64,402.409C281.005,401.15 281.688,399.369 281.688,397.065C281.688,392.201 278.936,389.769 273.432,389.769L265.368,389.769L265.368,404.297L273.432,404.297ZM538.328,374.281L524.184,381.257L524.184,375.881L538.328,368.073L538.328,374.281ZM441.432,374.281L427.288,381.257L427.288,375.881L441.432,368.073L441.432,374.281Z" style="fill-rule:nonzero;"/>
        </g>
        <g transform="matrix(0.587337,0,0,0.587337,-31.623,165.064)">
            <path d="M455.153,385.544C455.127,385.443 455.101,385.343 455.074,385.243C453.783,380.426 451.904,375.923 449.543,371.779L460.022,364.933C463.08,370.165 465.501,375.88 467.143,382.009C477.063,419.032 455.014,457.223 417.992,467.143C380.969,477.064 342.777,455.014 332.857,417.991C322.937,380.968 344.986,342.777 382.01,332.856C385.576,331.901 389.152,331.246 392.712,330.868L393.401,343.372C390.685,343.69 387.961,344.2 385.245,344.927C364.795,350.407 349.914,366.402 344.86,385.541C345.424,385.427 346.007,385.367 346.605,385.367C349.21,385.367 385.985,383.272 397.264,382.853L392.132,391.933C391.508,392.9 388.729,396.839 388.729,400C388.729,406.22 393.78,411.271 400,411.271C404.184,411.271 408.036,408.816 409.98,405.426C410.343,405.123 410.409,404.88 410.528,404.414L415.884,383.465C431.032,384.231 451.477,385.367 453.395,385.367C453.997,385.367 454.585,385.428 455.153,385.544ZM456.981,402.149C455.887,402.64 454.673,402.913 453.395,402.913C451.489,402.913 431.258,410.041 416.133,414.901C413.332,430.186 408.773,452.44 408.773,454.446C408.773,455.107 408.7,455.752 408.561,456.372C410.623,456.057 412.693,455.625 414.758,455.072C439.47,448.45 456.049,426.472 456.981,402.149ZM343.018,402.149C343.176,406.327 343.8,410.551 344.927,414.757C350.962,437.277 369.749,453.043 391.438,456.367C391.299,455.749 391.227,455.106 391.227,454.446C391.227,452.44 386.667,430.186 383.867,414.901C368.742,410.041 348.512,402.913 346.605,402.913C345.328,402.913 344.114,402.64 343.018,402.149ZM405.365,400.819C405.296,401.271 405.172,401.706 404.998,402.114L404.957,402.261L404.937,402.253C404.081,404.125 402.191,405.426 400,405.426C397.005,405.426 394.574,402.995 394.574,400C394.574,398.76 394.991,397.616 395.692,396.702L418.827,353.231L405.365,400.819ZM443.877,363.619C444.515,364.386 445.133,365.173 445.733,365.976L456.221,359.124C455.2,357.724 454.13,356.364 453.013,355.051L443.877,363.619ZM439.124,358.557L448.257,349.994C447.01,348.794 445.722,347.642 444.393,346.542L436.885,356.563C437.648,357.208 438.396,357.871 439.124,358.557ZM431.326,352.404L438.833,342.385C437.399,341.42 435.931,340.511 434.431,339.655L428.78,350.82C429.643,351.324 430.491,351.855 431.326,352.404ZM422.584,347.69L428.237,336.519C426.662,335.815 425.058,335.172 423.431,334.586L419.803,346.571C420.74,346.921 421.667,347.293 422.584,347.69ZM413.165,344.537L416.79,332.564C415.117,332.144 413.426,331.785 411.719,331.49L410.227,343.919C411.213,344.101 412.194,344.303 413.165,344.537ZM400.332,342.993C401.338,342.999 402.338,343.034 403.334,343.093L404.828,330.654C403.109,330.533 401.38,330.476 399.644,330.484L400.332,342.993Z" style="fill-rule:nonzero;"/>
        </g>
    </g>
</svg>
