<?xml version="1.0" encoding="UTF-8" standalone="no"?>
<!DOCTYPE svg PUBLIC "-//W3C//DTD SVG 1.1//EN" "http://www.w3.org/Graphics/SVG/1.1/DTD/svg11.dtd">
<svg width="100%" height="100%" viewBox="0 0 512 512" version="1.1" xmlns="http://www.w3.org/2000/svg" xmlns:xlink="http://www.w3.org/1999/xlink" xml:space="preserve" xmlns:serif="http://www.serif.com/" style="fill-rule:evenodd;clip-rule:evenodd;stroke-linejoin:round;stroke-miterlimit:2;">
    <path d="M500.661,292.325C498.562,288.754 493.967,287.558 490.395,289.657C486.823,291.756 485.629,296.351 487.727,299.923C493.793,310.249 496.999,322.054 496.999,334.061C496.999,371.295 466.707,401.587 429.474,401.587C392.24,401.587 361.948,371.295 361.948,334.061C361.948,324.587 363.93,315.281 367.733,306.709L387.661,325.661C387.107,328.421 386.825,331.231 386.825,334.061C386.825,357.578 405.957,376.709 429.473,376.709C452.989,376.709 472.121,357.577 472.121,334.061C472.121,310.545 452.989,291.413 429.473,291.413C425.915,291.413 422.407,291.862 418.989,292.729L399.062,273.779C408.446,269.026 418.801,266.536 429.473,266.536C445.504,266.536 461.053,272.267 473.255,282.676C474.667,283.881 476.398,284.47 478.118,284.47C480.238,284.47 482.345,283.576 483.828,281.837C486.516,278.686 486.141,273.951 482.989,271.264C468.074,258.542 449.068,251.536 429.472,251.536C414.642,251.536 400.305,255.458 387.648,262.925L378.421,254.15C392.093,246.373 407.893,241.924 424.715,241.924C429.692,241.924 434.709,242.322 439.629,243.106C441.818,243.456 444.046,242.819 445.72,241.369L469.387,220.874C473.161,217.606 476.021,213.533 477.788,208.989C484.11,192.741 484.419,162.068 472.364,148.301C439.301,110.536 390.237,91.947 334.217,95.947C320.46,96.931 312.527,112.132 319.613,124.043L322.91,129.584L307.26,129.584C303.117,129.584 299.76,132.942 299.76,137.084C299.76,141.226 303.117,144.584 307.26,144.584L331.438,144.584C334.924,152.243 336.568,160.563 336.267,168.936C321.222,155.555 301.857,148.099 281.241,148.099C254.067,148.099 229.034,161.147 213.453,183.199L159.488,183.199C155.244,183.199 151.085,181.735 147.776,179.077L92.9,134.987C91.568,133.917 89.911,133.334 88.203,133.334L43.334,133.334C30.885,133.334 20.757,143.462 20.757,155.911C20.757,163.162 24.274,170.017 30.164,174.249L46.307,185.843C49.668,188.258 54.357,187.491 56.774,184.126C59.19,180.762 58.421,176.076 55.057,173.659L38.915,162.065C36.937,160.645 35.757,158.344 35.757,155.91C35.757,151.732 39.156,148.333 43.334,148.333L85.563,148.333L138.384,190.771C144.346,195.561 151.842,198.199 159.49,198.199L216.257,198.199L264.825,216.763L291.557,226.981C290.165,227.702 272.139,243.501 242.85,243.501L226.38,243.501C209.888,243.501 194.23,252.364 185.821,267.58L173.425,258.676C173.424,258.675 173.422,258.674 173.42,258.673L75.393,188.265C72.03,185.849 67.343,186.617 64.926,189.981C62.51,193.345 63.279,198.032 66.643,200.448L155.521,264.285L139.354,274.23C124.081,259.739 103.704,251.534 82.527,251.534C37.021,251.535 0,288.555 0,334.06C0,379.565 37.021,416.586 82.526,416.586C128.031,416.586 165.051,379.565 165.051,334.06C165.051,327.069 164.157,320.146 162.411,313.402L180.164,302.479L180.164,358.708C180.164,380.145 197.603,397.584 219.039,397.584L255.175,397.584L255.175,401.586L206.244,401.586C202.101,401.586 198.744,404.943 198.744,409.086C198.744,413.229 202.101,416.586 206.244,416.586L262.675,416.586C266.818,416.586 270.175,413.229 270.175,409.086L270.175,397.584L338.99,397.584C341.725,397.584 344.243,396.095 345.561,393.699C346.879,391.303 346.789,388.378 345.325,386.068C335.813,371.064 330.786,353.701 330.786,335.854C330.786,317.346 336.169,300.074 345.448,285.514L356.328,295.861C350.179,307.616 346.948,320.7 346.948,334.059C346.948,379.564 383.969,416.585 429.474,416.585C474.979,416.585 512,379.565 512,334.06C512,319.385 508.079,304.952 500.661,292.325ZM150.052,334.06C150.052,371.294 119.76,401.586 82.527,401.586C45.292,401.587 15,371.295 15,334.06C15,296.827 45.292,266.535 82.526,266.535C98.499,266.535 113.905,272.257 126.009,282.439L102.951,296.623C96.71,293.202 89.739,291.412 82.526,291.412C59.009,291.412 39.878,310.544 39.878,334.06C39.878,357.576 59.01,376.708 82.526,376.708C105.274,376.708 123.916,358.806 125.111,336.351L148.899,321.715C149.657,325.779 150.052,329.904 150.052,334.06ZM326.299,382.585L219.039,382.585C205.874,382.585 195.164,371.874 195.164,358.709L195.164,289.718C195.164,274.123 206.649,261.33 221.289,258.925C234.662,256.695 264.662,264.708 298.094,240.754C321.741,223.808 343.198,212.99 349.844,181.215C352.42,168.9 351.58,156.284 347.563,144.586L356.448,144.586C360.591,144.586 363.948,141.228 363.948,137.086C363.948,132.944 360.591,129.586 356.448,129.586L340.366,129.586L332.507,116.375C331.152,114.098 332.612,111.102 335.289,110.91C382.03,107.569 423.315,121.264 452.896,149.63C439.814,155.169 430.613,168.138 430.613,183.215C430.613,197.854 439.292,210.497 451.771,216.29L438.488,227.793C433.922,227.216 429.305,226.924 424.718,226.924C364.716,226.924 315.786,275.658 315.786,335.856C315.786,352.127 319.393,368.056 326.299,382.585ZM67.759,344.716C72.018,351.778 79.531,355.693 87.247,355.693C91.259,355.693 95.325,354.634 99.016,352.409L106.503,347.802C101.727,356.104 92.772,361.71 82.526,361.71C67.281,361.71 54.878,349.307 54.878,334.062C54.878,318.817 67.281,306.414 82.526,306.414C83.884,306.414 85.227,306.521 86.55,306.714L75.488,313.519C70.473,316.541 66.857,321.316 65.306,326.963C63.666,332.937 64.56,339.408 67.759,344.716ZM457.123,334.06C457.123,349.305 444.72,361.708 429.475,361.708C416.154,361.708 405.004,352.237 402.401,339.676L413.814,350.529C418.057,354.564 423.619,356.787 429.473,356.787C435.671,356.787 441.674,354.212 445.945,349.721C450.129,345.323 452.348,339.558 452.196,333.489C452.043,327.42 449.536,321.774 445.136,317.592L433.724,306.739C446.959,308.789 457.123,320.26 457.123,334.06ZM256,340.71L234.459,340.71C230.316,340.71 226.959,344.067 226.959,348.21C226.959,352.353 230.316,355.71 234.459,355.71L256,355.71C260.143,355.71 263.5,352.353 263.5,348.21C263.5,344.067 260.143,340.71 256,340.71ZM365.75,262.798L381.558,277.831C381.565,277.837 381.571,277.844 381.578,277.85L434.799,328.462C436.295,329.884 437.147,331.804 437.199,333.866C437.251,335.929 436.496,337.889 435.074,339.386C433.6,340.935 431.611,341.788 429.471,341.788C427.481,341.788 425.591,341.032 424.148,339.661L370.938,289.059C370.922,289.043 370.906,289.028 370.889,289.013L354.553,273.478C357.988,269.62 361.733,266.047 365.75,262.798ZM180.717,282.383C180.602,283.106 180.488,283.9 180.396,284.726L113.733,325.742L91.212,339.599C87.564,341.799 82.804,340.62 80.605,336.972C79.501,335.141 79.206,332.996 79.772,330.934C80.298,329.014 81.527,327.392 83.29,326.33L106.819,311.856C106.84,311.843 106.861,311.83 106.882,311.818L141.979,290.229C141.992,290.221 142.006,290.212 142.019,290.204L168.729,273.774L180.717,282.383ZM281.244,163.1C301.185,163.1 319.707,171.611 332.656,186.585C325.128,206.114 310.413,212.852 306.173,216.509L243.61,192.596L229.341,187.142C242.186,171.942 260.992,163.1 281.244,163.1ZM463.569,162.055C469.222,174.497 467.482,195.778 463.458,204.362C453.34,202.643 445.612,193.814 445.612,183.214C445.612,172.585 453.382,163.738 463.569,162.055Z" style="fill-rule:nonzero;"/>
</svg>
