<?xml version="1.0" encoding="iso-8859-1"?>
<!-- Generator: Adobe Illustrator 18.1.1, SVG Export Plug-In . SVG Version: 6.00 Build 0)  -->
<svg version="1.1" id="Capa_1" xmlns="http://www.w3.org/2000/svg" xmlns:xlink="http://www.w3.org/1999/xlink" x="0px" y="0px"
	 viewBox="0 0 556.961 556.961" style="enable-background:new 0 0 556.961 556.961;" xml:space="preserve">
<g>
	<g>
		<polygon points="176.629,67.441 203.896,108.293 215.568,108.293 215.568,46.058 203.388,46.058 203.388,87.007 176.121,46.058 
			164.546,46.058 164.546,108.293 176.629,108.293 		"/>
		<polygon points="264.895,96.693 242.23,96.693 242.23,80.299 264.895,80.299 264.895,68.942 242.23,68.942 242.23,57.633 
			264.895,57.633 264.895,46.058 230.146,46.058 230.146,108.293 264.895,108.293 		"/>
		<polygon points="297.369,108.293 308.871,68.046 320.616,108.293 332.263,108.293 346.623,46.058 334.685,46.058 325.556,85.82 
			314.053,46.058 303.907,46.058 292.598,85.82 283.324,46.058 271.434,46.058 285.818,108.293 		"/>
		<path d="M371.372,98.558c-4.044,0-7.531-2.736-10.582-8.233L350.57,96.33c2.422,4.698,5.279,8.088,8.645,10.267
			c3.342,2.179,7.337,3.269,11.866,3.269c5.836,0,10.534-1.647,14.142-4.964c3.608-3.342,5.4-7.58,5.4-12.616
			c0-2.64-0.533-5.134-1.526-7.362c-1.017-2.204-2.761-4.504-5.231-6.974c-1.017-0.896-3.802-3.366-8.379-7.144
			c-4.964-4.02-7.967-6.708-8.911-8.04c-0.751-0.848-1.09-1.84-1.09-2.906c0-1.041,0.533-2.034,1.501-2.785
			c1.041-0.896,2.301-1.211,3.923-1.211c3.269,0,6.466,2.155,9.662,6.345l8.96-7.725c-3.342-3.802-6.441-6.466-9.347-7.797
			c-2.857-1.501-5.909-2.179-9.057-2.179c-4.964,0-9.129,1.55-12.495,4.553c-3.366,3.148-5.037,6.853-5.037,11.188
			c0,2.93,0.969,6.005,3.051,8.936c2.01,3.075,6.49,7.362,13.44,12.859c3.632,2.857,6.03,5.037,7.095,6.49
			c1.017,1.356,1.55,2.809,1.55,4.141c0,1.574-0.678,3.003-2.083,4.165C375.222,98.001,373.43,98.558,371.372,98.558z"/>
		<path d="M72.647,0v556.961h411.667V0H72.647z M104.321,170.188h158.322v139.24H104.321V170.188z M452.64,448.668H104.321v-30.948
			H452.64V448.668z M452.64,386.773H104.321v-30.948H452.64V386.773z M452.64,324.853H294.317v-30.948H452.64V324.853z
			 M452.64,263.055H294.317v-30.948H452.64V263.055z M452.64,201.16H341.829v-30.972H452.64V201.16z M452.64,123.815H104.321V30.948
			H452.64V123.815z"/>
	</g>
</g>
<g>
</g>
<g>
</g>
<g>
</g>
<g>
</g>
<g>
</g>
<g>
</g>
<g>
</g>
<g>
</g>
<g>
</g>
<g>
</g>
<g>
</g>
<g>
</g>
<g>
</g>
<g>
</g>
<g>
</g>
</svg>
