<svg xmlns="http://www.w3.org/2000/svg" viewBox="0 0 32 32"><title>down android app aplication phone</title><g id="down_android_app_aplication_phone" data-name="down android app aplication phone"><path d="M16,31A15,15,0,1,1,31,16,15,15,0,0,1,16,31ZM16,3A13,13,0,1,0,29,16,13,13,0,0,0,16,3Z"/><path d="M15.18,26.57l-7-10A1,1,0,0,1,9,15h2.5V8a2,2,0,0,1,2-2h5a2,2,0,0,1,2,2v7H23a1,1,0,0,1,.82,1.57l-7,10A1,1,0,0,1,15.18,26.57ZM10.92,17,16,24.26,21.08,17H19.5a1,1,0,0,1-1-1V8h-5v8a1,1,0,0,1-1,1Z"/></g></svg>