<?xml version="1.0" encoding="UTF-8" standalone="no"?>
<!DOCTYPE svg PUBLIC "-//W3C//DTD SVG 1.1//EN" "http://www.w3.org/Graphics/SVG/1.1/DTD/svg11.dtd">
<svg width="100%" height="100%" viewBox="0 0 512 512" version="1.1" xmlns="http://www.w3.org/2000/svg" xmlns:xlink="http://www.w3.org/1999/xlink" xml:space="preserve" xmlns:serif="http://www.serif.com/" style="fill-rule:evenodd;clip-rule:evenodd;stroke-linejoin:round;stroke-miterlimit:2;">
    <path d="M505.107,254.016L495.023,243.932L474.708,182.986C477.739,182.023 479.936,179.188 479.936,175.839C479.936,171.697 476.578,168.339 472.436,168.339L399.775,168.339L399.775,135.761C399.775,127.205 392.815,120.245 384.259,120.245L15.516,120.245C6.96,120.245 0,127.206 0,135.761L0,312.115C0,320.671 6.96,327.631 15.516,327.631L24.048,327.631L24.048,344.175C24.048,352.731 31.008,359.691 39.564,359.691L56.835,359.691C60.351,377.931 76.426,391.755 95.677,391.755C108.859,391.755 120.548,385.269 127.741,375.327C134.935,385.269 146.624,391.755 159.806,391.755C179.057,391.755 195.133,377.931 198.648,359.691L385.496,359.691C389.012,377.931 405.087,391.755 424.338,391.755C446.154,391.755 463.902,374.006 463.902,352.191C463.902,352.019 463.891,351.85 463.889,351.679L496.483,351.679C505.039,351.679 511.999,344.719 511.999,336.163L511.999,270.655C512,264.37 509.552,258.461 505.107,254.016ZM95.677,376.757C82.132,376.757 71.113,365.737 71.113,352.193C71.113,338.7 82.05,327.716 95.524,327.632L95.832,327.632C109.306,327.715 120.243,338.699 120.243,352.193C120.242,365.737 109.222,376.757 95.677,376.757ZM159.807,376.757C146.262,376.757 135.242,365.737 135.242,352.193C135.242,338.7 146.179,327.716 159.653,327.632L159.961,327.632C173.435,327.715 184.372,338.699 184.372,352.193C184.371,365.737 173.352,376.757 159.807,376.757ZM424.339,376.757C410.794,376.757 399.775,365.737 399.775,352.193C399.775,338.7 410.712,327.716 424.186,327.632L424.34,327.632C424.357,327.632 424.374,327.63 424.392,327.629C437.913,327.657 448.905,338.665 448.905,352.192C448.903,365.737 437.884,376.757 424.339,376.757ZM159.887,344.692L159.807,344.692C155.665,344.692 152.347,348.05 152.347,352.192C152.347,356.334 155.745,359.692 159.887,359.692C164.029,359.692 167.387,356.334 167.387,352.192C167.387,348.05 164.029,344.692 159.887,344.692ZM95.758,344.692L95.677,344.692C91.535,344.692 88.218,348.05 88.218,352.192C88.218,356.334 91.616,359.692 95.758,359.692C99.9,359.692 103.258,356.334 103.258,352.192C103.258,348.05 99.9,344.692 95.758,344.692ZM424.419,344.692L424.339,344.692C420.197,344.692 416.879,348.05 416.879,352.192C416.879,356.334 420.277,359.692 424.419,359.692C428.561,359.692 431.919,356.334 431.919,352.192C431.919,348.05 428.561,344.692 424.419,344.692ZM56.835,344.692L39.564,344.692C39.279,344.692 39.048,344.461 39.048,344.176L39.048,327.632L64.693,327.632C60.813,332.518 58.06,338.334 56.835,344.692ZM385.497,344.692L198.649,344.692C197.424,338.334 194.671,332.517 190.79,327.631L336.161,327.631C340.303,327.631 343.661,324.273 343.661,320.131C343.661,315.989 340.303,312.631 336.161,312.631L15.516,312.631C15.231,312.631 15,312.4 15,312.115L15,135.761C15,135.476 15.231,135.245 15.516,135.245L384.258,135.245C384.543,135.245 384.774,135.476 384.774,135.761L384.774,312.632L368.229,312.632C364.087,312.632 360.729,315.99 360.729,320.132C360.729,324.274 364.087,327.632 368.229,327.632L393.355,327.632C389.474,332.518 386.722,338.334 385.497,344.692ZM497,336.165C497,336.45 496.769,336.681 496.484,336.681L460.732,336.681C454.687,322.554 440.652,312.629 424.339,312.629C424.287,312.629 424.237,312.633 424.185,312.633L399.775,312.633L399.775,183.854C399.775,183.569 400.006,183.338 400.291,183.338L459.014,183.338L464.702,200.402L424.339,200.402C420.197,200.402 416.839,203.76 416.839,207.902L416.839,247.983C416.839,256.539 423.799,263.499 432.355,263.499L493.377,263.499L494.501,264.623C496.112,266.235 497,268.377 497,270.656L497,288.584L488.468,288.584C484.326,288.584 480.968,291.942 480.968,296.084C480.968,300.226 484.326,303.584 488.468,303.584L497,303.584L497,336.165ZM360.209,280.567L39.564,280.567C35.422,280.567 32.064,283.925 32.064,288.067C32.064,292.209 35.422,295.567 39.564,295.567L360.209,295.567C364.351,295.567 367.709,292.209 367.709,288.067C367.709,283.925 364.351,280.567 360.209,280.567ZM480.734,248.499L432.355,248.499C432.07,248.499 431.839,248.268 431.839,247.983L431.839,215.402L469.702,215.402L480.734,248.499Z" style="fill-rule:nonzero;"/>
</svg>
