<?xml version="1.0" encoding="iso-8859-1"?>
<!-- Uploaded to: SVG Repo, www.svgrepo.com, Generator: SVG Repo Mixer Tools -->
<svg fill="#000000" height="800px" width="800px" version="1.1" id="Layer_1" xmlns="http://www.w3.org/2000/svg" xmlns:xlink="http://www.w3.org/1999/xlink" 
	 viewBox="0 0 512 512" xml:space="preserve">
<g>
	<g>
		<g>
			<path d="M373.333,42.667H138.667c-5.891,0-10.667,4.776-10.667,10.667V416c0,5.891,4.776,10.667,10.667,10.667h234.667
				c5.891,0,10.667-4.776,10.667-10.667V53.333C384,47.442,379.224,42.667,373.333,42.667z M362.667,405.333H149.333V64h213.333
				V405.333z"/>
			<path d="M373.333,0H138.667c-29.441,0.035-53.298,23.893-53.333,53.333v405.333c0.035,29.441,23.893,53.298,53.333,53.333
				h234.667c29.441-0.035,53.298-23.893,53.333-53.333V53.333C426.631,23.893,402.774,0.035,373.333,0z M405.333,458.667
				c0,17.673-14.327,32-32,32H138.667c-17.673,0-32-14.327-32-32V53.333c0-17.673,14.327-32,32-32h234.667c17.673,0,32,14.327,32,32
				V458.667z"/>
			<circle cx="256" cy="458.667" r="21.333"/>
		</g>
	</g>
</g>
</svg>